<?xml version="1.0" encoding="utf-8"?>
<!-- Generator: Adobe Illustrator 26.0.0, SVG Export Plug-In . SVG Version: 6.00 Build 0)  -->
<svg version="1.1" id="Layer_1" xmlns="http://www.w3.org/2000/svg" xmlns:xlink="http://www.w3.org/1999/xlink" x="0px" y="0px"
	 viewBox="0 0 655.1 239.5" style="enable-background:new 0 0 655.1 239.5;" xml:space="preserve">
<style type="text/css">
	.st0{fill-rule:evenodd;clip-rule:evenodd;fill:#FFFFFF;}
	.st1{fill:#FFFFFF;}
</style>
<g>
	<g>
		<polygon class="st0" points="86.2,14.9 90.8,10.7 88.1,4.9 93.6,7.9 98.2,3.7 97,9.9 102.5,12.8 96.3,13.7 95.1,19.8 92.4,14.1 
			86.2,14.9 86.2,14.9 		"/>
		<path class="st0" d="M82.1,22.1c2.4,7.5,9.3,12.8,17.5,12.8c10.1,0,18.3-8.2,18.3-18.3c0-7.4-4.4-13.7-10.7-16.6
			c9.7,2,16.9,10.5,16.9,20.6c0,11.6-9.4,21.1-20.9,21.1C91.9,41.7,82.9,33.1,82.1,22.1L82.1,22.1L82.1,22.1L82.1,22.1z"/>
		<path class="st0" d="M103.1,166.8c0-1-0.7-2.1-4.9-5.2c-4.3-3.2-15.6-2.5-25.6-6.1c-9.9-3.5-16.9-10.9-16.9-20.8l0,0V58.2h94.9
			v76.4l0,0c0,10-7.1,17.4-17,20.8c-9.9,3.6-21.2,2.9-25.5,6.1C103.8,164.7,103.1,165.8,103.1,166.8L103.1,166.8L103.1,166.8
			L103.1,166.8z M84.2,61.2v9h9.3v-9H84.2L84.2,61.2z M103.1,61.2v9.5h9.5v-9.5H103.1L103.1,61.2z M122.1,61.2v9.5h9.3v-0.9v-8.6
			H122.1L122.1,61.2z M141,61.2v8.6h5.5v0.9h-15.1V80h9.5v0.9h-18.2v7.7h4.8v0.9h-4.8v7.3h-0.9v-7.3h-9.3v9.3H104v5.9h-0.9v-5.9h0
			v-9.3h-9.3V98h5.5v0.9h-5.5h-9.5V98v-8.5H69.1v-0.9h5.5v-8.5H66v0h-0.9v0h0v-9.1h-4.9v-0.9h4.9v-5.6H66v5.6h8.6v-9H58.6v43.4
			c0.5,0,1-0.2,1.4-0.6c0.5-0.4,0.8-1.1,0.9-1.9c0.9,0.1,1.8,0.3,2.8,0.4c0,3.9,0,7.9,0,11.8c0,3.9,0,7.9,0,11.8
			c-1.2-0.5-2.3-0.9-3.5-1.2c0-2.9,0-5.8,0-8.8c0-2.9,0-5.8,0-8.8c-0.5,0-1-0.1-1.6-0.1v27.2l0,0.8l0.1,0.8l0.1,0.8l0.1,0.7l0.2,0.7
			l0.2,0.7l0.2,0.7l0.2,0.7l0.3,0.7l0.3,0.7l0.3,0.6l0.4,0.6l0.4,0.6l0.4,0.6l0.4,0.6l0.5,0.6l0.5,0.6l0.5,0.6l0.6,0.5l0.6,0.5
			l0.6,0.5l0.6,0.5l0.7,0.5l0.7,0.5l0.7,0.4l0.7,0.4l0.7,0.4l0.8,0.4l0.8,0.4l0.8,0.3l0.8,0.3l0.8,0.3l0.9,0.3l0.9,0.3l0.9,0.3
			l0.9,0.2L78,154l0.9,0.2l0.9,0.2l0.9,0.2l0.9,0.2l0.9,0.2l0.9,0.2l0.9,0.1l0.9,0.1l0.9,0.1l0.9,0.1l0.9,0.1l0.9,0.1l0.9,0.1
			l0.8,0.1l0.8,0.1l0.8,0.1l0.8,0.1l0.8,0.2l0.8,0.2l0.7,0.2l0.7,0.2l0.7,0.2l0,0c-0.3-0.6-0.6-1.2-0.8-1.9c-0.6-2.1-1-5.1-1-9.1
			c0-3.8,0-7.5,0-11.3c0-3.8,0-7.5,0-11.3c0-4,0.3-6.7,1-8.3c0.6-1.6,1.7-2.2,3.2-2c1.5,0.2,2.5,1.1,3.2,2.9c0.6,1.8,1,4.8,1,9
			c0,3.9,0,7.9,0,11.8c0,3.9,0,7.9,0,11.8c0,4.2-0.3,7.2-1,8.8c-0.4,1-0.9,1.6-1.5,1.9l0,0l0.7,0.5l0.6,0.5l0.6,0.5l0.5,0.4l0.5-0.4
			l0.6-0.5l0.6-0.5l0.7-0.5l0.8-0.6l0.6-0.4l0,0c0-5.6,0-11.2,0-16.8c0-5.6,0-11.3,0-16.9c-0.7,0.1-1.3,0.2-2,0.3c0-1.8,0-3.6,0-5.4
			c0,0,0.1,0,0.1,0c0.7,0,1.2-0.6,1.7-1.5c0.5-1,0.8-2.3,0.9-3.8c0.9-0.1,1.8-0.3,2.8-0.6c0,7.2,0,14.4,0,21.6c0,7.2,0,14.4,0,21.6
			c-0.3,0.2-0.5,0.3-0.8,0.5l0.6-0.2l0.7-0.2l0.7-0.2l0.8-0.2l0.8-0.2l0.8-0.1l0.8-0.1l0.8-0.1l0.8-0.1l0.8-0.1l0.9-0.1l0.9-0.1
			l0.9-0.1l0.9-0.1l0.9-0.1l0.9-0.1l0.9-0.2l0.9-0.2l0.9-0.2l0.9-0.2l0.9-0.2l0.9-0.2l0.9-0.2l0.9-0.2l0.9-0.3l0.9-0.3l0.9-0.3
			l0.9-0.3l0.8-0.3l0.8-0.3l0.8-0.4l0.8-0.4l0.8-0.4l0.7-0.4l0.7-0.4l0.7-0.5l0.7-0.5l0.6-0.5l0.6-0.5l0.6-0.5l0.6-0.5l0.5-0.6
			l0.5-0.6l0.5-0.6l0.4-0.6l0.4-0.6l0.4-0.6l0.4-0.6l0.3-0.6l0.3-0.7l0.3-0.7l0.2-0.7l0.2-0.7l0.2-0.7l0.2-0.7l0.1-0.7l0.1-0.8
			l0.1-0.8l0-0.8v-9.8c-1.1,0.2-2.2,0.3-3.3,0.6c0-3,0-6,0-8.9c0-3,0-5.9,0-8.9c-0.7,0.1-1.3,0.3-1.9,0.4c0-1,0-1.9,0-2.9
			c0,0,0.1,0,0.1,0c0.7-0.1,1.3-0.5,1.7-1c0.5-0.5,0.8-1.2,0.9-2.1c0.8,0,1.7-0.1,2.5-0.1V61.2H141L141,61.2z M66.8,109.2
			c0-2.3,0.3-3.9,1-4.7c0.6-0.8,1.7-1,3.2-0.5c1.5,0.5,2.6,1.5,3.2,2.9c0.6,1.4,1,3.5,1,6.3c0,2.6,0,5.2,0,7.9c0,2.6,0,5.2,0,7.9
			c0,2.8-0.3,4.4-1,4.9c-0.6,0.5-1.7-0.1-3.2-1.5c-1.5-1.4-2.5-2.8-3.2-4.3c-0.6-1.5-1-3.4-1-5.7c0-2.2,0-4.4,0-6.6
			C66.8,113.6,66.8,111.4,66.8,109.2L66.8,109.2z M70.3,108.9c0,2.9,0,5.8,0,8.7c0,2.9,0,5.8,0,8.7c0,0.5,0,0.8,0.1,1.1
			c0.1,0.3,0.2,0.5,0.5,0.7c0.2,0.2,0.4,0.2,0.5,0.1c0.1-0.1,0.1-0.4,0.1-0.9c0-3,0-6,0-9c0-3,0-6,0-9c0-0.5,0-0.9-0.1-1.1
			c-0.1-0.2-0.2-0.4-0.5-0.5c-0.2-0.1-0.4,0-0.5,0.1C70.4,108.2,70.3,108.5,70.3,108.9L70.3,108.9z M76.2,113.8c0-2.8,0.3-4.7,1-5.7
			c0.6-1,1.7-1.2,3.2-0.6c1.5,0.6,2.5,1.7,3.2,3.4c0.6,1.7,1,4.3,1,7.7c0,3.2,0,6.4,0,9.6c0,3.2,0,6.4,0,9.6c0,3.4-0.3,5.5-1,6.2
			c-0.6,0.7-1.7,0.1-3.2-1.6c-1.5-1.7-2.5-3.6-3.2-5.6c-0.6-1.9-1-4.3-1-7.1c0-2.7,0-5.4,0-8.1C76.2,119.2,76.2,116.5,76.2,113.8
			L76.2,113.8z M79.7,113.7c0,3.6,0,7.2,0,10.8c0,3.6,0,7.2,0,10.8c0,0.6,0.1,1,0.1,1.4c0.1,0.4,0.3,0.7,0.5,0.9
			c0.2,0.2,0.4,0.3,0.5,0.1c0.1-0.2,0.1-0.5,0.1-1.1c0-3.7,0-7.4,0-11.1c0-3.7,0-7.4,0-11.1c0-0.6,0-1.1-0.1-1.4
			c-0.1-0.3-0.2-0.5-0.5-0.6c-0.2-0.1-0.4-0.1-0.5,0.2C79.7,112.8,79.7,113.2,79.7,113.7L79.7,113.7z M88.2,150.7c0-5,0-10,0-14.9
			c0-5,0-10,0-14.9c-0.7-0.4-1.3-0.7-1.9-1.1c0-1.5,0-3.1,0-4.6c0,0,0.1,0,0.1,0c0.7,0.3,1.3,0.2,1.7-0.4c0.5-0.6,0.8-1.6,0.9-2.9
			c0.9,0.3,1.8,0.6,2.8,1c0,6.9,0,13.7,0,20.6c0,6.9,0,13.7,0,20.6C90.5,153,89.3,151.9,88.2,150.7L88.2,150.7z M98.4,122
			c0,4.8,0,9.6,0,14.4c0,4.8,0,9.6,0,14.4c0,0.8,0,1.3,0.1,1.7c0.1,0.4,0.3,0.6,0.5,0.7c0.2,0.1,0.4,0,0.5-0.3
			c0.1-0.3,0.1-0.9,0.1-1.6c0-4.8,0-9.7,0-14.5c0-4.8,0-9.7,0-14.5c0-0.8,0-1.4-0.1-1.7c-0.1-0.3-0.2-0.5-0.5-0.5
			c-0.2,0-0.4,0.1-0.5,0.4C98.4,120.7,98.4,121.2,98.4,122L98.4,122z M116.2,152.3c0-5.1,0-10.2,0-15.4c0-5.1,0-10.2,0-15.4
			c-0.7,0.3-1.3,0.6-1.9,1c0-1.7,0-3.3,0-5c0,0,0.1,0,0.1,0c0.7-0.3,1.3-0.9,1.7-1.9c0.5-1,0.8-2.2,0.9-3.7c0.9-0.4,1.8-0.7,2.8-1.1
			c0,6.3,0,12.6,0,19c0,6.3,0,12.6,0,19C118.6,149.9,117.4,151.1,116.2,152.3L116.2,152.3z M122.9,117.9c0-3.3,0.3-5.8,1-7.5
			c0.6-1.7,1.7-2.8,3.2-3.4c1.5-0.6,2.5-0.4,3.2,0.5c0.6,0.9,1,2.7,1,5.5c0,2.6,0,5.2,0,7.8s0,5.2,0,7.8c0,2.8-0.3,5.1-1,7
			c-0.6,1.9-1.7,3.7-3.2,5.5c-1.5,1.7-2.5,2.3-3.2,1.7c-0.6-0.7-1-2.7-1-6c0-3.1,0-6.3,0-9.4C122.9,124.1,122.9,121,122.9,117.9
			L122.9,117.9z M126.4,113.5c0,3.6,0,7.2,0,10.8c0,3.6,0,7.2,0,10.8c0,0.6,0,0.9,0.1,1.1c0.1,0.2,0.3,0.1,0.5-0.1
			c0.2-0.2,0.4-0.5,0.5-0.9c0.1-0.3,0.1-0.8,0.1-1.3c0-3.5,0-7,0-10.5c0-3.5,0-7,0-10.5c0-0.6,0-1-0.1-1.1c-0.1-0.2-0.2-0.2-0.5-0.1
			c-0.2,0.1-0.4,0.3-0.5,0.6C126.5,112.5,126.4,113,126.4,113.5L126.4,113.5z M134.9,131.8c0-3.5,0-7,0-10.4c0-3.5,0-7,0-10.5
			c-0.7,0.3-1.3,0.7-2,1c0-1.1,0-2.3,0-3.5c0,0,0.1,0,0.1,0c0.7-0.3,1.2-0.8,1.7-1.6c0.5-0.7,0.8-1.6,0.9-2.6
			c0.9-0.3,1.8-0.6,2.8-0.9c0,4.2,0,8.5,0,12.7c0,4.2,0,8.5,0,12.7C137.3,129.7,136.1,130.7,134.9,131.8L134.9,131.8z M104,80.9v8.5
			h8.6v-0.7v-7.7H104L104,80.9z M103.1,89.4v-8.5h0L103.1,89.4L103.1,89.4L103.1,89.4z M93.7,80h9.3v-9.3h-9.3v0.4V80L93.7,80z
			 M112.6,80h9.3v-9.3h-9.3V80L112.6,80z M84.2,71.1h-9.5V80h9.5V71.1L84.2,71.1z M93.5,89.4v-8.5v-0.7h-9.3v8.5v0.7H93.5L93.5,89.4
			z"/>
		<path class="st0" d="M47.3,34.2c1.3,0.3,1.7,2.9,2.1,2.9c0-0.1,0-0.1,0-0.2c0.8-0.3,1.8-0.9,2.7-0.9c0.3,0,0.5,0.3,0.8,0.3
			c-0.2,0.8-0.5,1.6-0.7,2.4c-0.2,0.5-0.4,1-0.6,1.5c0,0.4,0.5,0.8,0.6,1.1c0.3,0.5,0.8,1.8,0.4,2.4c-0.5,1-5.3-1-5.3-1.5
			c-0.2,0-0.1-0.1-0.1,0.2c-0.8,0.5-4.7,4-4.7,4.8c0.1,0,0.1,0,0.2,0c0.3-0.1,0.6-0.1,0.9-0.2c0.8-0.4,2.2-0.8,3.2-0.8
			c0.2-0.1,2.5-1.6,2.1-0.2c-0.3,1-7.5,5.8-8.3,5.8c0,0.1,0,0.1,0,0.2c1.2-0.2,2.1,0.3,1.8,1.6c-0.1,0.4-0.3,0.8-0.4,1.2
			c0.9,0.1,3,0.8,3.1,1.8c0.1,0.8-2.2,2.2-2.8,2.2c0,0.1,0,0.1,0,0.2c0.3,0.4,1.6,3.2,0.9,3.5c-0.7,0.4-2.9-1.1-3.9-1.1
			c-0.8,0.9-1.6,1.7-2.4,2.6c-0.1,0.4-0.2,0.9-0.3,1.3c-0.3,1.1-0.8,2.2-1.5,3c-1.8,2-4,3.3-6.1,4.9c-0.5,0.4-1.1,0.8-1.4,1.4
			c-0.3,0.4-0.4,0.9-0.8,1.2c-1.2,1-2.4,2-3.7,3c-1.8,1.8-2.6,3.6-3.5,5.8c-0.1,0.1-0.4,0.8-0.1,0.8c0-0.1,0-0.1,0-0.2
			c1.6-1.8,3-4.2,5.1-5.7c2.3-1.6,5-2.5,7.2-4.2c0.3-0.2,1.3-0.8,1.3-1.1c0.2,0,0.3,0,0.5,0c0.1,0.3,0.2,0.7,0.1,1
			c-0.4,0.4-0.7,0.9-1.1,1.3c-1.5,1.7-3.2,3.2-4.8,4.6c-0.8,0.7-2.6,1.6-2.6,2.8c0.5,0.3,2.3,1.8,2.3,2.4c0.1,0,0.2,0,0.3,0
			c0.1-0.8,0.3-1.5,0.6-2.1c0.5-0.9,3-3.4,4.1-2.9c1.2,0.5,0.4,5.6-0.5,5.6c0,0.1,0,0.2,0,0.3c0.5-0.1,1.3-0.2,1.8,0
			c0.6,0.1,2.8,1.7,2.8,2.3c0,1.2-3.3,2.6-4.3,2.6c0,0.1,0,0.1,0,0.2c0.9,1.1,1.2,3,1.6,4.4c0,0,0,0.1,0,0.1c-0.1,0-0.1,0-0.2,0
			c0,0.1,0,0.2,0,0.3c-1.9,0.4-4.1-0.8-5.5-1.7c-0.1-0.1-0.4-0.3-0.4-0.1c-0.9,1-2.5,3.2-4.1,3.2c-0.3-0.6-0.6-1.5-0.6-2.3
			c-0.1,0-0.2,0-0.3,0c-0.2,0.4-1.1,1.1-1.1,1.7c-0.2,0-0.2-0.1-0.2,0.2c0.7,0.1,1.7,0.5,1.6,1.3c-0.1,0.5-2.4,2.5-2.9,2.8
			c-0.4,0.2-1.1,0.3-1.5,0.7c-0.7,0.9-2,5.1-1.8,6.2c0.1,0.7,0.8,1,0.8,1.7c-0.4,0.1-0.7,0.2-1.2,0.2c0.1,0.7,0.1,1.4,0.2,2.1
			c0.7-1.3,1.3-2.7,2.2-4c0.9-1.3,7.9-10.1,9.2-10.1c0.1,0.2,0.3,0.5,0.3,0.7c0,0.9-1.3,3.9-1.9,4.6c-0.9,1.3-2.1,2.3-3,3.6
			c-1.2,1.6-2.3,3.3-3.2,5.1c-1.3,2.6-1.9,5.6-2.2,8.7c-0.1,0.9-0.2,4.9,0.2,5.6c0.7,0.7,1.5,1.5,2.2,2.2c0.2,0.2,0.6,1,1,1
			c0,0.1,0,0.1,0,0.2c0.1,0,0.1,0,0.2,0c0-0.1,0-0.1,0-0.2c-0.3-0.6-0.5-3.1,0.3-3.4c0.9-0.4,3.5,1.4,3.5,2.3c0.1,0,0.2,0,0.3,0
			c0-0.1,0-0.1,0-0.2c0.4-1.2,0.7-2.3,1.1-3.5c-0.7,0.1-1.4,0.2-2.1,0.3c-2,0-6-1-5.9-3.6c0.1-1.7,4.7-1,4.8-1.7
			c0-0.6-0.7-2.2-0.9-2.8c-0.5-1.4-1.2-5.5,0.1-6.7c0.2-0.1,0.4-0.2,0.5-0.2c1.1,0.1,3.9,4.3,3.9,5.2c0.1,0,0.2,0,0.3,0
			c0.6-1.9,3.6-6,5.3-7.2c0.2-0.1,0.1,0,0.1-0.2c0.7,0.5,0.7,1.2,0.8,2.1c0.2,3.3-0.5,5.5-1.4,8.2c-0.1,0.3-0.2,0.5-0.2,0.8
			c1.1-0.2,2.3-0.6,3.6-0.6c0.9-0.3,3.5,0,3.5,1.2c-1.4,0.4-1.3,0.8-2.3,1.7c-1,0.9-2.1,1.7-3.3,2.2c-0.4,0.2-0.8,0.3-1.2,0.5
			c0,0.2,0,0.3,0.1,0.3c0.4,0.8,1,1.7,1.5,2.4c0.3,0.4,0.9,0.7,1.1,1.2c0.1,0.2,0,0.6-0.2,0.7c-0.5,0.2-1.3-0.4-1.7-0.5
			c-1.8-0.5-3.5-0.5-5-1.4c-0.1-0.1-0.3-0.2-0.3-0.4c-0.1,0-0.2,0-0.3,0c-0.2,0.6-0.3,1.2-0.5,1.8c0.6,0,1.3,0,1.6,0.4
			c0.5,0.7-0.7,4.2-1.1,4.8c-0.5,0.6-1.4,1-1.7,1.6c-0.4,0.9-0.3,4.2-0.2,5.2c0,0.3,0.2,1.4,0.2,1.2c0.1,0,0.1,0,0.2,0
			c0.3-1.8,1.9-4.5,3-5.9c1.2-1.5,2.4-2.9,3.6-4.4c0.4-0.5,0.7-1.1,1.3-1.4c0.2-0.1,0.1,0,0.1-0.2c0.2,0,0.3-0.1,0.3,0.2
			c1.5,0.9,0.2,2.7-0.1,3.6c-0.1,0.5-0.3,1.1-0.4,1.6c-0.6,1.2-1.2,2.4-1.8,3.6c-0.3,0.4-1.4,1.9-1.4,2.3c0.1,0,0.1,0,0.2,0
			c0.5,0.5,2.7,1.9,2.7,2.7c0.1,0,0.1,0,0.2,0c0-0.1,0-0.1,0-0.2c0.9-1.1,1.9-3.4,2.9-4.3c0.3-0.2,0.8-0.3,1,0
			c0.3,0.3,0.4,0.8,0.5,1.3c0.6,2.2,0.3,4.3-0.3,6.3c0,0.2-0.3,0.7,0,0.7c0-0.1,0-0.1,0-0.2c1-0.2,2.1-0.5,3.1-0.4
			c0.9,0.1,2.2,0.4,2.7,1.2c0.1,0.1,0.2,0.2,0,0.2c-1,2-3.3,2.8-5.1,3.8c-0.1,0.1-0.2,0.2-0.3,0.3c0.1,0,0.1,0,0.2,0
			c1,1.7,2.3,3.2,3.2,5c0.1,0.3,0.5,0.6,0.5,0.9c0.1,0,0.1,0,0.2,0c0.5-3,4.1-5.4,4.7-0.9c0.2,1.4-0.4,3.2-1.2,4.1
			c-0.3,0.4-1.3,1-1.4,1.6c-0.1,0.6,0.5,1.6,0.7,2.1c1.2,3.2,2.6,6.1,5.1,8.6c0.2,0.2,0.6,0.8,1,0.8c0-0.1,0-0.1,0-0.1
			c0.3-0.3,1-1.4,1.4-1.4c0-0.1,0-0.2,0-0.3c-1.8-1.1-3.3-2.9-4.2-4.7c-0.1-0.1-0.1-0.3-0.3-0.3c0-0.1,0-0.2,0-0.3
			c0.2-0.1,0.5-0.3,0.8-0.3c0.4,0.1,0.8,0.3,1.2,0.4c1.1,0.2,2.3,0.3,3.3,0.7c0.6,0.2,1.1,0.5,1.7,0.7c0,0.1,0,0.1,0,0.2
			c0.1,0,0.1,0,0.2,0c-0.1-1.1-1.4-7,0.3-7.3c0.9-0.1,2.5,2.8,2.7,3.4c0.2,0.5,0.3,1.1,0.4,1.7c0,0.1,0.1,0.2,0.1,0.3
			c0.1,0,0.1,0,0.2,0c1.2-1.2,3.1-2,4.8-2c0.3-0.1,1-0.1,1.3-0.1c2.1,0.4-2,5-2.4,5c0,0.1,0,0.2,0,0.3c3.6,0.3,8.2,5.7,9.9,8.6
			c1.3,2.2,2.1,5,4,6.8c0.6,0.6,1.7,1.4,2.7,1.4c0.9,0,1.6-0.9,2.3-1.3c0.5-0.2,1-0.5,1.5-0.7c0,0,0,0,0-0.1
			c0.1-0.8-1.3-1.8-1.3-2.3c-2.8,0.8-6.4-2.2-7.9-4.4c-0.3-0.6-0.5-1.2-0.8-1.8c-0.2-0.4-0.7-0.9-0.7-1.4c0.4-0.3,0.9-0.4,1.5-0.4
			c0.7,0,4.4,1.3,4.4,1.8c0.1,0,0.2,0,0.3,0c-0.3-1.7,0.2-5.7,2-6.2c1.8-0.5,2.7,3.3,3,4.3c0.2,0.6,0.4,1.1,0.6,1.7
			c0.1,0,0.1,0,0.2,0c0-0.1,0-0.1,0-0.2c0.1,0,0.1,0,0.1,0c0.4-0.6,1.3-1.5,2-1.8c0.9-0.4,4.3-0.5,4.2,0.9c0,0.6-0.9,0.8-1.2,1.3
			c-0.9,1.6-1.3,3.2-2.6,4.5c-0.5,0.5-1,1-1.6,1.4c-0.4,0.3-1.1,0.6-1.4,1c-0.3,0.4,0.1,0.7,0.1,1.1c0.1,0,0.1,0,0.2,0
			c0.1-1.1,2.5-3.6,3.3-2.5c0.8,1.1,0.7,3,0.2,4.2c-0.2,0.4-0.8,1-0.8,1.6c0.4,0.2,2.7,2.2,2.7,2.4c0.1,0,0.2,0,0.3,0
			c-0.2-1.2-0.4-2.6,0.1-3.7c0.8-1.8,3.1-2.8,4.6-3.7c0.6-0.4,1.5-0.7,2-1.3c0.5-0.6,0.4-1.9,0.1-2.6c-0.1-0.1-0.1-0.3-0.3-0.3
			c0-0.2-0.1-0.2,0.2-0.2c0.9-1.2,3.4,1.1,2.8,2.5c-0.3,0.8-1.1,1.3-1.7,1.7c-1.2,0.8-2.8,1.6-3.5,2.9c-1,1.6,0,4.6,0.5,6.1
			c0.4,1.1,1.6,2.4,3,2.4c-1-2.4,0-4.6,0-7.1c0.3,0,0.7,0,0.9,0.3c0.6,0.7,0.7,1.8,1.1,2.6c0.8,1.5,1.6,3.1,2.4,4.6
			c0.3,0.6,0.3,1.5,0.6,2.1c0.1,0.2,0.5,0.5,0.7,0.5c0-0.1,0-0.1,0-0.2c0.1,0,0.2,0,0.3,0c0.2-0.7,0.4-1.5,0.5-2.2
			c0.7-1.5,1.5-3,2.2-4.4c0.4-0.9,0.7-1.7,1.1-2.6c0.1-0.2,0.3-0.6,0.6-0.6c0.7,0,1.2,4.1,1.1,4.7c-0.1,0.8-0.5,1.5-0.5,2.3
			c0.2,0,0.3,0.1,0.3-0.2c0.6-0.1,1.2-0.3,1.6-0.8c1.4-1.3,2.6-5.9,1.4-7.7c-1.1-1.8-7.6-3.9-4.4-6.7c0.2-0.2,0.5-0.3,0.7-0.5
			c0.4-0.2,1-0.3,1.2,0.2c0.1,0.2-0.1,0.6-0.2,0.8c-0.2,0.6-0.1,1.6,0.2,2.1c0.4,0.9,1.9,1.4,2.7,1.8c1.3,0.7,2.8,1.6,3.7,2.9
			c0.7,1.1,0.2,2.4,0.6,3.6c0,0,0,0.1,0,0.1c0.4,0.3,2.4-2.1,2.7-2.1c0-0.1,0-0.2,0-0.3c-1.3-1.1-1.6-3.2-0.9-4.7
			c0.1-0.3,0.3-0.7,0.6-0.9c0.7-0.4,3.1,1.7,3.1,2.6c0.1,0,0.1,0,0.2,0c0-0.1,0-0.1,0-0.2c0.1-0.1,0.2-0.5,0.5-0.5
			c0-0.2,0-0.3,0-0.5c-2.1-0.7-3.8-2.6-4.8-4.5c-0.4-0.8-0.8-1.6-1.2-2.5c-0.4-0.5-1.4-0.6-1.4-1.4c0.4-0.3,0.8-0.6,1.3-0.8
			c1.1-0.4,3-0.1,3.9,0.5c0.3,0.2,1.3,1.4,1.6,1.4c0,0.1,0,0.1,0,0.2c0.1,0,0.1,0,0.2,0c0.3-1.5,1.5-6,3.5-6
			c1.5,0.7,2.4,4.1,2.2,5.7c0,0.2-0.2,0.7,0.1,0.7c0-0.1,0-0.1,0-0.2c1.4-0.8,2.7-1.6,4.4-1.8c0.5,0,0.9,0.1,1.3,0.1
			c0.1,0.7-0.3,1.2-0.5,1.8c-0.9,2.6-2.2,3.8-4.5,5.2c-0.6,0.4-1.3,0.9-2,1c-0.8,0.2-1.5-0.1-2.2-0.1c0,0.1,0,0.1,0,0.2
			c-0.2,0.3-1.3,2.1-1.5,2.1c0,0.1,0,0.2,0,0.3c1.9,0.1,2.8,1.7,4.1,1.8c0.7,0,1.4-0.4,1.9-0.7c2.4-1.5,3.6-5.3,4.9-7.7
			c0.6-1.1,1.3-2.3,2.2-3.1c0.5-0.4,1-0.9,1.5-1.3c0.4-0.5,0.8-0.9,1.2-1.4c1.1-1.1,2.4-1.8,3.7-2.3c0.4-0.1,0.8-0.3,1.2-0.4
			c-0.4-0.5-0.9-0.9-1.3-1.4c-0.7-0.9-1.3-1.8-1.8-2.8c-0.1-0.1-0.3-0.6-0.1-0.6c0.9-1.1,4.6,0.2,5.5,0.7c0.3,0.2,1.2,1,1.4,1
			c0,0.1,0,0.1,0,0.2c0.1,0,0.1,0,0.2,0c0-0.7,0.2-1.5,0.4-2.1c0.2-0.6,2.1-4.1,3-3.6c1.6,0.9,0.4,5.4,0.2,6.8c0,0.1,0,0.2,0,0.3
			c1.2-0.4,2.4-1.2,3.9-1.2c0.2-0.1,2.3-0.6,2.4-0.6c0.2,0,0.4,0.1,0.5,0.3c0.4,0.8-3.4,5.2-4.4,5.2c0,0.1,0,0.1,0,0.2
			c0.1,0,0.1,0,0.2,0c0,0.1,0,0.1,0,0.2c0.2,0.2,1.2,1.4,1.4,1.4c0,0.1,0,0.1,0,0.1c0.2,0,0.2,0,0.2-0.1c3-2.2,4.5-5.7,5.7-9
			c0.2-0.6,0.9-1.8,0.8-2.5c-0.4-0.4-0.8-0.8-1.2-1.1c-1.1-1.2-1.7-3.6-1.2-5.3c1.1-3.5,4.6-0.5,4.6,1.6c0.1,0,0.1,0,0.2,0
			c0-0.1,0-0.1,0-0.2c0.5-0.6,3.3-5.6,3.8-5.6c0-0.1,0-0.2,0-0.3c-1.7-0.3-4.5-2-5.4-3.6c-0.1-0.1,0-0.1-0.2-0.1c0-0.1,0-0.2,0-0.3
			c1.5-1.1,3.4-1.3,5.3-0.9c0.2,0,0.8,0.1,0.8,0.3c0.1,0,0.1,0,0.2,0c-0.3-1.1-0.8-2.3-1-3.5c-0.2-0.9,0.4-5,1.4-5.1
			c1.2-0.1,3,4.5,3.6,4.5c0,0.1,0,0.1,0,0.2c0.1,0,0.1,0,0.2,0c0-0.1,0-0.1,0-0.2c0.5-0.6,2-2.6,2.9-2.6c0-0.2,0-0.2-0.2-0.2
			c-0.5-0.8-0.9-1.6-1.4-2.4c-0.6-1.1-1.1-2.1-1.7-3.2c-0.2-0.6-0.3-1.1-0.5-1.7c-0.3-0.7-0.8-1.2-0.8-2c0-0.4,0.1-0.9,0.3-1.2
			c0.1-0.2,0.5-0.3,0.5-0.5c0.2,0,0.3-0.1,0.3,0.2c1,0.5,1.6,1.8,2.3,2.7c2.1,2.4,3.4,4.3,4.8,7c0.3,0.6,0.9,1.4,0.9,2.1
			c0.2,0,0.2-0.1,0.2,0.2c0.1,0,0.1,0,0.2,0c0-2.3-0.1-4.6-0.1-6.8c0-0.2,0-0.1-0.2-0.1c-0.5-0.3-1-0.6-1.4-1.1
			c-0.8-0.9-1.6-3.7-1.6-5.1c0.7-0.3,1.7-0.2,1.6-1.2c-0.1-0.3-0.1-0.6-0.2-0.9c-0.1,0-0.1,0-0.2,0c-1.8,1.7-4.5,1.1-6.5,2.2
			c-0.1,0.1-0.6,0.5-0.6,0.2c-0.1,0-0.2,0-0.3,0c0-0.2-0.1-0.7,0.1-0.9c0.2-0.4,0.8-0.8,1.1-1.1c0.5-0.8,1-1.6,1.6-2.3
			c0.1,0,0.1,0,0.2,0c0-0.2,0-0.2-0.2-0.2c-1-0.8-2.2-1.2-3.2-1.9c-0.7-0.5-2.7-2.9-3.5-2.9c0-0.2-0.1-0.1,0.2-0.1
			c0.4-0.7,1.5-0.8,2.3-0.8c1.3-0.6,3.6,0.6,4.8,0.6c-1.2-3-2.1-6.3-1.6-9.9c0-0.4,0.7-1.5,0.7-1.1c1.1,0.7,5.4,6.1,5.4,7.2
			c0.1,0,0.1,0,0.2,0c0-0.1,0-0.1,0-0.2c0.5-0.7,3.3-5.8,4.5-4.8c1.4,1,0.7,5,0.3,6.4c-0.4,1.1-0.8,2.2-1.2,3.4
			c-0.2,0-0.2-0.1-0.2,0.2c1.3,0,2.7,0,3.8,0.3c0.4,0.1,1.4,0.7,1.5,0.7c-0.8,2.9-3.1,3.9-6.2,3.9c-0.6-0.1-1.3-0.2-1.9-0.3
			c0.1,0.6,0.8,3.6,1.4,3.6c0-0.1,0-0.1,0-0.2c0.6-0.8,2.3-2.7,3.5-2.2c0.7,0.3,0.6,1.7,0.5,2.3c0,0.3,0,0.5,0,0.8
			c0.1,0,0.1,0,0.2,0c0.9-1,1.9-2,2.8-3c0.3-0.7,0.2-1.9,0.2-2.8c0.3-6.5-1.9-12-5.5-16.8c-1.1-1.3-2.1-2.6-3.2-3.9
			c-0.5-0.9-0.9-1.9-1.2-2.9c-0.2-0.5-0.4-1-0.5-1.5c0.2-0.2,0.6-0.5,0.9-0.5c1,1,2,2,3,3c2.6,2.7,5.1,5.6,6.9,8.8
			c0.3,0.6,1,1.6,1,2.3c0.1,0,0.1,0,0.2,0c0.1-0.7,0.1-1.4,0.2-2.1c-0.1,0-0.2,0-0.3,0c-0.4,0-0.9-0.1-0.9-0.6
			c0.4-0.3,0.7-0.7,0.8-1.2c0.2-1.2-1.2-5.5-2-6.3c-0.4-0.2-0.9-0.4-1.3-0.6c-0.6-0.4-1.1-1-1.6-1.5c-1-1-2.1-1.4-0.2-2.6
			c0.4-0.3-0.4-1.6-0.7-1.6c0-0.1,0-0.1,0-0.2c-0.1,0-0.1,0-0.2,0c0,0.1,0,0.1,0,0.2c-0.1,0-0.1,0-0.2,0c-0.1,0.6-0.1,1.4-0.5,1.8
			c-0.8,0.7-4-2-4-3c-0.8,0.3-4.8,2.8-5.7,1.8c-0.4-0.4,0.8-4.5,1.2-4.5c0-0.1,0-0.2,0-0.3c-1.1-0.1-4.4-1.4-4.4-2.9
			c1-0.6,2-1.8,3.2-2c0.5-0.1,1.1,0.1,1.6,0.1c-0.3-0.6-0.7-1.2-1-1.9c-0.3-0.7-0.5-3.6,0.4-4c1.1-0.4,3.5,1.9,4.1,2.8
			c0.4,0.6,0.7,1.6,0.7,2.4c0.1,0,0.2,0,0.3,0c0.2-0.5,1.8-2.7,2.4-2.7c0-0.2,0-0.2-0.2-0.2c-0.6-1.2-2.1-2.1-3.1-2.9
			c-1.7-1.4-3.5-3.1-4.9-4.8c-0.3-0.4-0.8-0.8-0.8-1.4c0.2-0.1,0.6-0.2,0.9-0.1c0.8,0.5,1.7,1.1,2.5,1.6c2.2,1.2,4.6,2.1,6.5,3.8
			c1.4,1.3,2.7,2.8,3.8,4.3c0.2,0.3,0.8,0.8,0.8,1.1c0.1,0,0.1,0,0.2,0c-0.7-2.4-1.8-4.8-3.8-6.6c-1.1-0.8-2.1-1.7-3.2-2.5
			c-0.7-0.7-0.9-1.6-1.7-2.2c-2.2-1.7-4.5-3.2-6.5-5.2c-0.7-0.7-1.4-1.8-1.7-2.8c-0.2-0.7-0.2-1.6-0.7-2.2c-0.4-0.4-1.9-2-2.4-2.1
			c-1.1-0.2-3.4,1.5-4.1,0.8c-0.1-0.1-0.2-0.3-0.2-0.5c0.5-0.4,1.3-2.3,1.1-2.9c-0.2-0.7-2.1-1.1-2.4-2c-0.3-1.1,2.2-2.2,3.1-2.2
			c-0.2-0.5-1.2-2.8,0.1-2.9c0.4,0,0.9,0.1,1.3,0.1c-1-1-2.7-1.6-3.9-2.4c-1.2-0.7-2.2-1.7-3.3-2.5c-0.4-0.4-1.3-0.9-1.3-1.6
			c0.2-0.1,0.6-0.2,0.8-0.1c0.4,0.2,0.8,0.4,1.2,0.6c0.4,0.2,3.9,1.1,4.1,0.8c0-1.3-4.1-4-4.1-4.6c-0.2,0-0.2-0.1-0.2,0.2
			c-1.6,0.8-3,1.5-4.8,1.7c-0.2,0-0.6,0.2-0.6-0.1c-0.1,0-0.1,0-0.2,0c0-0.8,0.6-3.6,1.5-3.6c0-0.2,0-0.2-0.2-0.2
			c-0.2-0.5-2-3.9-0.9-4.2c0.9-0.2,2.3,1,3.1,1c0-0.1,0-0.1,0-0.2c0.3-0.5,1.1-2.9,1.9-2.5c1.1,0.6,1.7,3.7,1.5,5
			c-0.1,0.5-0.7,1.1-0.6,1.6c0.1,0.8,2.3,2.1,2.3,2.6c0.8-0.9-0.2-4.4,0.4-5c0.1-0.1,0.4-0.2,0.6-0.1c0.1,0,2.3,2.9,2.3,2.9
			c0.1,0,0.1,0,0.1,0c0-0.6-0.3-1.2-0.3-1.8c0.9-0.4,1.6,0.2,2.3,0.1c0.7-0.2,1-1.2,1.9-1.3c0.1,0,0.3,0,0.4,0
			c0.8,0.2,0.8,2.1,1.4,2.1c0-0.1,0-0.1,0-0.2c3.2-0.9,1.2,1.9,1.2,3.3c-0.8,0.4-1.6,0.9-2.6,1.1c0,0.1,0,0.1,0,0.2
			c-0.1,0-0.1,0-0.2,0c0,1.4,0.1,2.8,0.1,4.1c0,0.2-0.1,0.3,0.2,0.3c0-0.7,1-4.3,1.9-3.4c0.4,0.4,0.4,1.4,0.6,1.9
			c0.4,1.6,1.1,3,1.4,4.7c0.1,1.1-0.1,2.4-0.1,3.5c0.4,0.4,2.4,2.8,2.4,3.3c0.1,0,0.1,0,0.2,0c-0.4-3.1-0.6-6.4-1.4-9.3
			c-0.2-0.7-0.5-1.4-0.8-2.1c-0.2-0.4-0.7-1-0.7-1.5c0.3-0.1,0.8-0.2,1.1-0.1c0.4,0.2,0.7,0.7,1,1c1.3,1.5,2,3.1,2.8,4.8
			c0.2,0.4,0.4,0.8,0.6,1.2c0.4-0.1,2.9,0.1,2.9,0.5c0.1-0.5,0.2-1,0.2-1.5c0.2-0.9,0.6-1.7,1-2.5c0.1-0.3,0.3-0.7,0.6-0.9
			c1.1-0.6,3.1,3.1,3.1,3.9c0.1,0,0.2,0,0.3,0c0-0.1,0-0.1,0-0.2c0.8-0.4,3.2-1.4,3.9-0.1c0,0.1-1.2,2.7-1.3,2.9
			c-0.3,0.5-1,1.1-1,1.7c0.5,0.1,1,0.4,1.4,0.7c0.5,0.3,2.6,2.6,2.2,3.1c-0.8,1.1-3.7,0.7-5,0.7c0,0.9-0.1,1.7-0.4,2.3
			c-0.3,0.5-0.6,1.1-0.9,1.6c-0.5-0.3-2.1-2.6-2.1-3.2c-0.1,0-0.1,0-0.2,0c-0.3,3.4-1.4,7.3-0.6,10.8c0.2,1.1,0.7,2.2,1.1,3.1
			c0.5,1,1.6,2.3,1.6,3.5c0.1,0,0.1,0,0.2,0c0.6-4.7,1.3-9.4,2.5-13.7c0.3-1,0.3-2.3,0.7-3.3c0.2-0.4,0.6-0.8,1.1-0.6
			c0.6,0.2,1.2,3.4,1.2,4.2c0,0.6-0.1,1.3-0.2,1.8c-0.2,1-0.5,2.1-0.7,3.1c-1.2,4-2.8,7.8-2.8,12.5c0,2.4,1.5,4.4,1.5,6.8
			c0.2,0,0.2,0,0.2-0.2c0.1,0,0.1,0,0.2,0c0.2-1.6,1-3.1,1.5-4.5c0.2-0.6,0.7-1.2,0.7-1.8c0-0.7-0.6-1.5-0.8-2.1
			c-0.6-1.5-0.9-3.8-0.6-5.7c0.1-0.9,0.5-1.9,0.9-2.7c0.4-0.5,0.8-1,1.3-1.6c2.1,0.9,2.7,3,2.8,5.3c0,0,0,0.1,0,0.1
			c1.5-0.7,3-2.4,5-1.7c0.4,0.2,0.9,0.4,1.1,0.8c0.8,1.7-2.3,5-3.5,6c-0.2,0.2-0.6,0.6-0.9,0.6c0,0.1,0,0.2,0,0.3
			c1,0.1,2.1,0.3,3,0.7c1.1,0.5,3,2.7,2.4,4c-0.3,0.6-3.8,0.2-4.4,0.1c-0.6-0.2-1.1-0.4-1.7-0.5c-0.4,0.4-0.8,0.8-1.2,1.2
			c-1.7,2.7-2.4,6.1-3.2,9.3c-0.4,1.6-1,3.3-1,5.1c0,0.2,0,0.7,0.2,0.8c0.2,0,1-1.7,1.1-2c1-1.9,2.2-3.9,3.7-5.5
			c1.9-2.2,4.4-3.7,5.3-6.5c0.1-0.3,0.4-0.8,0.8-0.7c0.5,0.1,0.4,1,0.4,1.4c-0.1,0.9-0.3,1.8-0.6,2.5c-1.3,2.9-3.5,5.5-5.3,8.1
			c-0.1,0.2-0.3,0.6-0.5,0.6c0,0.2-0.1,0.3,0.2,0.3c0.2,0.3,1.3,2.4,1.5,2.4c0,0.1,0,0.1,0,0.2c0.1,0,0.1,0,0.2,0c0-0.1,0-0.1,0-0.2
			c2-1.6,5.3-5.2,5.9,0c0.1,0.8-0.1,1.7-0.3,2.4c-0.2,0.4-0.3,0.8-0.5,1.2c1,0.3,3.6,1.6,3.1,2.9c-0.4,0.9-3,1.5-4,1.5
			c0,0.2-0.1,0.3,0.2,0.3c0.3,0.6,0.6,1.1,1,1.7c0.3,0.7,0.9,4.2-0.5,4.2c-0.5-0.6-1.3-0.7-1.9-1.1c-0.7-0.4-2.6-2-2.6-3
			c-0.1,0-0.1,0-0.2,0c0,0.1,0,0.1,0,0.2c-0.7,1.1-1.5,4.1-3.3,4c-0.3,0-1.2-0.2-1.2-0.5c-0.1-0.4-0.3-0.8-0.5-1.2
			c-0.1,0-0.1,0-0.2,0c-0.8,2.2-2,4.2-2.7,6.5c-0.2,0.7-0.4,1.3-0.6,2c0.1,0,0.2,0,0.3,0c0-0.1,0-0.1,0-0.2c1.3-0.5,2.6-1.2,4.1-1.2
			c0.4-0.1,0.9-0.2,1.3-0.3c0.8-0.7,1.7-1.3,2.5-2c1.5-1,3.7-2,5.4-2.6c0.2-0.1,0.9-0.2,0.9-0.5c0.3,0.2,0.7,0.6,0.5,1
			c-1.5,1.6-2.9,3.3-4.4,4.9c-0.2,0.2-1,0.4-1,0.7c-0.1,0-0.1,0-0.2,0c0.3,0.4,0.6,0.8,1,1.3c1.1,1.7,1.6,3.8,1.1,6
			c-0.5,1.9-1.5,3.3-3.2,4.2c-0.1,0.1-0.6,0.4-0.6,0.2c-0.2-0.2-0.4-0.4-0.4-0.7c0.4-1.2,0.8-2.3,1.2-3.5c0.2-0.7,0.3-1.6,0.5-2.4
			c0.2-0.8,1.1-2.3,0-2.9c-0.2-0.1-1.1-0.5-1.1-0.3c-0.8,0.4-1.6,1.6-2.2,2.3c-3.3,3.7-5.3,8.1-8.5,11.8c-0.1,0.1-0.2,0.3-0.4,0.3
			c0,0.1,0,0.1,0,0.2c0.1,0,0.1,0,0.2,0c0,0.1,0,0.1,0,0.2c0.5,0.1,0.9,0.1,1.4,0.2c1-2.4,5.2-3.9,7.7-4.1c0.5-0.1,0.9,0.1,1.3,0.1
			c0,0.2,0,0.4-0.1,0.6c-0.2,0.2-0.5,0.4-0.7,0.6c-0.3,0.5-1.3,3.4-2,3.4c0,0.1,0,0.1,0,0.2c2.5,0.6,4.5,2,5.6,4.3
			c0.2,0.4,0.4,1,0.1,1.4c-1,1.3-3.8,0.8-5.1,0.4c-0.6-0.2-1.2-0.4-1.8-0.6c0.1,1.1,0.2,4.5-0.9,4.9c-0.5,0.2-0.9-0.3-1.2-0.5
			c-2.2-1.6-3-3.1-3-5.9c-0.1,0-0.1,0-0.1,0c0,0.1,0,0.1,0,0.2c-1.8,2.5-3.6,5.1-5.5,7.6c-1,1.2-2.2,2.1-3.3,3.1
			c-0.7,0.6-1.4,1.4-2.2,1.9c-0.7,0.4-1.5,0.9-2.2,1.3c-0.2,0.2-1.2,2.1-0.8,2.1c0-0.1,0-0.1,0-0.1c1.2-0.9,2.4-1.7,3.7-2.6
			c0.8-0.5,1.6-0.9,2.4-1.4c2.4-1.5,7.8-6,10.8-3.6c1.7,1.4,2.6,2.8,2.8,5c0.1,0.6,0.3,1.3,0.1,2c-0.6,3.2-4,5.2-6.2,7.3
			c-0.6,0.5-1.8,2.7-2.3,2.7c-0.4-0.5-0.8-0.9-1.1-1.5c-1.4-3.3,2.5-5.2,4.5-6.5c0.7-0.6,1.4-1.2,2.1-1.8c0.5-0.4,1.7-1.2,1.3-2
			c-0.9-1.8-4.4-0.9-5.7-0.3c-1.5,0.6-3.1,1.7-4.5,2.6c-1.3,0.9-2.7,1.7-4.1,2.6c-1.7,1.2-3.3,2.4-5,3.5c-0.6,0.4-2.2,1.8-2.9,1.8
			c0,0.1,0,0.2,0,0.3c0.8,0.1,4.1,1.1,4.1,1.8c0.1,0,0.2,0,0.3,0c0.1-0.6,0.3-1.2,0.4-1.8c0.3-0.8,1.9-3.3,3-3
			c0.9,0.3,1.8,2.5,1.8,3.4c-0.1,0.5-0.1,1.1-0.2,1.7c1.7,0,6.1,0.7,7.1,1.6c1.1,1.1-2.4,3.6-3.3,3.6c0,0.1,0,0.2,0,0.3
			c0.6,0.3,1.3,1,1.6,1.6c0.3,0.6,0.9,3.7,0,4c-1.3,0.5-3.9-0.5-5-1c-0.3-0.2-1.4-0.9-1.7-0.9c0-0.2,0-0.2-0.2-0.2
			c0.1,0.7,0.1,1.4,0.2,2.1c0,1.3-0.7,4-2.3,3.9c-1.4-0.1-2.3-4-2.4-5.3c0-0.5,0.1-1,0.1-1.5c-0.1,0-0.1,0-0.2,0
			c-2.9,2.2-8.6,1.5-11.5-0.2c-0.2-0.2-2.3-1.7-2.3-1.7c-1.7,0.5-3.5,1-5.2,1.6c-2.4,0.8-4.7,1.7-7.1,2.5c0,0.1,0,0.1,0,0.2
			c3.9,0,7.6,0.3,11.6,0.3c0.5-0.3,2.3-1.3,2.6-0.4c0.1,0.2-0.1,0.4-0.2,0.5c-1,1.1-3,1.6-4.3,2c-2.2,0.7-4.6,1.9-7.2,1.9
			c0,0.1,0,0.1,0,0.1c3,0.8,5.9,1.5,8.9,2.3c0.8-2.6,4.3-5.3,7.1-5.3c0.6-0.2,3.1-0.5,3.1,0.6c0,0.8-2.9,4.7-3.8,4.7
			c0,0.2-0.1,0.2,0.2,0.2c0.9,0.5,1.8,0.9,2.7,1.4c0.9,0.5,4.2,3.4,3.6,4.6c-0.2,0.4-0.9,0.5-1.3,0.6c-1.8,0.3-3.8-0.1-5.3-0.7
			c-0.6-0.2-1.4-0.9-2.1-0.9c0.1,1.2,0.1,7.1-1.5,7c-1.2-0.1-3.6-4.2-4-5.2c-0.2-0.6-0.4-1.4-0.4-2.2c0-0.7,0.1-1.4,0.3-1.9
			c0.2-0.5,0.4-0.9,0.6-1.4c0.2,0,0.2,0,0.2-0.2c-0.1,0-0.2,0-0.3,0c-1.1-0.6-2.6-0.8-3.9-1.1c-2.6-0.7-5.4-1.4-8.3-1.8
			c-2.9-0.1-5.8-0.2-8.7-0.4c0,0.1,0,0.1,0,0.2c3.7,0.6,7.4,2,10.5,3.8c1.5,0.9,3,1.9,4.5,2.8c0.6,0.3,3.1,0.8,3.3,1.2
			c0.1,0.1,0.1,0.5,0.1,0.6c-1.4,2.9-12-2.1-13.9-2.9c-0.9-0.4-1.8-0.7-2.7-1.1c0,0.5-0.2,2.4,0,2.7c0-0.1,0-0.1,0-0.2
			c1.1-0.5,4.6-1,5.1,0.6c0.5,1.9-3.2,3.3-4.7,3.3c0,0.1,0,0.1,0,0.2c1.4,0.7,2.9,4.4,1,5.2c-1,0.4-1.8-0.5-2.7-0.5
			c-0.3,1-0.8,2.4-2,2.8c-1.2,0.4-2-2-2-3c0-0.3,0-1.5,0.2-1.5c0-0.1,0-0.1,0-0.2c-2.1,0.5-3.7,1.3-6.2,0.4
			c-0.3-0.1-0.8-0.3-0.9-0.8c-0.2-1.6,4.2-4.2,4.2-4.3c-0.1,0-0.1,0-0.2,0c-0.6-0.5-3.7-2.1-4.5-2.1c0,0.2,0.2,0.6,0,0.6
			c0,0.1,0,0.2,0,0.3c3.5,0.7-5.4,4.4-6.2,4.6c-1.6,0.4-3.8,0.2-5.3-0.4c-0.6-0.2-1-0.7-1.7-0.9c-1.7-0.5-3.7-0.7-5.7-0.8
			c-0.3,0-1.5-0.2-1.5,0.2c-0.1,0-0.1,0-0.2,0c0,0.2-0.1,0.2,0.2,0.2c0,0.1,0,0.1,0,0.2c1.9,1.1,3.7,2.7,5.5,4
			c1.2,0.9,2.7,1.7,3.6,2.8c0.3,0.3,0.4,0.7,0.1,1.1c-0.5,0.5-1.3,0.9-2,0.6c-0.9-0.4-1.7-1.7-2.4-2.4c-1.5-1.6-3.2-2.9-5-4
			c-0.5-0.3-1.2-0.9-1.9-1c-1.6-0.2-6.2,4-7.5,5.3c-0.6,0.6-1.1,1.7-1.9,2.1c-0.8,0.4-2.5-0.1-2.5-1.2c2.7-2.2,5.4-4.4,8.3-6.3
			c0.4-0.2,1.1-1,1.5-1c0-0.1,0-0.2,0-0.3c-0.1,0-0.2,0-0.3,0c-1.2-0.4-6.2,0.6-7.4,0.9c-0.5,0.3-1,0.5-1.5,0.8
			c-4,1.3-6.8-0.1-10-1.9c-0.6-0.4-2.3-1.1-2.3-2c0.4-0.3,1.1-0.6,1.1-1.2c-1.1,0.3-2.4,0.9-3.4,1.4c-0.3,0.2-0.9,0.7-1.2,0.7
			c0,0.1,0,0.2,0,0.3c1,0.2,5.1,3.2,4,4.4c-1,1.1-4,0.9-5.4,0.5c-0.5-0.2-1-0.4-1.5-0.5c0.3,1.5,0.2,3.8-1.2,4.6
			c-1,0.5-2.5-2-2.5-2.8c-0.1,0-0.1,0-0.2,0c-1.7,1-3.7,0.8-3.4-1.8c0.1-0.7,0.4-1.4,0.8-1.9c0.2-0.2,0.8-0.7,0.8-1
			c0.1,0,0.1,0,0.2,0c0-0.1,0-0.1,0-0.2c-0.1,0-0.2,0-0.3,0c-1-0.5-5.1-1.3-4.2-3.4c0.5-1.2,2.9-1.2,4-0.9c0.5,0.2,0.9,0.3,1.4,0.5
			c-0.2-0.8-0.3-1.7-0.3-2.7c-0.1,0-0.2,0-0.3,0c-1.3,0.6-2.5,1.1-3.8,1.7c-2.8,1.2-7.2,3.3-10.5,3.3c-0.9,0-2.3-0.4-2.3-1.5
			c0.4-0.3,0.8-0.5,1.4-0.5c0.9-0.5,2-0.7,2.9-1.2c2-1,3.8-2.4,5.7-3.4c1.7-0.9,3.6-1.4,5.4-2c1.1-0.3,2.1-0.6,3.2-0.8
			c0-0.1,0-0.1,0-0.2c-4.3,0-8.9,0.2-12.8,1.1c-2.8,0.7-5.5,1.5-8.3,2.2c0,0.2-0.1,0.3,0.2,0.3c0.3,1,0.9,2.1,0.8,3.3
			c0,2.4-1.4,4.3-2.8,6c-0.3,0.4-0.7,1-1.1,1.2c-0.3,0.2-0.7,0.2-1.1,0.2c-0.7-2.1-0.9-4.5-0.9-7.1c-0.2,0-0.3-0.1-0.3,0.2
			c-2,0.9-4.3,2-6.9,1.5c-0.5-0.1-1.2-0.2-1.4-0.7c-0.7-1.5,5.2-5.8,6.5-5.8c0-0.1,0-0.1,0-0.2c-0.1,0-0.1,0-0.2,0
			c-0.4-0.3-0.8-0.7-1.3-1c-0.9-0.9-1.6-1.9-2.2-3c-0.2-0.3-0.5-0.6-0.5-1c2.3-1.4,6.8,0.4,8.4,2.1c0.5,0.5,1.7,2.5,2.2,2.7
			c0.7,0.2,1.7-0.3,2.3-0.4c2.1-0.5,4.2-1.1,6.3-1.6c0-0.1,0-0.1,0-0.1c-3.4-0.2-6.8-1.6-9.7-2.8c-0.5-0.3-1-0.5-1.5-0.8
			c-0.2-0.2-0.6-0.8-0.8-0.8c0-0.2-0.1-0.2,0.1-0.2c0.1-0.1,0.4-0.4,0.6-0.4c0.8,0.1,1.4,0.6,2.3,0.8c1.9,0,3.7,0,5.6,0.1
			c0.6-0.3,1.9-0.2,2.7-0.2c0.4-0.2,2.2,0,2.4-0.4c0-0.2-1.9-0.9-2.3-1c-2.5-0.9-5-1.7-7.6-2.5c-0.4-0.1-1.3-0.4-1.8-0.3
			c-0.3,0.2-0.7,0.5-1,0.7c-0.5,0.3-1.1,0.7-1.6,1c-1.7,0.9-3.8,1.3-5.9,1.5c-1,0.1-3.2-0.4-4-0.7c-0.5-0.2-0.9-0.5-1.4-0.7
			c0,0.5,0.1,0.9,0.1,1.3c-0.1,1.2-1.1,5.5-2.5,5.4c-1.5-0.1-2.1-2.5-2.2-3.8c0.1-0.7,0.2-1.5,0.2-2.2c-0.2,0-0.3-0.1-0.3,0.2
			c-1.7,1.1-3.3,1.8-5.4,2c-0.5,0-1-0.1-1.5-0.1c-0.3-1.2-0.2-3.3,0.4-4.2c0.2-0.3,1.4-1.4,1.4-1.5c0.2,0,0.2,0,0.2-0.2
			c-1.3-0.4-3.8-1.8-3.8-3.5c1.5-1,4.1-1.7,6-1.7c0.4-0.1,0.8-0.3,1.2-0.4c0-0.6,0-1.1,0.1-1.7c0.1-0.8,1-2.8,1.8-3.1
			c1.5-0.5,3.4,3.6,3.4,4.7c0.1,0,0.1,0,0.2,0c0-0.1,0-0.1,0-0.1c1.2-0.8,2.6-1.1,3.9-1.7c0.2-0.1,0.2,0,0.2-0.2
			c-2.3-1.5-4.4-3.1-6.7-4.6c-1.5-1-3.1-2-4.6-3c-1.7-1.1-3.5-2.2-5.3-3c-1.4-0.6-4-1.1-5.3,0.2c-0.2,0.2-0.3,0.5-0.2,0.7
			c0.1,0.5,0.6,1,1,1.2c0.8,0.7,1.6,1.3,2.4,2c2.1,1.6,6.1,3.3,4.4,6.9c-0.2,0.5-0.8,1.3-1.4,1.3c-0.4-0.7-0.8-1.6-1.4-2.2
			c-2.1-2.2-6-4.3-6.6-7.6c-0.1-0.7,0-1.6,0.1-2.2c0.1-1,0.3-1.8,0.8-2.6c0.7-1,1.9-2.6,3.1-2.9c3.2-0.9,6.8,2.2,9,3.7
			c1.4,0.9,2.9,1.7,4.3,2.6c0.8,0.6,1.7,1.2,2.5,1.8c0,0.1,0,0.1,0,0.1c0.1,0,0.1,0,0.2,0c-0.1-0.6-0.3-1.5-0.8-2
			c-0.8-0.5-1.6-1-2.4-1.5c-0.6-0.4-1.1-0.9-1.6-1.4c-0.9-0.8-1.8-1.6-2.7-2.4c-1.8-1.8-3.5-4.5-4.9-6.6c-0.3-0.4-1.6-2-1.6-2.4
			c-0.1,0-0.1,0-0.2,0c-0.1,2.6-0.8,4.4-2.8,5.8c-0.3,0.2-0.6,0.4-0.9,0.6c-0.4,0.1-0.7-0.1-1.1-0.1c-0.1-1.1-0.3-2.2-0.4-3.3
			c0-0.5,0.1-1.1,0.1-1.6c-0.1,0-0.1,0-0.2,0c-1.1,0.7-6.3,2.1-7,0.2c-0.4-1,1.7-3.6,2.5-4.2c0.7-0.5,2.6-1.4,3.4-1.4
			c0-0.2,0-0.2-0.1-0.2c0-0.1,0-0.1,0-0.2c-1-0.9-1.2-2.1-1.9-3.1c-0.1-0.2-0.7-0.3-0.7-0.6c-0.1-0.2-0.1-0.4-0.2-0.6
			c2.2-0.9,6,1,7.7,2.1c0.5,0.5,1.1,1.1,1.6,1.6c0.3,0.1,0.9,0.1,1.3,0.1c-0.4-1.1-2-2.7-2.8-3.8c-2.1-3-3.8-6.2-6.3-9
			c-0.5-0.6-1.1-1.4-1.8-1.8c-0.6-0.3-1.3,0.3-1.9,0.3c0,1.2,0.5,2,0.7,3c0.2,1.2,0.5,2.3,0.9,3.4c0.2,0.7,0.5,1.3,0.7,2
			c0.1,0.4,0,0.7-0.5,0.8c-0.4,0.1-1-0.3-1.2-0.5c-1.9-1.4-3.1-3.9-2.8-6.5c0.1-1.3,0.7-2.5,1.5-3.5c0.2-0.2,0.6-0.9,0.9-0.9
			c0-0.1,0-0.2,0-0.3c-0.4-0.1-0.8-0.3-1.1-0.6c-0.6-0.5-4.6-4.9-4.6-5.4c0.2-0.1,0.5-0.2,0.5-0.5c2.1,0.9,4.4,1.8,6.3,2.9
			c0.9,0.7,1.8,1.5,2.7,2.2c0.7,0.4,2.6,0.5,3.4,0.8c0.7,0.3,1.4,0.6,2.1,0.9c0,0.1,0,0.1,0,0.2c0.1,0,0.1,0,0.2,0
			c-0.4-2.3-1.5-4.5-2.4-6.6c-0.3-0.6-0.6-1.2-0.9-1.8c-0.1,0-0.2,0-0.3,0c-1,2.7-2.8,1.3-3.8-0.4c-0.3-0.5-0.8-1.2-0.8-1.8
			c-0.2,0-0.2,0-0.2-0.2c-0.2,0-0.2-0.1-0.2,0.2c-0.2,0.3-0.4,0.7-0.7,1c-0.9,1.2-2,1.7-3.2,2.2c-0.3,0.1-0.9,0.6-1.2,0.2
			c-0.5-0.5-0.3-2.9-0.1-3.6c0.2-0.5,0.5-1,0.8-1.4c0.1-0.2,0.3-0.6,0.5-0.6c0-0.1,0-0.2,0-0.3c-1.1-0.1-4.1-0.5-4.2-1.8
			c-0.1-1,1.6-1.9,2.4-2.2c0.1-0.1,1.1-0.6,0.8-0.6c-0.3-0.7-0.6-1.4-0.7-2.3c-0.2-1.1,0.4-3.7,1.7-3.8c1.1-0.1,2.4,1.1,3.1,1.7
			c0.3,0.2,0.8,1,1.1,1c0,0.1,0,0.1,0,0.2c0.1,0,0.1,0,0.2,0c0.3-0.8,1.3-1.6,1.3-2.6c0.1-0.9-2.6-4.3-3.2-5.2
			c-0.8-1.1-1.6-2.4-2.3-3.6c-0.7-1.3-0.7-2.8-0.7-4.3c0.5,0,0.8,0.1,1,0.5c0.1,0.4,0.3,0.9,0.4,1.3c0.3,0.6,0.6,1.1,1,1.6
			C7.1,94,8.5,95,9.5,96c1.9,2,3.4,4.3,4.6,6.7c0.3,0.6,0.9,1.4,0.9,2.1c0.1,0,0.1,0,0.2,0c-0.1-3.2-0.9-5.8-1.6-8.6
			c-0.6-2.4-1.4-6.5-3.4-8.1c-0.2-0.2-0.4-0.3-0.7-0.3C9,88,8.5,88.1,8.1,88.3c-0.6,0.1-4.1,0.6-4.4-0.1C3,87,4.8,84.9,5.7,84.4
			C6.5,83.9,8,83.5,9,83.5c0-0.1,0-0.1,0-0.2c-1.3-0.9-5.7-5-4.4-6.8c1.2-1.7,3.9-0.4,5.1,0.4c0.2,0.1,0.6,0.3,0.6,0.6
			c0.3-0.4,0.3-1.1,0.4-1.6c0.2-1.3,1-2.5,2-3.3c0.1-0.1,0.5-0.2,0.5-0.4c2.8,1.4,2.8,6.7,2,9.3c-0.2,0.7-1.1,2-1.1,2.7
			c0,0.5,0.4,1.2,0.6,1.6c0.6,1.2,1.7,3.4,1.7,4.8c0.1,0,0.2,0,0.3,0c0.1-2.4,1.3-4.4,1.3-6.9c0.1-5.5-2.3-10.4-3.4-15.3
			c-0.1-0.5-0.2-1.1-0.2-1.6c0-0.8,0.7-4.5,1.4-4.5c0.3,0.1,0.6,0.3,0.8,0.6c0.5,1,0.5,2.2,0.8,3.2c0.5,1.8,1,3.5,1.4,5.3
			c0.2,1.6,0.5,3.2,0.7,4.8c0.2,1.3,0.4,2.5,0.6,3.8c0.1,0,0.1,0,0.2,0c0.1-0.3,0.2-0.7,0.3-1c0.7-1.8,1.8-3.5,2.3-5.5
			c0.8-3.1,0-6.7-0.4-9.8c0-0.2-0.1-1.2-0.3-1.2c0-0.1,0-0.1,0-0.2c-0.1,0-0.1,0-0.2,0c-0.2,1-0.9,2.6-1.7,3.2
			c-0.1,0.1-0.2,0.2-0.2,0c-0.1,0-0.2,0-0.3,0c-0.4-1.1-1-2-1-3.3c0-0.2,0.1-0.3-0.2-0.3c0-0.1,0-0.1,0-0.2
			c-0.7,0.1-1.7,0.2-2.5,0.1c-0.8-0.2-1.6-0.4-2.4-0.5c-0.1-0.2-0.1-0.5-0.2-0.8c1.2-1.1,2-2.5,3.5-3.2c0.2-0.1,0.4-0.1,0.4-0.4
			c-0.5-0.5-2.3-4.2-2.6-4.2c0-0.2-0.1-0.2,0.1-0.2c0.7-0.9,2.4-0.6,3.3-0.2c0.4,0.2,0.7,0.4,1.1,0.7c0-0.1,0-0.2,0-0.3
			c0.4-0.9,1.7-4.1,2.9-4.1c1.1,1.6,1.8,3,1.8,5.1c0.1,0,0.2,0,0.3,0c0-0.1,0-0.1,0-0.1c0.5-0.1,1.2-0.3,1.8-0.3
			c0.3-0.1,0.8,0,1.1,0c0.3-0.9,3.8-8.3,5.2-6.9c0.3,0.3,0,0.9-0.2,1.2c-1.1,2-1.3,4.3-1.7,6.6c-0.2,1.3-0.4,2.6-0.6,3.9
			c0,0.2,0,1.2,0,0.9c0.3-0.4,2.2-3,2.4-3c-0.6-1.9-0.2-4.5,0.5-6.2c0.5-1.1,1.1-2.7,1.1-4c0.2,0,0.6,0,0.8,0.1
			c0.5,0.4,1.3,2.7,1.3,3.3c0.1,0,0.1,0,0.2,0c0-1.1,0.5-2.9,0-4c-0.3-0.7-1.7-0.8-2.2-1.3c-0.3-0.4-1.5-3.2-0.6-3.6
			c0.7-0.2,1.2,0.3,1.7,0.3c0-0.1,0-0.1,0-0.2c0.3-0.5,0.4-1.6,1-1.9c1.1-0.5,1.5,0.9,2.3,1.2c0.4,0.1,1-0.2,1.4-0.2
			c0.2,0,0.3,0.1,0.5,0.1c0.3,0.2,0.2,0.9,0.2,1.2c0,0.2,0,0.4,0,0.6c0.6-0.6,1.2-1.3,1.8-1.9c0.2-0.3,0.4-0.6,0.6-0.9
			c0.2-0.1,0.5-0.1,0.6,0.1c0.4,0.6-0.2,4.5,0.4,4.6c0.7,0.2,2-2.2,2.6-2.2c0-0.1,0-0.2,0-0.3C44.7,39.5,46.4,35.6,47.3,34.2
			L47.3,34.2z M158.6,36c-0.2,0.4-0.5,1.3-0.4,1.7c0.1,0.5,0.8,0.9,0.8,1.4c0.1,0,0.1,0,0.2,0C159.2,38,159.1,36.9,158.6,36
			L158.6,36z M47.5,36.2c-0.1,0.2-0.6,2.3-0.2,2.4c0.5,0.1,0.7-1.1,0.7-1.4C47.9,36.8,47.8,36.5,47.5,36.2L47.5,36.2z M51.1,37.5
			c-0.5,0.3-3.8,1.7-2.7,2.8C49.5,41.4,51.5,38.4,51.1,37.5L51.1,37.5z M154.8,37.5c0.2,0.9,1.8,4.1,3,2.7
			C158.9,39.1,155.5,37.7,154.8,37.5L154.8,37.5z M36.8,39.6c-0.2,0.6-0.9,3.3,0.5,3.3C37.6,41.8,37.8,40.4,36.8,39.6L36.8,39.6z
			 M169.1,39.6c-0.2,0.4-0.3,0.8-0.5,1.2c-0.1,0.6,0,2.1,0.8,2.1C169.9,41.9,170,40.4,169.1,39.6L169.1,39.6z M39.2,40.8
			c-0.1,0.2-0.8,2-0.5,2c0-0.1,0-0.1,0-0.2c0.1,0,0.1,0,0.2,0C39.1,42.1,39.4,41.4,39.2,40.8L39.2,40.8z M166.7,40.8
			c0.1,0.5,0.2,0.9,0.4,1.3c0.1,0.2,0.4,0.4,0.4,0.7c0.1,0,0.1,0,0.2,0c0-0.1,0-0.1,0-0.2C167.2,42,167.3,41.3,166.7,40.8
			L166.7,40.8z M42.5,41c-0.4,0.6-0.9,1.3-1.2,1.9c-0.3,1.3-0.6,2.5-1,3.8c0,0.1-0.3,0.6,0,0.6c0-0.1,0-0.1,0-0.2c0.1,0,0.1,0,0.2,0
			c0.5-0.6,1.1-1.1,1.6-1.7C42.7,44.5,42.9,42.2,42.5,41L42.5,41z M163.6,41.1c0,1.4-0.1,3,0.4,4.1c0.2,0.5,1.8,1.7,1.8,2
			c0.1,0,0.1,0,0.2,0C165.5,45.3,165.2,42.1,163.6,41.1L163.6,41.1z M155.4,41.3c-0.3,0.4-0.9,1-0.9,1.5c0.9-0.1,1.8-0.8,2.6-0.8
			c0-0.1,0-0.1,0-0.2C156.6,41.7,156,41.5,155.4,41.3L155.4,41.3z M34.3,41.4c0.2,0.3,0.8,1.5,1.2,1.5
			C35.2,42.3,34.9,41.8,34.3,41.4L34.3,41.4z M171.7,41.4c-0.2,0.1-1.2,1.5-0.5,1.5c0.1-0.3,0.4-1.4,0.8-1.4
			C171.9,41.5,171.8,41.5,171.7,41.4L171.7,41.4z M49.9,41.6c-0.2,0.1-0.5,0.3-0.8,0.3c0,0.1,0,0.1,0,0.2c0.1,0,0.1,0,0.2,0
			c0.6,0.4,1.5,0.8,2.3,0.8C51.3,41.8,50.9,41.6,49.9,41.6L49.9,41.6z M166.3,43.2c0.2,1.7,0.7,3.4,1.4,4.8c0.4,0.7,0.8,1.4,1.2,2.1
			c0.1,0,0.1,0,0.2,0c-0.2-0.9-0.4-2.1-0.4-3.2c0-0.8,0.1-1.5,0.1-2.3c-0.1,0-0.2,0-0.3,0C167.6,44.3,167,43.9,166.3,43.2
			L166.3,43.2z M39.7,43.4c-0.1,0.1-0.2,0.2-0.3,0.3c-0.4,0.4-1.4,0.8-1.6,1.2c-0.3,0.5-0.1,1.8-0.1,2.4c-0.1,0.6-0.1,1.2-0.2,1.8
			c0,0.2-0.2,0.9,0.1,0.9c0.3-0.6,0.6-1.2,1-1.8C39,47.1,39.9,44.6,39.7,43.4L39.7,43.4z M44.8,47.7c-1,0.3-2,0.5-3,0.8
			c-0.7,0.3-5.3,3.6-5.3,4.3c0.2,0,0.2,0,0.2-0.2c0.1,0,0.1,0,0.2,0c0.9-0.8,8.3-4.6,8.3-5C45,47.7,44.9,47.7,44.8,47.7L44.8,47.7z
			 M161.2,47.7c1.4,1.4,4.2,2.5,6,3.5c0.8,0.5,1.6,1,2.5,1.4c-1-1.4-3.7-3.7-5.3-4.3C163.2,48.2,162.2,48,161.2,47.7L161.2,47.7z
			 M34.7,48.3c-0.4,1.5-1.1,2.8-1.3,4.4c0,0.2,0,0.4,0,0.4c0.1,0.1,0,0.3,0.2,0.3c0.3,0,1.3-3.1,1.3-3.7
			C35,49.2,34.9,48.7,34.7,48.3L34.7,48.3z M171.4,48.3c-0.4,1.3,0.2,3,0.6,4.1c0.2,0.5,0.4,0.9,0.6,1.4c0.1,0,0.1,0,0.2,0
			C172.7,51.8,172.3,49.9,171.4,48.3L171.4,48.3z M184.2,50.1c-0.3,0.6-0.6,1.3-0.8,2c-0.2,1,0.1,3,1.4,2.8c0.4-0.1,0.5-0.3,0.6-0.6
			C186,52.7,185.2,51.3,184.2,50.1L184.2,50.1z M21.8,50.3c-0.6,1.3-1.4,2.3-1,3.9c0.1,0.4,0.2,0.7,0.7,0.8
			C23.6,55.1,22.9,51.1,21.8,50.3L21.8,50.3z M29.7,50.3c-0.3,0.8-1.4,2.3-1.4,3c-0.1,0.3,0.5,0.9,0.3,1.4c-0.4,1.3-2.2,2.1-2,3.8
			c0.1,0.8,1.4,1.4,1.4,2.3c0.1,0,0.2,0,0.3,0c0.4-2.5,0.7-4.9,1.1-7.4C29.6,52.5,30,51.2,29.7,50.3L29.7,50.3z M176.3,50.4
			c0.4,2.6,0.7,5.2,1.1,7.8c0.1,0.9,0.3,1.7,0.4,2.6c0.1,0,0.2,0,0.3,0c0.3-0.8,1.3-1.5,1.4-2.4c0.1-1.6-1.4-2.4-1.9-3.6
			c-0.2-0.5,0.1-1,0.1-1.5C177.7,52.6,176.8,51,176.3,50.4L176.3,50.4z M165.8,51.9c0.2,0.1,0.3,0.1,0.3,0.3c0.1,0,0.1,0,0.2,0
			c0-0.1,0-0.1,0-0.2C166.1,52,166,52,165.8,51.9L165.8,51.9z M167,52.5c0.6,0.8,1.4,1.5,2,2.2c0.4,0.7,0.7,1.4,1.1,2.1
			c0.4,0.4,1.1,0.5,1.6,0.7c0.7,0.3,1.3,0.6,2,1c0.2,0.1,1.1,0.5,1.1,0.8c0.1,0,0.1,0,0.2,0c-0.3-0.7-0.8-1.5-1.4-2
			c-0.2-0.2-0.5-0.3-0.7-0.5c-0.5-0.4-0.8-1.1-1.4-1.5C170,54.3,168.4,53.5,167,52.5L167,52.5z M38.8,52.7c-1.1,0.8-2.3,1.5-3.4,2.3
			c-0.6,0.5-1.2,1.3-1.8,1.8c-0.3,0.2-0.5,0.3-0.8,0.4c-0.4,0.4-0.7,0.9-1.1,1.3c-0.1,0.2-0.2,0.6-0.5,0.6c0.1,0.1,0.2,0.2,0.2,0
			c1.4-0.6,2.6-1.4,4.1-1.9c0.3-0.1,0.7-0.2,1-0.3c0-0.2,0-0.2-0.2-0.2C36.7,55.1,37.9,54.1,38.8,52.7L38.8,52.7z M16.8,53
			c0.2,1.2,1,3,2.4,3c0.1-0.2,0.2-0.6,0.5-0.6C19.2,54.1,18.2,53.2,16.8,53L16.8,53z M40.9,53c-0.6,0.4-1.3,0.7-1.9,1.3
			c-0.3,0.3-0.4,1-0.4,0.8C39.3,54.9,42,54.1,40.9,53L40.9,53z M164.9,53c0.2,1.2,0.9,1.6,2,1.9c0.3,0.1,0.7,0.2,1,0.3
			c0-0.1,0-0.1,0-0.2C166.9,54.2,166.2,53.4,164.9,53L164.9,53z M188.7,53c-0.6,0.5-2.1,1.2-2.1,2.3c1.1,1.9,2.9-1.1,2.9-2.3
			C189.2,53,188.9,53,188.7,53L188.7,53z M25.8,54.2c-0.7,0.3-3.5,1.2-2.4,2.4c0.8,0.9,4.1-1.1,4.1-2.1c0.1,0,0.1,0,0.2,0
			c0-0.1,0-0.1,0-0.2C27,54.3,26.4,54.2,25.8,54.2L25.8,54.2z M179.2,54.2c-0.2,0.1-0.6,0.1-0.6,0.3c0.1,0.1,0.1,0.2,0.2,0.2
			c1,1.1,2,2.3,3.7,2.1c0.2,0,0.5,0,0.5-0.2c0.1-0.3,0.2-0.6,0.3-0.9C182,54.8,180.9,54.2,179.2,54.2L179.2,54.2z M40.6,55.9
			c-0.4,0.1-0.9,0.2-1.3,0.4c-0.3,0.1-0.6,0.5-0.9,0.5c0,0.2-0.1,0.2,0.2,0.2c0,0.1,0,0.1,0,0.1c0.6-0.1,1.4-0.1,2,0.1
			c0.4,0.2,0.9,0.5,1.3,0.5c0.8-0.1,1.5-0.9,2-0.9c0-0.1,0-0.1,0-0.2C42.7,56.2,41.8,55.9,40.6,55.9L40.6,55.9z M164.5,55.9
			c-0.7,0.2-1.3,0.5-2,0.8c0,0.1,0,0.1,0,0.2c0.1,0,0.1,0,0.2,0c0.5,0.6,1.4,1.1,2.3,1.1c0.8-0.8,1.7-0.8,2.9-0.8
			C167.3,55.9,165.7,55.9,164.5,55.9L164.5,55.9z M20.3,56.3c-0.1,0.6-0.2,1.2-0.3,1.8c1-0.1,2.1-0.3,2.1-1.5
			C21.6,56.3,20.9,56.3,20.3,56.3L20.3,56.3z M184.3,56.3c-0.1,1,0.3,1.7,1.4,1.8c0.2,0,0.5,0.1,0.5-0.1c0.1,0,0.1,0,0.2,0
			c-0.2-0.5-0.3-1.1-0.5-1.7C185.3,56.3,184.8,56.3,184.3,56.3L184.3,56.3z M18,58c-0.9,0.5-2,0.9-2.5,2c-0.1,0.2,0,0.1-0.2,0.1
			c0,0.1,0,0.2,0,0.3c0.9,0.1,1.8,0.2,2.7,0.2c0.7-0.7,0.9-1.3,0.9-2.4C18.6,58.1,18.3,58,18,58L18,58z M36.7,58
			c-0.8,0.3-1.6,0.7-2.4,1c-1.6,0.7-3.2,1.9-4.5,3.3c-0.1,0.1-0.3,0.3-0.1,0.3c0-0.1,0-0.1,0-0.2c0.5-0.1,1.2-0.3,1.8-0.3
			c0.2-0.1,1.5-0.3,1.5-0.2c0.1,0,0.2,0,0.3,0c0.3,2-5.8,5.8-7.2,7.2c-0.7,0.7-1.1,1.4-1.5,2.3c-0.1,0.2-0.2,1-0.2,0.7
			c0.1,0,0.1,0,0.2,0c1.5-2.7,4.9-4,7.4-5.3c1-0.5,2.2-1,3-2c0.3-0.4,0.8-1.1,0.9-1.6c0.1-0.7-0.2-1.3-0.1-1.9
			c0-0.6,0.8-3.2,1.3-3.2C36.9,58.1,36.8,58,36.7,58L36.7,58z M169.3,58c0.5,0.9,1.1,1.9,1.3,3c0.1,0.5-0.1,1.1-0.1,1.5
			c-0.1,0.7,0.3,1.5,0.6,2c1.2,1.9,3.9,2.5,5.7,3.5c1.6,0.8,3.4,2.1,4.5,3.7c0.1,0.2,0.2,0.4,0.5,0.4c0,0.1,0,0.1,0,0.2
			c0.1,0,0.1,0,0.2,0c-0.2-0.7-0.5-1.6-1-2.2c-0.7-0.7-1.5-1.4-2.2-2.2c-1.1-1-6-4.2-6-5.9c0.2-0.1,0.5-0.1,0.5-0.3
			c1.1,0.2,2.2,0.4,3.3,0.6C174.7,59.9,171.9,59.1,169.3,58L169.3,58z M187.5,58c-0.9,2.3,1,2.6,2.9,2.6c0.2-0.1,0.4-0.1,0.6-0.2
			C190.4,59,189,58.1,187.5,58L187.5,58z M22.8,58.1c-2,2.8,3.3,3.2,3.7,2.6c0.3-0.5-1.9-2.2-2.3-2.4C23.8,58.2,23.3,58.1,22.8,58.1
			L22.8,58.1z M38.8,58.1c-0.1,0.4-0.1,1,0.1,1.3c0.3,0.7,2.2,1.5,2.9,1.5C41.4,59.3,40.7,58.2,38.8,58.1L38.8,58.1z M166.3,58.1
			c0,0.1,0,0.1,0,0.2c-0.9,0.4-1.8,1.7-1.8,2.7c0.1,0,0.1,0,0.2,0c1.5-0.9,2.9-0.4,2.9-2.7C167.1,58.2,166.7,58.2,166.3,58.1
			L166.3,58.1z M182.4,58.1c-0.6,0.5-2.9,1.8-2.9,2.7c-0.2,0-0.2-0.1-0.2,0.2c0.9,0,1.7,0,2.6,0c0.5-0.4,1.1-0.5,1.6-1
			C184.4,58.9,183.5,58.3,182.4,58.1L182.4,58.1z M20.1,59.3c-0.5,1.3,0,2.7,0,4.1c0.1,0,0.2,0,0.3,0C20.8,62.2,22.3,59.8,20.1,59.3
			L20.1,59.3z M185.2,59.3c-0.4,1.1-0.4,1.9,0.1,3c0.1,0.3,0.5,0.7,0.5,1c0.1,0,0.2,0,0.3,0c0-0.3,0.5-3.9,0-3.9c0-0.1,0-0.1,0-0.2
			C185.8,59.3,185.5,59.3,185.2,59.3L185.2,59.3z M37.3,59.5C37,60.3,37,61.1,37,62c0.1,0,0.2,0,0.3,0c0-0.1,0-0.1,0-0.2
			C38.1,61.1,38.1,60.3,37.3,59.5L37.3,59.5z M168.7,59.5c-0.3,0.9-0.8,1.3,0,2.1c0.1,0.2,0.4,0.4,0.6,0.4c0-0.1,0-0.2,0-0.3
			C169.5,60.9,169.1,60.1,168.7,59.5L168.7,59.5z M23.4,61.9c0.4,2.3,0.7,4.5,1.1,6.8c0.1,0,0.1,0,0.2,0c0.4-1.9,0.5-4.2,0.5-6.5
			C24.5,62.1,24,62,23.4,61.9L23.4,61.9z M182.5,61.9c-0.3,0.1-1,0.3-1.2,0.6c-0.4,0.7-0.2,3.8-0.1,4.7c0.1,0.5,0.2,1,0.4,1.5
			c0.1,0,0.1,0,0.2,0c0-0.1,0-0.2,0-0.3C182,67.7,182.8,62.3,182.5,61.9L182.5,61.9z M27.3,62c-0.4,0.1-0.7,0.1-1.1,0.1
			c0,0.4,0,2.3,0.2,2.3c0.3,0.1,1.1-2,1.4-2C27.8,62.2,27.6,62.1,27.3,62L27.3,62z M178.2,62c0.5,1,1.1,2,1.7,3c0.1,0,0.1,0,0.2,0
			c0-1,0-1.9,0-2.9C179.4,62.1,178.8,62.1,178.2,62L178.2,62z M30.6,63.2c-1.2,0.7-2.2,1.4-2.9,2.8c-0.1,0.2,0,0.2-0.3,0.2
			c0.1,0.1,0.2,0.2,0.2,0c0.4-0.2,3.6-2.6,3.6-2.9c0.1,0,0.1,0,0.2,0c0-0.1,0-0.1,0-0.2C31.1,63.2,30.9,63.2,30.6,63.2L30.6,63.2z
			 M175,63.2c0.4,0.7,3.6,3.1,3.6,3.2c0.1,0,0.1,0,0.2,0c0-0.1,0-0.1,0-0.2C177.5,64.8,177.2,63.6,175,63.2L175,63.2z M190,64.6
			c-0.1,1.6-0.7,3-1.1,4.5c-0.4,1.9-0.8,4-1,6c0,0.2-0.2,1.2,0,1.2C188.4,73.1,191.5,67.9,190,64.6L190,64.6z M15.9,64.7
			c-0.1,0.6-0.2,1.3-0.2,1.9c0,1.6,0.8,4.2,1.3,5.6c0.3,0.6,0.5,1.2,0.8,1.9c0.2,0.7,0.3,1.4,0.5,2c0.1,0.2,0,0.5,0.3,0.5
			c-0.5-3.3-0.9-6.4-1.8-9.5C16.4,66.3,16.3,65.5,15.9,64.7L15.9,64.7z M34.3,66.8c-0.4,0.2-0.7,0.5-1.1,0.7c-1.6,0.8-3.5,1.5-5,2.6
			c-2.2,1.5-3.5,3.8-4.8,6c-0.2,0.2-0.7,1.5-0.9,1.5c0.1,0.1,0.2,0.2,0.2,0c1-0.5,2.7-1.8,3.4-2.6c0.4-0.5,0.6-1.1,1-1.5
			c1.8-1.7,4-3,5.9-4.5c0.3-0.2,1.7-1.9,1.7-1.9C34.5,66.9,34.4,66.9,34.3,66.8L34.3,66.8z M171.7,66.8c1,2.3,5.2,4.4,7,6.1
			c0.4,0.4,0.8,0.8,1.1,1.2c0.2,0.3,0.4,0.6,0.6,1c1.1,0.9,2.2,1.7,3.3,2.6c0.1,0,0.1,0,0.2,0c0-0.1,0-0.1,0-0.2
			c-0.5-0.8-1.1-1.7-1.6-2.5c-0.8-1.2-1.6-2.4-2.6-3.5c-1.4-1.6-3.2-2.3-5-3.1C173.7,67.8,172.7,67.3,171.7,66.8L171.7,66.8z
			 M13.1,73.6c-2.3,3.2-0.5,5.1,0.2,8.1c0,0.1,0.2,1.1,0.2,0.7C14.7,80.6,15.2,75,13.1,73.6L13.1,73.6z M192.9,73.6
			c-1.2,1.9-1.4,4.4-1,6.8c0.1,0.7,0.7,1.6,0.7,2.1c0.1,0,0.2,0,0.3,0C193,79.8,196.1,75.6,192.9,73.6L192.9,73.6z M6.3,76.8
			c-0.2,0.1-0.5,0.3-0.8,0.3c0.2,2.2,4.4,6.5,6.5,6.5c-1.2-1.3-3.1-2.2-3.8-3.9c-0.1,0-0.1,0-0.2,0c0-0.1,0-0.2,0-0.3
			c0.2-0.1,0.6-0.3,0.9-0.2c0.3,0.1,3,2.7,3,2.7c0.1,0,0.1,0,0.1,0c0-0.1,0-0.1,0-0.2c-0.3-0.5-0.4-1-0.7-1.5
			C10.4,78.5,8.3,77.2,6.3,76.8L6.3,76.8z M199.5,76.8c-1.7,0.8-4.9,2.3-5.3,4.5c0,0.1,0,0.3,0,0.4c0.1,0,0.1,0,0.2,0
			c0.4-0.4,3-3.4,3.5-2.3c0.5,1.3-3.5,3.2-3.5,4c-0.1,0-0.1,0-0.2,0c0.2,0.1,0.3,0.1,0.5,0.2c0.7-0.4,1.4-0.8,2.1-1.2
			c1.3-0.9,3.9-3.5,3.9-5.2C200.3,77,199.9,76.9,199.5,76.8L199.5,76.8z M29.3,78c-0.8,0.4-1.6,0.9-2.4,1.3
			c-1.5,0.9-3.2,2.1-4.2,3.6c-0.1,0.2,0,0.1-0.2,0.1c0,0.1,0,0.2,0,0.3c0.4,0,0.9,0,1.2-0.2c0.6-0.6,1.3-1.2,1.9-1.8
			C26.3,80.7,29.2,78.6,29.3,78L29.3,78z M176.8,78c0.6,1.1,2.6,2.5,3.6,3.3c0.7,0.6,1.4,1.2,2,1.8c0.2,0.1,0.7,0,0.8-0.1
			C183.9,81.6,177.8,78.5,176.8,78L176.8,78z M31.4,82.6c0,0.1-0.1,0.1-0.1,0.2c-0.5,0.4-0.9,0.8-1.4,1.2c-0.9,0.9-1,2.1-1.3,3.3
			c0,0.2-0.2,1,0.1,1c0,0.1,0,0.1,0,0.2c0.2,0,0.3,0.1,0.3-0.2C30.5,87.6,32.9,84.2,31.4,82.6L31.4,82.6z M174.4,82.6
			c0,0.7,0.1,1.5,0.1,2.2c0.2,1,2,3.6,3,3.6c0-0.1,0-0.1,0-0.2c0.1,0,0.1,0,0.2,0C177.5,85.7,176.8,83.6,174.4,82.6L174.4,82.6z
			 M21.6,84c-0.6,0.9-1.2,1.8-1.9,2.8c-1,1.6-1.6,3.7-2,5.5c0,0.4-0.1,0.8-0.1,1.2c1.4-2.4,2.8-4.8,4.1-7.2
			C22,85.7,21.9,84.4,21.6,84L21.6,84z M184.3,84c0,0.6-0.1,1.7,0.1,2.2c1.4,2.5,2.7,4.9,4.1,7.4c0.1,0.2,0,0.1,0.2,0.1
			C187.9,90.1,187.1,86.6,184.3,84L184.3,84z M9.6,84.4c-1.6,0.8-3.3,0.4-4.4,2.1c-0.2,0.2-0.4,0.6-0.4,0.9c0.8-0.1,1.8-0.2,2.7-0.2
			c0.7-0.3,1.4-0.6,2.1-0.9c0-0.1,0-0.1,0-0.2c-0.5,0.2-1.1,0.3-1.7,0.5c0-0.1,0-0.1,0-0.2c-0.1-0.3-0.2-0.6-0.3-0.9
			c0.9-0.4,1.8-0.7,2.7-1.1c0-0.1,0-0.1,0-0.2C10.1,84.4,9.8,84.4,9.6,84.4L9.6,84.4z M23,84.4c0.1,1.4,1.9,5.2,3.5,3.8
			c0.7-0.6-1.2-2.8-1.8-3.1C24.2,84.7,23.6,84.5,23,84.4L23,84.4z M182.7,84.4c-0.5,0.3-1,0.6-1.4,0.8c-0.6,0.4-1.9,2.2-1.9,2.9
			c0.1,0,0.1,0,0.2,0C181.5,89.6,183.8,85.3,182.7,84.4L182.7,84.4z M195.7,84.4c0.4,0.3,2.2,1.2,2.7,1.2c-0.4,1.4-0.8,0.6-1.8,0.6
			c0,0.1,0,0.1,0,0.2c0.1,0,0.1,0,0.2,0c1.1,0.9,3.1,1.1,4.7,1.1C200.7,85.1,198.1,84.6,195.7,84.4L195.7,84.4z M193.2,84.6
			c-0.4,0.9-3,6.3-2.5,7.1c0,0,0,0,0,0c0.5-0.6,1-1.2,1.5-1.9c0.3-0.3,3.2-2.6,3.4-2.6c0-0.2,0-0.1-0.2-0.1
			C194.7,86.2,193.9,85.4,193.2,84.6L193.2,84.6z M12.8,84.7c-0.2,0.3-0.3,0.6-0.5,0.8c-0.2,0.2-1.4,1.2-1.4,1.4c-0.1,0-0.1,0-0.2,0
			c0,0.1,0,0.1,0,0.1c0.6,0.3,1,0.9,1.6,1.3c1.2,0.9,3.4,2.3,3.4,4c0.1,0,0.1,0,0.2,0C15.5,90.7,14.1,85.6,12.8,84.7L12.8,84.7z
			 M22.5,87.4c-0.2,0.3-0.9,1.2-0.7,1.6l0,0l0,0l0,0l0,0c0.2,0.2,1.3-0.3,1.5-0.4c0.2-0.1,0.3-0.1,0.3-0.3
			C23.2,88,22.9,87.7,22.5,87.4L22.5,87.4z M183.4,87.4c-0.2,0.3-0.8,0.8-0.8,1.2c0.1,0,0.2,0,0.3,0c0.6,0.2,1.2,0.5,1.8,0.8
			C184.5,88.7,184.1,87.9,183.4,87.4L183.4,87.4z M32.3,88.3c-0.9,0.4-1.7,0.7-2.6,1.1c0.1,0.5,0.3,1.1,0.3,1.7c0.7,0,1.4,0,2.1,0
			c0.5-0.2,1-0.3,1.5-0.5c0.5-0.3,0.9-0.5,1.4-0.8c0-0.2,0-0.2-0.2-0.2C34.1,88.7,33.5,88.4,32.3,88.3L32.3,88.3z M172.6,88.3
			c-0.2,0.2-1,1.2-1.4,1.2c0,0.2-0.1,0.2,0.2,0.2c0.7,0.7,3.7,2,4.6,1.1c0.3-0.2,0.4-1.2,0.4-1.6C175.1,88.9,174.1,88.4,172.6,88.3
			L172.6,88.3z M27.3,89.2c-0.2,0.3-0.5,0.7-0.5,1.1c0,0.7,0.8,1.1,1.4,0.8C29.4,90.6,28.2,89.4,27.3,89.2L27.3,89.2z M178.3,89.2
			c0,0.1,0,0.1,0,0.2c-0.3,0.1-0.8,0.9-1.1,0.9c0,0.2-0.1,0.3,0.2,0.3c0.4,0.6,1.4,0.9,1.8,0.2C179.6,90.1,179,89.4,178.3,89.2
			L178.3,89.2z M23.9,89.7c-0.6,0.2-1.2,0.5-1.8,0.7c-0.3,0.2-1.5,1.3-1.7,1.3c0,0.1,0,0.2,0,0.3c1.2,0,3.9,0.2,4.8-0.2
			c0.6-0.3,0.5-1.4,0.1-1.7C24.9,89.7,24.4,89.7,23.9,89.7L23.9,89.7z M181.2,89.7c-0.2,0.1-0.6,0.1-0.6,0.3c0.1,0.5-0.2,1-0.2,1.5
			c1.6,0.8,2.7,1.1,4.7,1.1c0.2-0.2,0.9-0.3,0.9-0.6C184.5,90.7,183.4,89.8,181.2,89.7L181.2,89.7z M12.9,90.3
			c0.9,2.5,1.6,5.1,2.3,7.7c0.3,1.1,0.7,2.3,0.9,3.5c0,0.3,0.1,1.4,0.3,1.4c0-1.4-0.2-2.7-0.4-3.9C15.5,95.9,15.2,92.2,12.9,90.3
			L12.9,90.3z M193.2,90.3c-1.9,2.6-2.5,5.2-2.9,8.6c-0.1,1.2-0.4,2.4-0.4,3.8c0,0.2-0.1,0.3,0.1,0.3c0-1.7,0.5-3.2,0.9-4.7
			c0.4-1.4,0.8-2.9,1.1-4.3c0.4-1.1,0.7-2.1,1.1-3.2c0-0.2,0-0.3,0.2-0.3C193.3,90.4,193.2,90.3,193.2,90.3L193.2,90.3z M29,92.1
			c-0.4,0.4-1.1,1-1.1,1.7c1.2,0.8,2.2,1.6,3.6,1.9c0.2,0,0.4,0,0.4,0.2c0.3-1.1-0.5-2.9-1.4-3.4C30.2,92.2,29.6,92.1,29,92.1
			L29,92.1z M176,92.1c-1.2,0.9-2,2.1-2,3.8c0.1,0,0.1,0,0.2,0c0,0,0,0,0.1,0c0.6-0.2,1.3-0.5,1.9-0.8c0.3-0.2,2-1.5,2.1-1.5
			C177.9,92.5,177.3,92.2,176,92.1L176,92.1z M26.6,92.5c-1.4,0.8-2.2,1-2.3,3c0,0.2-0.1,1.1,0.1,1.1c0,0.1,0,0.1,0,0.2
			c0.2,0,0.3,0.1,0.3-0.2C26.4,95.8,27,94.3,26.6,92.5L26.6,92.5z M179.7,92.5c0,0.1,0,0.1,0,0.2c-0.3,0.3-0.3,1.5-0.2,1.9
			c0.2,0.6,1.5,2.2,2.1,2.2c0,0.1,0,0.1,0,0.2c0.1,0,0.1,0,0.2,0C181.9,94.6,181.8,93.6,179.7,92.5L179.7,92.5z M19.2,93
			c-0.5,1.2-1.1,2.3-1.6,3.5c-0.1,0.2-0.1,0.3,0.1,0.3c0.6-1.9,2.9-0.2,2.9,0.6c0.1,0,0.1,0,0.2,0c0.3-0.7,2.6-3.1,2.6-3.5
			c0.1,0,0.1,0,0.2,0c0-0.1,0-0.1,0-0.2c-0.7,0-1.5-0.1-2.2-0.1C20.5,93.4,19.9,93.2,19.2,93L19.2,93z M186.6,93
			c-1,0.8-2.3,0.8-3.8,0.8c0,0.2-0.1,0.3,0.2,0.3c0.3,0.7,2.6,2.9,2.6,3.3c0.1,0,0.2,0,0.3,0c0.2-0.5,0.7-1.3,1.3-1.5
			c0.6-0.2,1.4,0.2,1.4,0.9c0.1,0,0.1,0,0.2,0C188.4,95.7,187.5,93.6,186.6,93L186.6,93z M6.4,94.8C7,96,8,97.2,8.8,98.3
			c0.7,1,1.4,2,2.1,3c0.4,0.5,1,0.6,1.3,1.1c0.9,1.2,0.7,3.1,1.4,4.4c0.1,0.2,0.9,1.6,1.1,1.4c0.3-0.2-0.1-1.3-0.1-1.5
			C13.4,102.7,10,97.4,6.4,94.8L6.4,94.8z M199.5,94.8c-0.9,1-1.9,1.9-2.8,2.9c-2,2.3-3.2,4.9-4.5,7.6c-0.5,0.9-1,2.2-1,3.3
			c0.5-0.2,0.6-0.6,0.8-1c0.5-0.8,0.9-1.6,1.1-2.5c0.2-0.9,0.2-1.8,0.6-2.5c0.4-0.7,1.2-1,1.7-1.6c1.3-2,2.7-3.9,4-5.9
			c0-0.1,0.1-0.2,0.1-0.3C199.6,94.8,199.6,94.8,199.5,94.8L199.5,94.8z M18.8,97.1c-0.1,0.4-0.5,3,0.2,3
			C19.2,99,19.6,97.9,18.8,97.1L18.8,97.1z M187.2,97.1c-0.2,0.5-0.3,1.3-0.2,1.9c0.1,0.4,0.2,0.7,0.3,1.1c0.1,0,0.1,0,0.2,0
			c0-0.1,0-0.2,0-0.3C187.7,99,187.7,97.6,187.2,97.1L187.2,97.1z M21.3,99.2c0,0.1,0,0.1,0,0.2c-1,0.4-1.5,1.7-1.5,1.7
			c0.1,0,0.1,0,0.2,0c0.2-0.2,1.7-1.6,1.7-1.8C21.5,99.2,21.4,99.2,21.3,99.2L21.3,99.2z M184.6,99.2c0.3,0.4,1.6,2,2,2
			C186.2,100.1,185.6,99.6,184.6,99.2L184.6,99.2z M188.7,99.8c-0.1,0.6-0.2,1.2-0.3,1.8c0.1,0.3,0.1,0.7,0.2,1c0.1,0,0.1,0,0.2,0
			C188.7,101.7,188.9,100.6,188.7,99.8L188.7,99.8z M17.4,100.2L17.4,100.2L17.4,100.2z M17.6,101c0,0.2,0.1,0.7,0.2,0.7
			C17.9,101.5,17.7,101.1,17.6,101L17.6,101z M179.7,101.7c0.8,2,2.5,3.6,3.9,5.3c2.8,3.6,5.5,8.8,5.5,13.7c0.1,0,0.1,0,0.2,0
			c0-2.4-0.1-4.8-0.7-6.9c-1-3.5-3.7-6.6-6.2-9.4C181.5,103.5,180.6,102.5,179.7,101.7L179.7,101.7z M26.3,101.9
			c-0.6,0.7-1.3,1.3-1.9,2c-2.9,3.3-6.1,6.9-6.9,11.2c-0.3,1.6-0.3,3.4-0.3,5.3c0,0.2,0,0.3,0.2,0.3c0.1-4.4,1.8-8.4,4.1-11.8
			c0.9-1.2,1.8-2.4,2.7-3.6c0.7-0.8,2.3-2.3,2.3-3.4C26.4,101.9,26.3,101.9,26.3,101.9L26.3,101.9z M11.1,102.9
			c-0.9,1.7-2.6,3.3-2.6,5.6c0.1,0,0.1,0,0.2,0C11.2,110,12.2,104.4,11.1,102.9L11.1,102.9z M195,102.9c-0.9,1.7-0.3,4.8,1.2,5.9
			c0.1,0.1,0.5,0.4,0.5,0.1c0.2-0.2,0.5-0.3,0.7-0.5C198.1,107.3,195.7,103.8,195,102.9L195,102.9z M4.2,103.2
			c-1,2.1-0.7,4.4,1.5,5.4c0.5,0.2,1,0.4,1.6,0c0.2-0.1,0.2-0.1,0.2-0.3c-0.2-0.8,0.3-1.7,0.3-2.4C6.6,104.9,5.6,103.8,4.2,103.2
			L4.2,103.2z M201.8,103.2c0,0.1,0,0.1,0,0.2c-0.8,0.3-2.8,1.7-3.1,2.6c-0.2,0.5,0.1,1.8,0.2,2.3c0.1,0.4,0.8,0.6,0.8,0.9
			c0.1,0,0.1,0,0.2,0c0-0.1,0-0.1,0-0.2c0.6-0.3,1.2-0.6,1.8-0.9C202.8,107.2,203,104.2,201.8,103.2L201.8,103.2z M12.3,107.1
			c-0.1,0.3-0.5,1.5-0.3,1.5C13.1,108,13.1,108.2,12.3,107.1L12.3,107.1z M193.6,107.3c-0.2,0.3-0.6,0.8-0.6,1.2
			c0.5,0.1,0.9,0.1,1.4,0.2C194.2,108.1,194,107.6,193.6,107.3L193.6,107.3z M3.4,109.5c-0.4,0.2-2.1,0.9-2.1,1.5
			c1.1,0.3,2.1,0.6,3.3,0.6c0.4-0.2,0.9-0.2,1.2-0.6C6.8,109.9,4.1,109.5,3.4,109.5L3.4,109.5z M201.2,109.5c-2.1,1.7,0.3,2.1,2,2.1
			c0.3-0.2,1.8-0.5,1.8-0.9C203.7,110,202.8,109.5,201.2,109.5L201.2,109.5z M12,109.7c-0.4,0.2-1.1,0.2-1.3,0.7
			c-0.5,1.1,1,1.3,1.7,1.3c0.1-0.1,3.2-1.5,3.2-1.5c0-0.1,0-0.1,0-0.2C14.5,109.8,13.3,109.7,12,109.7L12,109.7z M192.3,109.7
			c-0.5,0.1-1.1,0.2-1.7,0.3c0,0.1,0,0.1,0,0.2c0.1,0,0.1,0,0.2,0c1.1,0.9,2.6,1.5,4.2,1.5C196.8,109.9,193.5,109.7,192.3,109.7
			L192.3,109.7z M7.9,109.8c-0.2,0.2-0.4,0.4-0.5,0.6c-0.1,0.2-0.1,1.3,0.1,1.3c0,0.1,0,0.1,0,0.2c0.4-0.1,0.8-0.2,1.1-0.4
			c0.2-0.2,0.6-0.8,0.8-0.8C9.1,110.1,8.7,109.9,7.9,109.8L7.9,109.8z M197.4,109.8c-0.1,0.2-0.3,0.4-0.4,0.6
			c-0.1,0.7,1,1.5,1.6,1.5c0-0.1,0-0.1,0-0.2C199.1,110.7,198.5,110,197.4,109.8L197.4,109.8z M173.5,110.7c0,0.9,0,1.9,0,2.9
			c0.2,2.1,1.6,6.2,2.7,7.8c0.3,0.3,0.6,0.6,0.9,0.9c0.3,0.4,0.5,1.3,1.2,1.3c-0.4-0.5-4.1-6.3-2.3-6.3c0.1-0.1,0.1-0.2,0.3-0.2
			c0,0.1,0,0.1,0,0.2c0.2,0.6,0.5,1.2,0.8,1.8c0.5,1,1,1.9,1.5,2.9c0.1,0,0.1,0,0.2,0c0-0.2-0.1-0.5,0.2-0.5
			C178.2,117.3,176.7,113.7,173.5,110.7L173.5,110.7z M32.4,110.9c-2.7,3.4-5,6.3-5,11.1c0.1,0,0.1,0,0.2,0c0.5-1.4,2.1-3.2,2.1-4.8
			c0.1,0,0.1,0,0.2,0c0,0.1,0,0.1,0,0.2c0.3,0,0.6,0,0.9,0c-0.1,0.7-0.2,1.2-0.4,1.8c-0.3,0.6-2.1,4.3-2.6,4.3c0,0.1,0,0.1,0,0.2
			c0.1,0,0.1,0,0.2,0c0.2,0.1,0.3,0.1,0.5,0.2c0.3-0.4,0.5-0.9,0.8-1.3c0.3-0.4,0.7-0.6,0.9-1C31.1,119.5,33.6,113.2,32.4,110.9
			L32.4,110.9z M15.3,111.6c0,0.2-0.2,0.9,0.2,0.9c0,0.1,0,0.1,0,0.2c0.1,0,0.1,0,0.1,0C15.5,112.3,15.4,112,15.3,111.6L15.3,111.6z
			 M190.8,111.6c0,0.3,0,0.6,0,0.9c0.1,0,0.1,0,0.2,0C191,112.3,190.9,111.9,190.8,111.6L190.8,111.6z M6.1,112.2
			c-1.1,1.9-2.3,2.4-2.3,5c1.7-0.3,2.7-1.5,3.4-3c0.1-0.4,0.3-0.7,0.4-1.1C7.1,112.9,6.6,112.6,6.1,112.2L6.1,112.2z M23.4,112.2
			c-0.3,1.2-0.1,3.2,0.2,4.4c0.1,0.4,0.2,0.9,0.4,1.3c0.4-0.1,0.8-0.1,1.2-0.2c0,0.8,0.2,1.6,0.5,2.2c0.1,0.3,0.4,0.6,0.4,0.9
			c0.1,0,0.1,0,0.2,0c0.1-1,0.3-1.9,0.4-2.9C26.7,116.1,24.9,113.5,23.4,112.2L23.4,112.2z M182.7,112.2c-1.3,1.6-3.1,3.5-3.2,5.7
			c0.1,0.5,0.2,1,0.3,1.5c0,0.3,0.3,1.4,0.3,1.2c0.5-0.7,0.7-1.6,0.7-2.6c0-0.2,0-0.1,0.2-0.1c0-0.1,0-0.1,0-0.2
			c0.4,0.1,0.8,0.1,1.2,0.2C182.6,116.5,183.5,113.8,182.7,112.2L182.7,112.2z M199.8,112.2c0,0.1,0,0.1,0,0.2
			c-0.3,0.2-0.8,0.8-1.2,0.8c0.4,1.4,1.3,3.2,2.8,3.8c0.2,0.1,0.5,0.1,0.7,0C203.2,116,200.5,112.9,199.8,112.2L199.8,112.2z
			 M13.5,112.4c-0.5,0.2-0.9,0.3-1.4,0.5c0,0.1,0,0.1,0,0.2c0.4,0.5,3.2,5.6,3.2,6c0.1,0,0.1,0,0.2,0
			C15.2,116.8,15.7,113.5,13.5,112.4L13.5,112.4z M192.1,112.4c-0.2,0.7-0.8,1.3-1,2c-0.4,1.3-0.1,3-0.3,4.3c0,0.1-0.1,0.3,0.1,0.3
			c0.5-1.8,1.8-3.4,2.6-5.1c0.1-0.2,0.4-0.6,0.4-0.9c0.2,0,0.2,0,0.2-0.2c-0.1,0-0.1,0-0.2,0c0-0.1,0-0.1,0-0.2
			C193.3,112.6,192.7,112.5,192.1,112.4L192.1,112.4z M9.3,112.5c-0.1,0.5-0.1,1.3,0,1.8c0.1,0.6,1.4,3.6,1.9,3.6
			c0.1,0.1,0.2,0.2,0.2,0c1.2-1.1,0.5-3.6-0.4-4.6C10.6,112.9,10,112.6,9.3,112.5L9.3,112.5z M196.2,112.5c-0.6,0.4-1.1,0.9-1.5,1.5
			c-0.3,0.5-0.9,4,0.3,4c0-0.1,0-0.2,0-0.3c1.6-1.1,2-3.3,2-5.3C196.7,112.5,196.5,112.5,196.2,112.5L196.2,112.5z M35.6,120.2
			c-1.9,0.7-3.5,0.3-4.7,2.1c-0.1,0.2-0.4,0.4-0.4,0.6c0.1,0,0.2,0,0.3,0c0-0.1,0-0.1,0-0.2c0.3-0.1,1.8-0.7,1.8-0.9
			c0.2,0,0.3,0,0.5,0c0.1,0.4,0.2,0.7,0.3,1.1c-0.3,0.1-2,0.9-2,1.1c0.2,0,0.2,0,0.2-0.2c1.5-0.4,4.4-1.9,5.1-3.3c0.1,0,0.1,0,0.2,0
			c0-0.1,0-0.2,0-0.3C36.4,120.2,36,120.2,35.6,120.2L35.6,120.2z M169.4,120.2c0.5,1.2,3.9,3.6,5.1,3.6c0-0.1,0-0.1,0-0.2
			c-0.6-0.3-1.2-0.6-1.8-0.9c0-0.2-0.1-0.2,0.2-0.2c0.9-1.3,2.1,0.5,3.2,0.5c-0.2-0.2-0.4-0.4-0.6-0.5c-0.3-0.4-0.5-0.7-0.8-1.1
			C173.5,120.5,171.1,120.3,169.4,120.2L169.4,120.2z M4.6,121.6c0.6,0.8,3,3.5,3.9,3.5c0-0.1,0-0.1,0-0.2c0.4-0.1,0.7-0.2,1.1-0.3
			c0-0.2,0-0.2-0.2-0.2c0-0.1,0-0.1,0-0.2C7.9,123.2,6.5,122.1,4.6,121.6L4.6,121.6z M201.2,121.6c-0.6,0.4-4.4,2.1-4.4,2.9
			c-0.1,0-0.1,0-0.2,0c0,0.1,0,0.1,0,0.2c0.5,0.2,1,0.3,1.5,0.5C198.6,124.5,201.6,122.4,201.2,121.6L201.2,121.6z M181.8,122.2
			c-0.3,0.2-1.5,0.7-1.5,1.2c-0.1,0-0.1,0-0.2,0c0,0.1,0,0.1,0,0.2c0.4,0,0.8,0,1.2,0c0.3-0.1,0.6-0.1,0.9-0.2c0.4-0.2,1.4,0,1,0.6
			c-0.3,0.5-1.4,0.6-1.9,0.6c0,0.1,0,0.1,0,0.2c0.3,0,0.6,0,0.9,0c0.4-0.1,0.8-0.1,1.2-0.2c0.9-0.6,1.8-0.5,2.4-1.6
			c0.1-0.2,0.1-0.2,0.3-0.2c0-0.1,0-0.2,0-0.3C184.8,122.3,183.3,122.2,181.8,122.2L181.8,122.2z M20.1,122.6c0.5,1.4,2,1.8,3.4,2
			c0.2,0,0.4,0,0.6,0c-0.3-0.2-0.7-0.3-1-0.5c-0.2-0.2-0.1-0.7,0.2-0.8c0.9,0.1,1.9,0.2,2.8,0.2c0-0.2,0-0.2-0.2-0.2
			C24.8,122.1,21.9,122.6,20.1,122.6L20.1,122.6z M30.9,125.2c-0.5,0.2-1.3,0.4-1.9,0.3c-0.3-0.1-0.6-0.1-0.9-0.2c0,0.2,0,0.3,0,0.5
			c1.3,0.9,2.7,1.7,4.5,1.7C32.3,126.6,31.7,125.7,30.9,125.2L30.9,125.2z M174.8,125.3c-0.3,0.5-1.2,1.4-1.2,2
			c-0.2,0-0.2-0.1-0.2,0.2c0.6-0.1,1.1-0.1,1.7-0.2c0.5-0.3,2.9-0.9,2.9-1.7c0.1,0,0.1,0,0.2,0c0-0.1,0-0.1,0-0.2
			C177,125.5,176,125.4,174.8,125.3L174.8,125.3z M10.5,125.5c-0.5,0.2-1,0.3-1.5,0.5c0,0.1,0,0.1,0,0.2c0.1,0,0.2,0,0.3,0
			c1-0.4,2.9,0.1,3.8,0.4c2.1,0.7,3.9,2,5,3.9c2.4,4,1.4,8.4,5.5,11.6c0.3,0.2,0.9,0.9,1.2,0.9c-0.6-2.6-1.6-4.9-2.4-7.4
			c-0.3-1-0.4-2.3-1-3.3c-1.4-2.6-4.9-5.4-7.7-6.2C12.8,125.5,11.7,125.5,10.5,125.5L10.5,125.5z M193.8,125.5
			c-0.8,0.3-1.7,0.5-2.5,0.8c-3,1.4-6.4,4.3-7.1,7.7c-0.5,2.6-1.9,4.8-2.5,7.4c-0.1,0.2-0.1,1.4-0.1,1.2c0.1,0,0.1,0,0.2,0
			c0.6-0.4,1.2-0.9,1.7-1.3c0.7-0.6,1.3-1.6,1.7-2.5c0.9-1.9,1.1-4.3,1.9-6.3c1.2-3.3,4.2-6.5,8.1-6.5c0.5-0.2,1.4,0,2,0
			C196.2,125.5,195,125.5,193.8,125.5L193.8,125.5z M10.3,127.1c0.5,0.7,1.2,1.3,1.7,2c0.7,0.9,1.4,1.8,2.1,2.7
			c1.6,2.4,3.2,4.8,4.7,7.2c0.7,1,1.6,1.8,2.4,2.7c0.1,0.1,0.3,0.2,0.3,0.5c0.1,0,0.1,0,0.2,0c0-0.1,0-0.1,0-0.2
			c-3-2.8-2.5-7.1-4.4-10.5c-0.5-0.9-1.6-1.8-2.4-2.5C13.4,127.8,12.6,127.3,10.3,127.1L10.3,127.1z M195,127.1
			c-0.7,0.2-1.5,0.5-2.2,0.7c-0.9,0.4-3.6,2.9-4.1,3.8c-0.6,1-0.9,2.3-1.2,3.4c-0.5,1.8-0.8,3.7-1.8,5.2c-0.2,0.3-1.4,1.9-1.2,1.9
			c0-0.1,0-0.1,0-0.2c1.4-1,2.5-2.5,3.4-3.9c2.3-3.3,4.6-7.9,7.7-10.6c0.1-0.1,0.2-0.1,0.2-0.3c0.1,0,0.1,0,0.2,0c0-0.1,0-0.1,0-0.2
			C195.6,127.1,195.3,127.1,195,127.1L195,127.1z M22.7,128c0,0.9,0.6,4.2,1.4,4.2c0,0.1,0,0.1,0,0.2c0.1,0,0.1,0,0.2,0
			c0.1-0.6,0.3-1.3,0.4-2C24.8,129.4,23.5,128.4,22.7,128L22.7,128z M183.3,128c0,0.1,0,0.1,0,0.2c-0.8,0.3-1.6,1.4-1.6,2.2
			c0.1,0.7,0.3,1.3,0.4,2c0.1,0,0.1,0,0.2,0c0-0.1,0-0.1,0-0.2c0.1,0,0.1,0,0.2,0C182.8,131.2,184.2,129.2,183.3,128L183.3,128z
			 M6,129.8c0,1,0.5,5,1.4,5c0,0.1,0,0.1,0,0.2c0.1,0,0.1,0,0.2,0c-0.2-0.8-0.5-1.6-0.7-2.4C6.6,131.6,6.5,130.6,6,129.8L6,129.8z
			 M26.7,130c-0.9,0.7-1.5,1.8-1.4,3c0.1,0.4,0.1,0.7,0.2,1.1c1.6-0.5,1.9-2.2,2.1-3.8c0-0.2,0-0.1,0.2-0.1c0-0.1,0-0.1,0-0.2
			C27.4,130,27.1,130,26.7,130L26.7,130z M178.5,130c0.2,1.2,0.7,4.1,2.3,4.1c0-0.1,0-0.1,0-0.2c0.1,0,0.1,0,0.2,0
			C180.8,131.8,180.8,130.1,178.5,130L178.5,130z M200,130.1c-0.4,1.6-0.8,3.3-1.3,4.8c0,0,0,0.1,0,0.1c0.1,0,0.1,0,0.2,0
			c0-0.1,0-0.1,0-0.2c0.1,0,0.1,0,0.2,0C199.6,133.6,200.4,131.9,200,130.1L200,130.1z M172.1,131.9c0.1,0.3,0.6,0.7,0.6,0.9
			c0.1,0,0.1,0,0.2,0c0-0.1,0-0.1,0-0.2C172.6,132.4,172.4,132.2,172.1,131.9L172.1,131.9z M33.8,132.1c-0.1,0.2-0.5,1-0.5,0.8
			c0.2-0.2,0.6-0.4,0.6-0.8C33.9,132.1,33.9,132.1,33.8,132.1L33.8,132.1z M173,133c0.1,3.7,3.7,7.6,5.2,10.7
			c0.3,0.6,0.8,1.6,0.8,2.4c0.1,0,0.1,0,0.2,0c0-0.8,0.2-1.9,0.1-2.7c-0.2-1.4-0.9-2.5-1.5-3.7c-0.6-1.1-1.1-2.2-1.8-3.2
			C175,135.3,174,134.2,173,133L173,133z M23.1,133.1c0.1,1.2,0.5,2.3,0.9,3.3c0.2,0.5,0.3,0.9,0.5,1.3c0.1,0,0.1,0,0.2,0
			C24.6,135.5,24.9,134.6,23.1,133.1L23.1,133.1z M33.1,133.1c-0.9,1.1-1.9,2.2-2.8,3.4c-1,1.3-1.9,3-2.5,4.5
			c-0.3,0.8-0.7,1.6-0.8,2.4c-0.1,0.8,0.1,1.8,0.1,2.6c0.1,0,0.1,0,0.2,0c0.4-2.5,2.2-4.8,3.5-6.8c0.5-0.8,0.9-1.7,1.4-2.5
			C32.6,135.6,33.2,134.4,33.1,133.1L33.1,133.1z M183,133.1c-1.1,1.4-1.7,1.7-1.4,3.8c0,0.1,0.2,0.8,0.2,0.5
			C182.3,136.3,183.1,134.4,183,133.1L183,133.1z M11.4,139.5c0.5,1.9,2,3.9,4.2,3.9c0-0.1,0-0.1,0-0.2c-0.1-0.1-2.5-1.8-2-1.8
			c0.1-0.2,0.5-0.4,0.5-0.6c0.1,0,0.1,0,0.2,0c0.3,0.2,3.5,2.9,3.5,2.9c0,0.1,0,0.1,0,0.2c0.1,0,0.1,0,0.1,0
			C16.6,141,14.4,140.1,11.4,139.5L11.4,139.5z M194.5,139.5c-2,0.8-4.7,1.2-5.8,3.4c-0.1,0.2-0.5,1-0.2,1c0-0.1,0-0.1,0-0.2
			c0.3-0.2,3.3-2.9,3.3-2.9c2,1.1-1.2,1.8-1.2,2.6c0.2,0,0.3,0.1,0.3-0.2c0.6-0.1,1.2-0.2,1.7-0.5
			C193.6,142.3,194.6,140.5,194.5,139.5L194.5,139.5z M36.8,141.1c-1.1,2.6-4,5-3.5,8.3c0,0.1,0.1,0.3,0.1,0.2
			c0.9-1.2,1.5-2.5,1.6-4.1c0-0.2,0-0.4,0.2-0.4c0-0.1,0-0.1,0-0.2c0.3,0.1,0.5,0.2,0.8,0.4c0.8,1-1.9,6-2.3,6
			c0,0.2-0.1,0.3,0.2,0.3c0,0.1,0,0.1,0,0.2c0.1,0,0.1,0,0.2,0c0-0.1,0-0.1,0-0.2c0.1,0,0.1,0,0.2,0c0.5-0.8,1.1-1.6,1.6-2.4
			c1-1.7,1.8-3.6,1.7-5.8C37.4,142.5,37.3,141.6,36.8,141.1L36.8,141.1z M169.1,141.1c-0.1,0.9-0.4,1.9-0.4,2.9
			c0,1.8,0.9,3.7,1.7,5.1c0.3,0.5,1.7,2.1,1.7,2.6c0.1,0,0.2,0,0.3,0c0.1-0.2,0.1-0.3,0.2-0.5c-1.2-0.9-2.6-4.5-2.6-6.2
			c0.4-0.1,0.7-0.1,1.1-0.2c0,0.1,0,0.1,0,0.2c0.1,0,0.1,0,0.1,0c0,1,0.3,2.1,0.7,3c0.2,0.4,0.8,1.1,0.8,1.5c0.1,0,0.1,0,0.2,0
			C173,146.5,171,143.3,169.1,141.1L169.1,141.1z M184,142.3c0,0.2,0,0.2-0.2,0.2c0,0.1,0,0.1,0,0.2c0.1-0.1,0.2-0.2,0.3-0.2
			C184.1,142.4,184.1,142.4,184,142.3L184,142.3z M22.5,142.6c0,0.2-0.1,0.2,0.2,0.2c0,0.1,0,0.1,0,0.2c0.1-0.1,0.2-0.2,0-0.2
			C22.6,142.7,22.6,142.7,22.5,142.6L22.5,142.6z M30.6,142.8c-0.6,1.9-0.2,4.5,0.5,6.2c0.1,0.2,0.1,0.6,0.4,0.6
			c-0.3-1.1-0.9-2.3-0.9-3.5c0.2,0,1.1-0.3,1.1,0c0.2,0.4,0.3,0.8,0.5,1.2c0.1,0,0.1,0,0.2,0c0.2-0.6,0.3-1.1,0.4-1.7
			C32.8,144.5,31.5,143.4,30.6,142.8L30.6,142.8z M175.4,142.8c0,0.1,0,0.1,0,0.2c-0.9,0.4-2.1,1.8-2,2.8c0.2,0.6,0.3,1.1,0.5,1.7
			c0.1,0,0.1,0,0.2,0c0-0.1,0-0.2,0-0.3c0.1-0.2,0.8-1.7,1.3-0.8c0.3,0.7-0.4,2.1-0.6,2.8c0,0.1-0.2,0.3,0.1,0.3
			C175.3,147.5,176.3,144.9,175.4,142.8L175.4,142.8z M184.9,143.1c-0.5,0.7-2,1.9-3,1.6c-0.1,0-0.1,0-0.2-0.1c0,0.1,0,0.1,0,0.2
			c-0.1,0-0.1,0-0.2,0c-1,1.8-1.5,3.9-2.3,5.8c-0.3,0.6-1.9,3-1.9,3.5c0.1,0.1-0.1,0.2,0.2,0.2c0-0.1,0-0.1,0-0.2
			c0.6-0.4,1.1-1,1.6-1.4c1.1-0.8,2.2-1.6,3.3-2.5c1-1,1.9-2,2.9-3c0.5-0.5,1.6-1.2,1.8-1.9c0-0.7,0-1.3,0.1-2
			C186.4,143.3,185.7,143.2,184.9,143.1L184.9,143.1z M19.1,143.8c0,0.4-0.1,1.3,0.1,1.6c0.3,0.6,1.1,1.1,1.6,1.6c1,1.1,2,2.1,3,3.2
			c1.1,0.8,2.1,1.6,3.2,2.4c0.4,0.4,0.8,0.8,1.2,1.2c0.2,0.1,0.5,0.2,0.5,0.4c0.1,0,0.2,0,0.3,0c-0.7-1.2-1.3-2.4-2-3.7
			c-0.5-1.2-1.4-4.9-2.4-5.6c-0.2-0.2-0.6-0.1-1-0.2c-0.5-0.3-1.1-0.5-1.6-0.8C21.2,143.7,20,143.8,19.1,143.8L19.1,143.8z
			 M29.1,143.8c-0.5,1.1-1,2.3-1,3.6c0,0.9,0,2.3,0.3,3.2c0.2,0.8,2.7,5.3,3.5,5.1c0.1-0.1,0.2-0.3,0.2-0.4c0.2-0.5,0.5-1.7,0.3-2.2
			c-0.2-0.6-0.8-1-1.2-1.5c-0.6-0.9-1.2-2.1-1.6-3.2C29.2,146.9,29.3,145.4,29.1,143.8L29.1,143.8z M177,144
			c-0.1,1.8-0.1,3.3-0.7,4.8c-0.4,0.9-0.8,1.9-1.4,2.7c-0.4,0.5-1,1.1-1.1,1.7c-0.1,0.7,0.1,1.8,0.4,2.4c0.1,0.2,0.2,0.5,0.4,0.5
			c1.1-1.7,2.5-3.3,3.2-5.2C178.5,148.9,178.1,145.5,177,144L177,144z M12.6,144.1c-1.8,0.7-3.4,1.1-4.6,2.8
			c-0.2,0.3-0.5,0.8-0.5,1.2c1.2,0,2.4,0,3.6,0c0.9-0.4,1.9-0.7,2.8-1.1c0.3-0.1,0.8-0.7,1.1-0.7c0-0.1,0-0.2,0-0.3
			c-0.8,0-1.7,0.1-2.4,0.4c-0.4,0.1-0.9,0.5-1.4,0.5c-0.1-0.3-0.3-0.7-0.3-1.1c0.7-0.3,1.4-0.5,2.1-0.8c0.4-0.1,1.8-0.2,2.1-0.4
			c-0.1-0.1-0.3-0.2-0.4-0.3C14.1,144.1,13.3,144.1,12.6,144.1L12.6,144.1z M192,144.1c-0.5,0.2-1.1,0.4-1.7,0.6c0,0.1,0,0.1,0,0.2
			c1.2,0,2.4,0.1,3.3,0.4c0.6,0.3,1.2,0.5,1.8,0.8c0,0.2,0.1,0.3-0.2,0.3c-0.2,0.2-0.3,0.4-0.6,0.4c-0.5-0.2-1-0.3-1.5-0.5
			c-0.6-0.2-1.3-0.2-2.1-0.2c0,0.1,0,0.2,0,0.3c0.4,0.2,0.8,0.5,1.2,0.7c1.8,0.8,3.6,1.4,5.8,1.4c0.2-0.1,0.4-0.1,0.6-0.2
			C198.1,145.4,194.9,144.1,192,144.1L192,144.1z M17,146.1c0,0.2,0,0.2-0.2,0.2c0,0.1,0,0.1,0,0.2c0.2,0,0.2-0.1,0.2,0.2
			c0.1,0,0.1,0,0.2,0C17.1,146.4,17,146.2,17,146.1L17,146.1z M189.1,146.1c0,0.2-0.1,0.5,0.2,0.5c0-0.1,0-0.1,0-0.2
			c0.1,0,0.1,0,0.2,0C189.3,146.3,189.2,146.2,189.1,146.1L189.1,146.1z M17.1,146.7c-0.1,0.6-1.1,3.8-1.4,3.8
			c-0.2-0.2-0.7-0.5-1.1-0.5c0-0.1,0-0.1,0-0.2c0.4-0.6,1.1-1.8,1.1-2.6c-0.1,0-0.1,0-0.2,0c0,0.1,0,0.1,0,0.2
			c-0.3,0.2-0.7,0.5-0.9,0.8c-0.3,0.6-0.5,3.7,0.4,3.7c0-0.1,0-0.1,0-0.2C16.8,150.8,17.6,148.7,17.1,146.7L17.1,146.7z M189,146.7
			c0,0.5,0,1-0.1,1.5c0.1,1.2,1.2,3.8,2.6,3.8c0.1-1.1,0.5-2.4,0-3.5c-0.1-0.3-0.9-0.8-0.9-1.1c-0.1,0-0.1,0-0.2,0
			c0.2,0.9,0.9,1.9,0.9,2.9c-0.4,0.1-0.7,0.2-1.1,0.3C189.9,149.2,189.4,147.9,189,146.7L189,146.7z M39.7,148.6
			c-1.9,0.8-3,0.9-4.2,2.7c-0.1,0.2-0.1,0.4-0.4,0.4c0,0.1,0,0.2,0,0.3c0.4,0,0.8,0,1.2,0c0.1,0,0.1,0,0.2-0.1
			c2.1-0.7,3.8-1.1,5.5-2.7c0.1,0,0.2,0,0.2-0.1c0-0.1,0-0.2,0-0.3c-0.1,0-0.2,0-0.3,0C41.3,148.6,40.4,148.6,39.7,148.6L39.7,148.6
			z M164.9,148.6c-0.3,0.1-0.6,0.2-0.9,0.3c0,0.1,0,0.1,0,0.2c1.5,1.5,3.5,2.6,5.7,2.9c0.2,0,0.8,0.1,0.9-0.2
			c0.1-0.2-0.2-0.7-0.3-0.9C169.2,149.1,167.1,148.6,164.9,148.6L164.9,148.6z M22.2,150.3c2.2,3.2,4.6,6.5,8,8.7
			c0.2,0.2,1.1,0.7,1.4,0.5c0.3-0.3,0.2-1.6,0.1-2c-0.4-0.7-3.5-2.3-4.4-2.9c-0.3-0.3-0.7-0.7-1-1c-0.8-0.6-1.6-1.2-2.4-1.8
			C23.3,151.2,22.7,150.8,22.2,150.3L22.2,150.3z M183.7,150.4c-1,1.3-2.3,2-3.5,2.9c-0.5,0.4-1,0.9-1.5,1.3
			c-0.7,0.5-3.9,2.1-4.2,2.8c0,0.7-0.1,1.4-0.1,2.1c0,0.2,0,0.3,0.2,0.3c0-0.1,0-0.1,0-0.2c1-0.4,1.9-1.2,2.8-1.9c1.1-1,2.2-2,3.3-3
			c0.8-1.1,1.6-2.1,2.4-3.2c0.2-0.3,0.8-0.8,0.8-1.2C183.8,150.4,183.8,150.4,183.7,150.4L183.7,150.4z M36.2,153.1
			c-0.3,0.1-2.4,0.1-2.4,0.3c-0.1,0-0.1,0-0.2,0c-0.1,0.9-0.6,2.4-0.3,3.3c0.3,0.8,3,2.1,3,2.6c0.2,0,0.2,0,0.2-0.2
			c0.9-0.4,2-0.7,3.1-0.5c0.4,0.1,0.8,0.3,1.2,0.4c0-0.1,0-0.1,0-0.2C39.7,157.3,38.4,153.5,36.2,153.1L36.2,153.1z M169.1,153.1
			c-0.6,1-3.6,4.7-3.6,5.6c0,0.1,0.2,0.2,0.3,0.2c0-0.1,0-0.1,0-0.2c0.6-0.1,3.9-0.2,3.9,0.6c0.1,0,0.1,0,0.2,0c0-0.1,0-0.1,0-0.2
			c0.6-0.5,2.6-1.8,2.9-2.4c0.2-0.4,0-1.1,0-1.5c-0.1-0.6-0.2-1.2-0.5-1.7C172.1,153.3,169.7,153.2,169.1,153.1L169.1,153.1z
			 M16.7,156.1c-0.1,0.2-0.6,0.5-0.6,0.8c-0.1,0-0.1,0-0.2,0c0.4,0,0.8,0,1.2,0c0.8,0,1.7,0.1,2.4,0.2c2,0.5,3.7,1.8,5.4,2.9
			c0.1,0.1,0.9,0.6,0.6,0.6c-0.1,0.2-0.2,0.6-0.5,0.6c0,0.1,0,0.1,0,0.2c-0.2,0-0.2,0-0.2-0.2c-1.7-0.9-3.5-2.5-5.4-2.9
			c-1.1-0.3-2.3-0.1-3.4-0.1c0,0.2,0,0.2-0.2,0.2c0.7,0.2,1.7,0.1,2.4,0.2c1.5,0.3,2.8,1,4,1.7c6.6,3.7,12.5,8.8,19.2,12.2
			c0.6,0.3,2.8,1.4,3.3,1.4c0-0.1,0-0.1,0-0.2c-0.9-0.5-1.7-1-2.6-1.4c-1.2-0.6-2.6-1.1-3.7-1.9c-2.2-1.7-4.1-4.1-6.4-6
			c-2.3-1.9-4.8-3.2-7.2-4.8C22.1,157.8,20.6,156.1,16.7,156.1L16.7,156.1z M187.5,156.1c-1.2,0.5-2.4,0.9-3.6,1.6
			c-1.2,0.9-2.5,1.7-3.7,2.6c-2.2,1.4-4.5,2.7-6.6,4.4c-2,1.7-3.7,3.8-5.7,5.5c-0.8,0.6-6.5,3.4-6.5,3.7c0.2,0,0.2,0,0.2-0.2
			c1.7-0.4,3.3-1.4,4.8-2.2c5.4-2.9,10.2-6.9,15.4-10.1c2-1.2,4.3-2.9,7-2.9c0.4-0.2,1.1,0,1.5,0c-1.1-0.9-3.7-0.4-4.8,0.2
			c-1.3,0.6-2.5,1.6-3.8,2.2c-0.1,0.1-0.8,0.6-0.8,0.3c-0.2-0.2-0.5-0.6-0.5-0.9c2-1.1,4.6-3.3,7.1-3.3c0.8-0.3,1.9,0,2.7,0
			c0-0.1,0-0.1,0-0.2C189.5,156.3,188.7,156.1,187.5,156.1L187.5,156.1z M161,156.4c-0.2,0.5-0.5,1-0.5,1.5
			c-0.2,1.3,0.7,4.4,2.2,4.4C163.2,160.1,163.1,157.7,161,156.4L161,156.4z M44.9,156.6c-0.5,0.4-0.9,0.8-1.2,1.3
			c-0.3,0.6-0.9,4.4,0.3,4.4c0-0.1,0-0.1,0-0.2C45.3,161.3,46.8,157.7,44.9,156.6L44.9,156.6z M33.1,158.1c0,0.8,0,1.8,0.3,2.4
			c0.3,0.5,1.1,0.9,1.6,1.2c0.5,0.3,3.8,3.1,3.8,3.4c0.1,0,0.1,0,0.2,0c-0.3-1.2-0.8-2.5-1.6-3.4C36.2,160.3,34.5,159.2,33.1,158.1
			L33.1,158.1z M173,158.1c-1,0.9-2,1.8-3.1,2.6c-0.4,0.4-0.9,0.8-1.3,1.2c-0.4,0.6-0.6,1.2-0.9,1.9c-0.1,0.2-0.5,1.4-0.3,1.4
			c0-0.1,0-0.1,0-0.2c1.1-0.9,2.1-1.9,3.2-2.8c0.5-0.4,1.9-1.1,2.2-1.7C173.2,159.9,173.2,158.8,173,158.1L173,158.1z M38.2,159.8
			c0.1,1.6,1.5,2.8,3,3.1c0.4,0.1,0.9-0.1,1.3-0.1C41.5,160.9,40.6,159.8,38.2,159.8L38.2,159.8z M166.3,159.8c0,0.1,0,0.1,0,0.2
			c-0.5,0.2-2.6,2.6-2.6,2.6c0,0.1,0,0.2,0,0.3c0.1,0,0.2,0,0.3,0c0.4,0.1,0.8,0.1,1.2,0.2c1.1-0.7,2.9-1.3,2.9-3
			c-0.1,0-0.1,0-0.2,0c0-0.1,0-0.1,0-0.2C167.4,159.8,166.8,159.8,166.3,159.8L166.3,159.8z M33.7,162.3c2.1,4.4,5.7,6.8,9.7,9.1
			c0.6,0.3,2.2,1.3,2.9,1.3c0-0.1,0-0.1,0-0.2c-1.1-0.6-3-2.4-4-3.3c-0.6-0.6-1.3-1.5-2.1-1.7c-0.2-0.1-0.7,0-0.7-0.2
			c-1-0.5-1.8-1.6-2.6-2.4C35.9,163.9,34.8,163.1,33.7,162.3L33.7,162.3z M172.1,162.5c-1.1,0.9-2.2,1.8-3.3,2.8
			c-0.6,0.6-1.3,1.2-1.9,1.8c-0.5,0.4-1.2,0.5-1.7,0.9c-1.7,1.5-3.4,3-5.1,4.5c-0.1,0.1-0.3,0.2-0.3,0.4c0.2,0,0.2,0,0.2-0.2
			c0.1,0,0.1,0,0.2,0c1.1-0.6,2.2-1.1,3.3-1.7c3-1.5,6.3-3.8,8.1-6.8c0.2-0.3,0.6-1.4,0.8-1.4C172.3,162.7,172.2,162.6,172.1,162.5
			L172.1,162.5z M14,163.1c0.5,0.9,1.1,1.9,1.9,2.7c0.8,0.9,5.2,4.2,5.2,5c0.1,0,0.1,0,0.2,0c0-0.1,0-0.2,0-0.3
			c0.3-0.9-0.1-1.8-0.5-2.5c-0.8-1.1-2.2-1.6-3.2-2.3c-0.6-0.4-1.2-1-1.8-1.5C15.1,163.8,14.5,163.4,14,163.1L14,163.1z M192,163.1
			c-1,0.8-2,1.6-3,2.4c-1.2,0.9-3.2,1.6-3.8,3.2c-0.2,0.6-0.1,1.4-0.1,2.1c0.1,0,0.1,0,0.2,0c0.5-1.5,2.7-2.7,3.8-3.7
			c1-0.8,1.9-1.9,2.5-2.9c0.2-0.3,0.5-0.7,0.5-1.1C192.1,163.1,192,163.1,192,163.1L192,163.1z M39.7,163.7c0.2,0.8,0.6,1.8,1,2.5
			c0.4,0.5,4.9,4.6,5.1,4.6c0,0.1,0,0.1,0,0.2c0.1,0,0.1,0,0.2,0c0-0.1,0-0.1,0-0.2c-1.1-1.3-1.7-3.7-2.3-5.3
			c-0.2-0.4-0.3-1.1-0.7-1.4c-0.3-0.2-1.2,0-1.6,0C40.8,163.9,40.2,163.8,39.7,163.7L39.7,163.7z M166.1,163.7
			c-0.4,0.2-1,0.4-1.5,0.4c-0.4,0-1.1-0.2-1.4,0c-0.5,0.3-2.1,4.7-2.4,5.5c-0.1,0.3-0.4,0.8-0.3,1.2c0-0.1,0-0.1,0-0.2
			c0.1,0,0.1,0,0.2,0c1.7-2.2,4.3-3.1,5.5-5.8c0.1-0.2,0.2-0.8,0.4-0.8C166.4,163.9,166.3,163.8,166.1,163.7L166.1,163.7z
			 M55.6,164.1c0,1,0.3,6.2,1.2,6.2c0-0.1,0-0.1,0-0.2C58.2,168.6,56.6,165.3,55.6,164.1L55.6,164.1z M150.5,164.1
			c-1,1.7-1.9,3-1.4,5.2c0,0.2,0.1,0.8,0.4,0.8C150.3,170.1,150.7,165,150.5,164.1L150.5,164.1z M63.4,167.1
			c-1.7,0.6-4.4,1.1-4.8,3.2c-0.1,0.3,0.1,1.3,0.4,1.3c0.1,0.1,0.2,0.2,0.2,0c1.9-0.5,3.1-1.8,4.3-3.4c0.2-0.2,0.5-0.6,0.5-0.9
			c0.1,0,0.1,0,0.2,0c0-0.1,0-0.1,0-0.1C63.9,167.1,63.7,167.1,63.4,167.1L63.4,167.1z M142.1,167.1c0.6,1.5,3.4,4.7,5.1,4.7
			c0-0.1,0-0.1,0-0.2C149,169,144.1,167.3,142.1,167.1L142.1,167.1z M29,169.5c-1.7,2.3-0.7,3.5,1,5.2c0.3,0.3,0.6,0.9,1,0.9
			c0-0.1,0-0.1,0-0.2c0.1,0,0.1,0,0.2,0C31,173.2,30.9,170.7,29,169.5L29,169.5z M50,169.5c0.8,1.5,2.5,3.2,4.4,3.2
			c0.1-0.3,0.5-0.9,0.4-1.3C54.5,170.2,51.2,169.6,50,169.5L50,169.5z M155,169.5c-0.6,0.2-1.2,0.4-1.8,0.6
			c-0.4,0.2-1.6,1.1-1.9,1.1c0.8,2.7,3.1,0.7,4.2-0.6c0.2-0.2,0.6-0.6,0.6-0.9c0.1,0,0.1,0,0.2,0c0-0.1,0-0.1,0-0.2
			C155.8,169.5,155.4,169.5,155,169.5L155,169.5z M177,169.5c-1.1,1.4-2.1,3.3-1.8,5.4c0,0.2,0.1,0.6,0.3,0.6c0-0.1,0-0.1,0-0.2
			c1.4-1,3.2-2.8,2.4-4.7C177.7,170.2,177.4,169.8,177,169.5L177,169.5z M56.8,171.3c-0.2,0.1-0.4,0.3-0.6,0.4
			c-0.6,0.8-0.4,2.4,0.9,2.3C58.9,173.8,57.9,171.7,56.8,171.3L56.8,171.3z M149,171.3c0,0.1,0,0.1,0,0.2c-1.4,0.8-1,2.7,0.8,2.7
			C150.6,173.1,150.7,171.7,149,171.3L149,171.3z M37.1,172.1c-1.6,0.7-4.1,0.8-4.6,2.9c-0.1,0.4-0.1,0.9,0.2,1.2
			C34.2,177.7,37.4,173.7,37.1,172.1L37.1,172.1z M38.5,172.2c-0.1,1.1-0.5,1.9-1.1,2.7c-0.2,0.3-1.8,1.8-1.8,2c-0.1,0-0.1,0-0.2,0
			c0,0.1,0,0.1,0,0.2c1.5,0,2.9,0.2,4.4,0.2c-0.3-0.4-1.4-2.3-0.7-2.8c0.5-0.4,4.1,0.7,4.6,0.9c0.7,0.4,1.3,1,1.8,1.6
			c0.2,0.4,0.5,0.8,0.7,1.1c0.3,0.3,3.6,1.2,3.8,0.9c0.2-0.3,0.5-2.2,0.5-2.7c-1.4-0.8-3.4-0.6-5.1-1
			C42.9,174.7,40.7,173.3,38.5,172.2L38.5,172.2z M80.6,172.2c-0.9,1.9-1.2,3.8-0.7,6c0.1,0.2,0.1,0.9,0.4,0.9c0,0.1,0,0.1,0,0.2
			c0.1,0,0.1,0,0.2,0c-0.1-0.8-0.1-1.6-0.2-2.4c0.1,0,0.1,0,0.2,0c0-0.1,0-0.1,0-0.2c0.4,0,0.7,0,1.1,0c0.1,1.1,0.2,2.2,0.3,3.3
			c0.1,0.6,0.2,1.1,0.3,1.7c0.1,0,0.1,0,0.2,0c0-0.1,0-0.2,0-0.3c0.4-0.8,0.8-1.9,0.8-2.9c0-1.1-1.1-4.5-1.6-5.4
			C81.2,172.8,80.9,172.5,80.6,172.2L80.6,172.2z M167.5,172.2c-1.8,1.2-4.1,2.3-6.2,3c-1,0.3-4.7,0.4-5.2,1
			c-0.4,0.5-0.1,1.4-0.1,2.1c0,0.4-0.1,0.7-0.1,1.1c1.1-0.2,3.3-0.6,4.1-1.2c0.3-0.5,0.7-1,1-1.5c0.9-1.3,2.6-1.9,4.2-1.9
			c0.4-0.2,1.3-0.6,1.8-0.6c0.3,0.7,0.2,1.5-0.1,2.2c-0.1,0.2-0.4,0.5-0.4,0.8c-0.2,0-0.2-0.1-0.2,0.2c0.5,0,1,0,1.5,0
			c0.7-0.3,2-0.2,2.9-0.2c-0.8-0.9-1.7-1.6-2.3-2.6C168.1,173.7,167.8,173,167.5,172.2L167.5,172.2z M168.8,172.2
			c0.2,0.5,0.4,1,0.5,1.4c0.6,1.1,3.1,3.9,4.3,2.2c0.2-0.2,0.1-0.7,0-1C173.3,173.1,170.6,172.3,168.8,172.2L168.8,172.2z
			 M60.4,172.4c-0.2,0.2-0.5,0.4-0.8,0.6c-0.2,0.3-0.7,1.7-1.1,1.7c0,0.2-0.1,0.2,0.2,0.2c0.6,0.9,1.5,0.9,2.6,0.9
			c1-0.6,2.5-0.8,3.8-0.8c0.3-0.2,1.1-0.2,1.5-0.2C65.1,173,62.9,172.4,60.4,172.4L60.4,172.4z M125.2,172.4c-0.7,1.1-2.2,5.2-2,6.6
			c0.1,1,0.8,1.8,0.8,2.7c0.1,0,0.1,0,0.2,0c0.1-0.8,0.3-1.6,0.4-2.4c0.1-0.7,0.1-1.5,0.3-2.1c0.1-0.3,1-0.7,1-0.3
			c0.1,0,0.1,0,0.2,0c-0.1,0.8-0.1,1.5-0.2,2.3c0.1,0,0.2,0,0.3,0c0-0.1,0-0.1,0-0.2c0.1,0,0.1,0,0.2,0c0.1-0.9,0.3-1.8,0.4-2.7
			C126.7,175.1,126.3,172.9,125.2,172.4L125.2,172.4z M143.7,172.4c-0.7,0.3-1.4,0.6-2.1,0.8c-0.4,0.2-1.6,1.3-2,1.3
			c0,0.1,0,0.2,0,0.3c2.5,0,4.4,0.9,6.9,0.9c0.2-0.2,0.6-0.5,0.7-0.8c0.2-0.7-0.6-2-1.3-2.3C145.4,172.4,144.5,172.4,143.7,172.4
			L143.7,172.4z M44.9,173.9c0,0.1,0,0.1,0,0.2C44.9,174,44.9,173.9,44.9,173.9L44.9,173.9z M53.7,174.2c-1.2,0.9-2.3,2.3-2.3,3.9
			c0.2,0,0.3,0.1,0.3-0.2c0.9-0.5,3.8-2,3.8-3.2C54.9,174.4,54.5,174.2,53.7,174.2L53.7,174.2z M151.8,174.2
			c-0.3,0.2-0.8,0.4-0.8,0.8c-0.1,0.8,3.1,3.1,3.7,3.1c0,0.1,0,0.1,0,0.2c0.1,0,0.1,0,0.2,0C154.7,176.4,153.8,174.6,151.8,174.2
			L151.8,174.2z M25.7,174.5c-0.7,0.3-4.5,0.8-4.5,1.5c0.8,0.5,1.5,1.1,2.4,1.4c1.2,0.4,3.1,0.1,4.5,0.1c0.3-0.2,0.9-0.3,1.2-0.6
			c0.2-0.2,0.2-0.6,0.1-0.9C28.9,174.6,27.1,174.5,25.7,174.5L25.7,174.5z M178.8,174.5c-0.7,0.4-2.6,1.1-1.9,2.3
			c0.5,0.9,4.5,0.9,5.6,0.7c0.7-0.2,1.7-0.7,2.2-1.3c0.1-0.1,0-0.1,0.2-0.1c0-0.2,0-0.3,0-0.5c-0.1,0-0.2,0-0.3,0
			C183.1,174.7,180.7,174.5,178.8,174.5L178.8,174.5z M57.3,175.2c0,0.1,0,0.1,0,0.2c-1.2,0.9-0.2,3.9,0.4,4.7
			c0.2,0.3,0.8,0.8,0.8,1.1c0.1,0,0.1,0,0.2,0c0-0.1,0-0.1,0-0.2C59.6,179.4,59,176.1,57.3,175.2L57.3,175.2z M148.5,175.2
			c-0.9,1.3-1.8,3.5-1.2,5.3c0.1,0.2,0.1,0.6,0.3,0.6c0,0.1,0,0.1,0,0.2c0.1,0,0.1,0,0.2,0c0-0.1,0-0.1,0-0.2
			C148.9,180.1,150.5,176.1,148.5,175.2L148.5,175.2z M165.8,175.5c-1.1,0.4-4.2,0.6-4.2,2.4c0.4,0,1,0,1.3-0.1c0.8-0.2,3-1.3,3-2.3
			C165.9,175.5,165.9,175.5,165.8,175.5L165.8,175.5z M40.3,175.7c0.7,1.7,2.6,2.3,4.4,2.3C43.9,176.3,42.1,175.8,40.3,175.7
			L40.3,175.7z M64.9,176c-1,0.4-2.3,0.3-3.2,0.9c-0.1,0.1-0.3,0.2-0.1,0.2c0.7,1.2,6.8,6.8,7.8,6.8c0,0.1,0,0.1,0,0.2
			c0.1,0,0.1,0,0.1,0c-0.4-1.6-0.8-3.1-1.2-4.7c-0.1-0.5-0.2-1.1-0.3-1.6c-0.1-0.4-0.4-1.1-0.8-1.4C66.8,175.9,65.7,176,64.9,176
			L64.9,176z M86.9,176.1c-1.2,0.9-2.4,2.2-2.8,3.6c0,0.2-0.2,0.6,0,0.6c0-0.1,0-0.1,0-0.2c0.2-0.2,1.5-1.3,1.5-1.5
			c0.1,0,0.1,0,0.2,0c0,0.1,0,0.1,0,0.2c0.9,0.9-0.7,2-1.1,2.7c-0.2,0.4-0.2,1.1-0.2,1c2-1.2,3.1-3.5,3.9-5.6
			c0.1-0.2,0.2-0.6,0.4-0.6c0-0.1,0-0.2,0-0.3C88.1,176.1,87.5,176.1,86.9,176.1L86.9,176.1z M117.4,176.1c0.9,1.3,2.8,6.5,4.7,6.5
			c0,0.2-0.1,0.2,0.2,0.2c-0.2-0.5-0.4-1-0.7-1.4c-0.4-0.5-0.9-1.1-1.3-1.6c-0.1-0.1-0.4-0.4-0.1-0.4c0.1-0.2,0.5-0.3,0.5-0.6
			c0.1,0,0.1,0,0.1,0c0,0.1,0,0.1,0,0.2c0.2,0.2,1.4,1.1,1.4,1.4c0.1,0,0.1,0,0.2,0c-0.4-1.5-1.3-3.3-2.9-3.9
			C118.9,176.1,118,176.1,117.4,176.1L117.4,176.1z M138.8,176.1c-0.3,0.6-0.5,1.2-0.8,1.8c-0.1,0.4-1.1,5.5-1.1,5.6
			c0.8,0.2,7.7-5.6,7.7-6.8c-0.8-0.2-1.5-0.4-2.3-0.5C141.2,176.2,140,176.2,138.8,176.1L138.8,176.1z M31.1,176.9
			c-0.5,0.6-0.6,1-0.6,1.8c0.2,0,1.2,0.3,1.2,0c0.1,0,0.1,0,0.2,0c0-0.3,0.1-1.7-0.2-1.7C31.5,177,31.3,176.9,31.1,176.9L31.1,176.9
			z M55.3,176.9c-0.2,0.2-0.8,0.5-0.8,0.8c-0.1,0-0.1,0-0.2,0c0,0.2-0.1,0.2,0.2,0.2c0.2,0.3,0.8,0.9,1.2,0.9
			C55.6,178.1,55.5,177.5,55.3,176.9L55.3,176.9z M74,176.9c0.3,0.7,0.6,1.4,0.9,2c1,1.6,4.1,4,5.9,4c0-0.1,0-0.1,0-0.2
			c0.1,0,0.1,0,0.2,0C80.4,179.5,76.8,177.7,74,176.9L74,176.9z M131.8,176.9c-0.5,0.2-1.1,0.4-1.6,0.6c-1.5,0.7-3.4,2.1-4.3,3.6
			c-0.1,0.1-0.3,0.9-0.3,0.6c0.7-0.3,2.4-2,3-2c0.1,0.2,0.3,0.5,0.2,0.7c-0.2,0.5-1.9,2.1-2.4,2.1c0,0.1,0,0.1,0,0.2
			c0.1,0,0.2,0,0.3,0c0-0.1,0-0.1,0-0.2C128.1,182.1,133,178.8,131.8,176.9L131.8,176.9z M150.6,176.9c0,0.5,0,1.1,0,1.7
			c0.1,0,0.1,0,0.2,0c0.2-0.2,0.8-0.8,1.1-0.8c0-0.2,0-0.2-0.2-0.2C151.3,177.4,151,177.1,150.6,176.9L150.6,176.9z M174.4,176.9
			c-0.2,0.9-0.1,1.8,0.9,1.9c0.2,0,0.3,0.1,0.3-0.1C175.9,177.7,175.4,177.1,174.4,176.9L174.4,176.9z M60,177
			c0.1,0.8,0.3,1.8,0.3,2.7c-0.1,0.5-0.2,1-0.3,1.5c2.6,1.5,5.5,2.7,8.2,3.8c0.7,0.3,1.4,0.6,2.1,0.8c0-0.1,0-0.1,0-0.2
			c-2.9-1.5-5.7-3.7-8.1-6.2C61.5,178.7,60.7,177.9,60,177L60,177z M146,177c-0.5,0.9-1.2,1.5-1.9,2.3c-2.1,2.3-4.5,4.1-7,5.8
			c-0.2,0.1-1,0.8-1,0.7c2.5-0.7,4.8-1.9,7.1-2.9c0.9-0.4,2.2-0.8,2.8-1.6C146,181.3,146,177.2,146,177L146,177z M136.7,177.6
			c-1.8,2.5-3,5.2-4.5,7.8c-0.1,0.2-0.1,0.4-0.3,0.4c0,0.1,0,0.2,0,0.3c0.2,0,0.3,0.1,0.3-0.2c2.9-0.8,3.5-2.8,4.1-5.6
			C136.4,179.7,136.8,178.6,136.7,177.6L136.7,177.6z M69.4,177.8c0,1.1,0.3,2,0.6,2.9c0.7,2.6,0.9,3.8,3.3,5.1
			c0.4,0.2,0.8,0.4,1.2,0.6c0-0.1,0-0.1,0-0.2c-1.6-2-2.4-4.6-3.8-6.8C70.3,178.8,70,178.3,69.4,177.8L69.4,177.8z M37,178.2
			c0.5,0.7,2.3,1.8,2.3,2.7c0.1,0,0.2,0,0.3,0c0-0.1,0-0.1,0-0.2c0.4-0.3,1.6-2,2.1-2c0-0.1,0-0.1,0-0.2c-0.1,0-0.1,0-0.2,0
			c0-0.1,0-0.1,0-0.2C40,178.5,38.5,178.4,37,178.2L37,178.2z M167.8,178.2c-1.1,0.2-2.2,0.3-3.3,0.5c0,0.1,0,0.1,0,0.2
			c0.5,0.2,2.3,1.7,2.3,2.1c0.1,0,0.2,0,0.3,0c0.1-0.5,1.7-2.6,2.3-2.6c0-0.1,0-0.1,0-0.2C168.8,178.2,168.3,178.2,167.8,178.2
			L167.8,178.2z M53,178.4c-0.3,0.3-1.4,0.8-1.4,1.2c-0.1,0-0.1,0-0.2,0c0,0.1,0,0.1,0,0.1c1.9,0.7,3.8,1.3,5.7,2
			C56.5,180.4,54.4,179,53,178.4L53,178.4z M152.7,178.4c-0.8,0.9-1.9,1.3-2.8,2c-0.5,0.4-0.7,1.1-0.7,1.1c1.8-0.6,3.6-1.2,5.4-1.8
			c0-0.2,0-0.1-0.2-0.1c0-0.1,0-0.1,0-0.2C154,179.1,153.4,178.7,152.7,178.4L152.7,178.4z M33.4,178.7c-0.2,0.2-0.4,0.6-0.6,0.6
			c0.4,1.6,2.6,2.3,4.2,2.3c0.3-0.2,1.1-0.2,1.1-0.8C36.4,179.4,35.9,178.7,33.4,178.7L33.4,178.7z M170.8,178.7
			c-0.5,0.4-2.7,1.8-2.7,2.6c0.1,0,0.2,0,0.3,0c0.5,0.2,1.2,0.3,1.8,0.3c0.8-0.4,3-0.7,3.1-2C173.4,178.6,171.5,178.7,170.8,178.7
			L170.8,178.7z M27.6,178.8c-0.6,0.1-1.3,0.3-1.9,0.4c-2.5,0.5-3.2,1.5-3.2,4.1c0.5-0.1,1.1-0.1,1.7-0.2c0.5-0.2,1.1-0.4,1.6-0.6
			c1.2-0.5,2.5-1.3,3.2-2.5c0.1-0.2,0.2-0.5,0.4-0.5c0-0.2,0-0.3,0-0.5c-0.1,0-0.2,0-0.3,0C28.6,179.1,28.1,179,27.6,178.8
			L27.6,178.8z M177.1,179c-1,2.3,5.9,4.9,6.4,4.1c0.2-0.3,0.1-1,0-1.3C183.1,179,179.6,179,177.1,179L177.1,179z M44,179.2
			c-1.2,0.5-2.2,0.7-3,1.8c-0.1,0.2-0.4,0.4-0.4,0.6c0.1,0,0.1,0,0.2,0c0.9-0.3,1.8-0.6,2.7-0.8c0.7-0.4,1.4-0.8,2.1-1.3
			c0-0.1,0-0.1,0-0.2c-0.1,0-0.2,0-0.3,0C44.8,179.2,44.4,179.2,44,179.2L44,179.2z M161,179.2c0,0.1,0,0.1,0,0.2
			c-0.4,0.7,4,2.3,4.7,2.3C164.5,180,163.1,179.2,161,179.2L161,179.2z M30.6,180.1c-0.5,1.8-1.8,4.8-0.4,6.6
			c0.1,0.2,0.3,0.5,0.6,0.5C31.3,185.4,33.1,181.3,30.6,180.1L30.6,180.1z M175,180.1c-0.9,1.9-0.7,3.7-0.1,5.7
			c0.2,0.5,0.4,1,0.6,1.5c0.1,0,0.1,0,0.2,0c0-0.1,0-0.1,0-0.2c0.1,0,0.1,0,0.2,0c0.3-0.5,0.6-0.9,0.7-1.5
			C176.7,184.2,176.4,180.6,175,180.1L175,180.1z M107.9,181c0,0.2,0,0.5,0,0.8c0.1,0,0.1,0,0.2,0C108,181.5,108,181.2,107.9,181
			L107.9,181z M98.2,181.1c0,0.2-0.1,0.6,0.2,0.6C98.3,181.5,98.2,181.3,98.2,181.1L98.2,181.1z M59.7,182.5
			c0.1,0.1,0.2,0.3,0.5,0.3c0-0.1,0-0.1,0-0.2C60,182.6,59.8,182.5,59.7,182.5L59.7,182.5z M146.3,182.5c-0.1,0.1-0.3,0.3,0,0.3
			c0-0.1,0-0.1,0-0.2C146.3,182.6,146.3,182.5,146.3,182.5L146.3,182.5z M86.6,184.1c0,0.1,0,0.1,0,0.2c-0.7,0.4-1.2,1.3-1.1,2.1
			c0.1,0.4,0.2,0.7,0.2,1.1c0.2,0,0.2-0.1,0.2,0.2c0.1,0,0.2,0,0.3,0c0-0.1,0-0.1,0-0.2C86.8,186.7,87.1,185.1,86.6,184.1
			L86.6,184.1z M119.4,184.3c-0.1,0.8,0,3.3,1.1,3.3c0-0.1,0-0.1,0-0.2C121.1,186.2,120.7,184.7,119.4,184.3L119.4,184.3z M56.1,185
			c-0.5,0.2-1.2,0.1-1.8,0.2c-1.2,0-2.4,0.1-3.6,0.1c0,0.1,0,0.1,0,0.1c1.1,0.3,2.2,0.7,3.3,1c3.3,0.7,6.8,0.9,10.5,0.9
			c0.9-0.4,2.5-0.2,3.6-0.2c0.2-0.1,0.3-0.1,0.5-0.2c0-0.1,0-0.1,0-0.2c-1.7-0.5-3.3-1.3-5.1-1.7C61.2,184.8,58.5,185,56.1,185
			L56.1,185z M144.6,185c-1,0.3-2.1,0.3-3,0.5c-1.3,0.5-2.6,0.9-3.9,1.4c0,0.1,0,0.1,0,0.2c2.5,0.2,5.3,0.3,8,0.3
			c0.5-0.2,1.5-0.2,2.1-0.2c0.4-0.2,1-0.2,1.5-0.2c0.3-0.1,0.6-0.1,0.9-0.2c1.1-0.3,2.2-0.6,3.3-0.8c0.7-0.2,1.3-0.4,2-0.7
			c0-0.1,0-0.1,0-0.1C151.8,185.2,148.4,185,144.6,185L144.6,185z M92.6,186.2c-0.6,0.6-1.3,1.1-1.6,2c-0.5,1.7,0.2,4,1.7,4.9
			c0.2,0.1,0.5,0.3,0.7,0.3c0,0.2-0.1,0.2,0.2,0.2c-0.4-1.5-1-2.9-1.2-4.5C92.4,188.3,92.8,186.8,92.6,186.2L92.6,186.2z
			 M113.3,186.2c0.4,1.6,0.3,4.9-0.3,6.2c-0.1,0.2-0.3,0.7,0,0.8c0.9,0.3,2.1-2,2.2-2.6c0.1-0.7,0.1-1.9-0.1-2.5
			C114.8,187.2,114.1,186.6,113.3,186.2L113.3,186.2z M39.5,186.4c0.4,1.5,2.2,3.2,3.6,3.7c0.6,0.2,1.3-0.1,1.9,0
			c0.5,0.1,1,0.2,1.5,0.3C45.5,187.6,42.4,186.4,39.5,186.4L39.5,186.4z M165.2,186.4c-0.5,0.2-1.1,0.3-1.6,0.5
			c-1.2,0.4-2.3,1.1-3.1,2.1c-0.3,0.3-0.5,0.6-0.6,1c0.3,0.2,0.9,0.1,1.3,0.1c0.6,0,1.2,0.1,1.8,0.1c1.1-0.3,3.6-2.3,3.6-3.6
			c0.1,0,0.1,0,0.2,0c0-0.1,0-0.1,0-0.2C166.2,186.4,165.7,186.4,165.2,186.4L165.2,186.4z M82.4,187.6c-0.2,0.1-0.8,0.3-0.8,0.6
			c-0.1,0.1-0.2,0.1-0.2,0.3c0.8,0.2,1.5,0.6,2.4,0.6c0.4-0.2,0.7-0.4,1.1-0.6c0-0.2,0-0.2-0.2-0.2
			C84.1,187.7,83.3,187.6,82.4,187.6L82.4,187.6z M122.5,187.6c-0.4,0.2-0.8,0.5-1.2,0.8c0,0.2-0.1,0.2,0.2,0.2
			c0.5,0.5,1.1,0.6,1.8,0.6c0.3-0.2,1.5-0.5,1.5-0.9c-0.1,0-0.1,0-0.2,0C124,187.7,123.4,187.6,122.5,187.6L122.5,187.6z
			 M72.4,188.9c-1.3,0.4-2.6,0.7-3.9,1.1c-1.9,0.5-3.8,1.1-5.5,1.9c-2.8,1.2-5.2,3.3-8,4.5c-0.1,0-0.2,0.1-0.3,0.1
			c1.5,0.4,13.1-4.2,14-5.2c0.2-0.2,0.9-0.6,0.9-0.8c0.4,0.1,0.7,0.2,1.1,0.3c0.8-0.1,1.5-0.2,2.3-0.3c0.5-0.1,0.9-0.1,1.4-0.2
			c0.9-0.4,2.5-0.2,3.6-0.2c0.4-0.2,1.1-0.2,1.7-0.2C77.8,188.9,74.7,188.9,72.4,188.9L72.4,188.9z M131.2,188.9
			c-0.8,0.1-1.6,0.2-2.4,0.3c-0.7,0.2-1.4,0.4-2.1,0.6c0,0.1,0,0.1,0,0.2c2.1,0,4.5,0.1,6.5,0.4c0.9,0.2,1.7,0.4,2.6,0.5
			c0-0.1,0-0.1,0-0.2c0.2-0.1,0.6-0.1,0.6-0.3c0.8,0.3,1.1,1,1.8,1.3c2.9,1.3,5.8,2.6,8.8,3.7c1.3,0.5,2.9,1.2,4.4,1.2
			c-0.7-0.4-1.3-0.8-2-1.2c-4.7-3.2-9.8-5.3-15.6-6.4C132.9,189,132.1,189,131.2,188.9L131.2,188.9z M85.7,189.2
			c-0.2,0.2-0.5,0.6-0.8,0.6c0,0.1,0,0.2,0,0.3c1,0.3,1.9,0.6,2.9,0.9c0-0.1,0-0.1,0-0.2C87,190.5,86.4,189.6,85.7,189.2L85.7,189.2
			z M120.3,189.2c-0.2,0.3-1.8,1.7-1.8,1.8c0.1,0,0.2,0,0.3,0c0-0.1,0-0.1,0-0.2c0.9-0.2,1.7-0.5,2.6-0.8c0-0.1,0-0.2,0-0.3
			C121,189.6,120.6,189.4,120.3,189.2L120.3,189.2z M82.2,190.4c-1.9,1.7-7.8,0.2-10.2,1.4c-0.1,0-0.6,0.3-0.3,0.3
			c0.2,0.6,0.8,2.3,0.8,2.3c0.1,0,0.1,0,0.2,0c0.6-0.9,4.3-3.2,5.3-2c0.6,0.8,0.2,2.2,0.2,3c0.2,0,0.3,0,0.5,0
			c0.3-0.2,1-0.6,1.4-0.6c0-0.1,0-0.1,0-0.2c-1.1-0.4-2.4-3-0.4-3.2c1.1-0.2,2.4,0.3,3.2,0.9c0.5,0.4,1,1,1.6,1.1c0.4,0,0.8,0,1.2,0
			c0.4-0.2,1.1-0.1,1.7-0.1c0.5-0.2,1.4,0.1,1.8-0.3c0,0,0.1-0.2,0-0.3c-0.5-0.2-0.9-0.3-1.4-0.5C85.7,191.5,83.9,191,82.2,190.4
			L82.2,190.4z M123.7,190.4c-2.4,0.9-4.7,1.7-7.1,2.6c0,0.1,0,0.1,0,0.2c1.3,0,2.5,0.1,3.8,0.2c0.7,0.1,1.3,0.2,2,0.3
			c0.4-0.6,1-1.2,1.6-1.6c0.7-0.4,4-1.4,4,0.3c0.1,0,0.1,0,0.2,0c0-0.1,0-0.1,0-0.2c0.1,0,0.1,0,0.2,0c1.1-0.8,3.8,0.7,4.6,1.3
			c0.2,0.2,0.5,0.7,0.8,0.7c0,0.1,0,0.1,0,0.2c0.1,0,0.1,0,0.2,0c0-0.1,0-0.2,0-0.3c0.2-0.7,0.5-1.4,0.8-2.1c0.2,0,0.2,0,0.2-0.2
			c-1-0.2-2.1-0.4-3.2-0.4C128.8,191.2,126,191.4,123.7,190.4L123.7,190.4z M98.3,191c-0.1,2.1,0,4,1.6,5.2c0.2,0.1,0.6,0.4,0.9,0.3
			c0-0.1,0.1-0.2,0.1-0.3C101,195.7,98.7,191.7,98.3,191L98.3,191z M107.8,191c-0.5,1.1-1.1,2.2-1.6,3.3c-0.4,0.8-1.1,1.6-1.1,2.6
			c0.1,0,0.2,0,0.3,0c0-0.1,0-0.1,0-0.2C107.6,195.9,108.4,193.3,107.8,191L107.8,191z M44,191.2c-0.9,0.3-1.8,0.6-2.7,0.9
			c-1.5,0.6-3.7,1.8-4.5,3.5c-0.1,0.2,0,0.1-0.2,0.1c0,0.1,0,0.2,0,0.3c0.1,0,0.1,0,0.2,0c0,0.1,0,0.1,0,0.2c0.8,0,1.5,0,2.3,0
			c0.3-0.1,0.6-0.1,0.9-0.2c0.1,0,0.1-0.1,0.2-0.1c1.9-0.7,3.7-1.5,5.1-3.1c0.1,0,0.1,0,0.2,0c0-0.1,0-0.1,0-0.2c-0.1,0-0.1,0-0.2,0
			c0-0.1,0-0.1,0-0.2c-1,0.2-1.9,0.6-2.8,1c-0.5,0.2-1.1,0.8-1.7,0.8c-0.1-0.2-0.6-0.9-0.3-0.9c0.7-0.8,3.5-2,4.7-1.9
			c0.6,0,0.8,0.5,1.1,0.5c0-0.1,0-0.2,0-0.3c0.1,0,0.2,0,0.3,0c0-0.1,0-0.2,0-0.3C45.7,191.3,44.9,191.2,44,191.2L44,191.2z
			 M160.6,191.2c-0.1,0-0.9,0.5-0.6,0.5c0.1-0.1,0.2,0.1,0.2-0.2c1.8,0,3.1,0.5,4.5,1.1c0.4,0.2,1,0.8,1.4,0.8
			c0,0.2,0.1,0.3-0.2,0.3c-0.1,0.2-0.2,0.6-0.5,0.6c0,0.1,0,0.1,0,0.2c-0.2,0-0.2,0-0.2-0.2c-1-0.6-3.1-1.8-4.4-1.8
			c0,0.2,0,0.3,0.1,0.3c1.4,2,4.6,3.2,7.1,3.3c0.3,0,1.4,0.1,1.4-0.1c0.1,0,0.1,0,0.1,0c0-0.2,0.1-0.3-0.1-0.3
			C168.1,193,163.6,191.2,160.6,191.2L160.6,191.2z M69.7,191.8c-0.4,1.2-0.4,2.9,0.1,4c0.2,0.4,0.4,0.8,0.7,1.2c0.1,0,0.2,0,0.3,0
			c0-0.1,0-0.2,0-0.3C71.5,195.1,71.2,192.8,69.7,191.8L69.7,191.8z M136.2,191.8c-0.8,1.1-1.3,2.2-1.1,3.8c0.1,0.5,0.2,1,0.3,1.5
			c0.1,0,0.2,0,0.3,0c0-0.1,0-0.1,0-0.2C136.6,195.7,137.5,193.1,136.2,191.8L136.2,191.8z M79.5,192.5c0.5,1.4,1.7,1.2,3,1.2
			c0-0.2,0-0.2-0.2-0.2c0-0.1,0-0.1,0-0.2C81.5,192.9,80.7,192.6,79.5,192.5L79.5,192.5z M125.7,192.5c-0.3,0.2-1.8,0.7-1.8,1.1
			c-0.1,0-0.1,0-0.2,0c0,0.1,0,0.1,0,0.2c0.1,0,0.2,0,0.3,0c0.4,0.1,0.8,0.1,1.2,0.2c0.3-0.1,0.6-0.3,0.8-0.4
			c0.2-0.1,0.4-0.6,0.7-0.6c0-0.1,0-0.2,0-0.3C126.4,192.5,126,192.5,125.7,192.5L125.7,192.5z M47.9,192.7
			c-0.1,0.8-0.8,5.2-1.1,5.5c-0.2,0.2-0.7,0.2-1,0.2c0.2-1.7,0.5-3.4,0.8-5.1c-0.1,0-0.1,0-0.2,0c0,0.1,0,0.1,0,0.1
			c-0.1,0-0.1,0-0.2,0c-0.3,0.4-0.6,0.8-0.9,1.1c-0.6,1.2-0.3,4.6,0.1,5.8c0,0.1,0.3,0.8,0.3,0.4c0.1,0,0.1,0,0.2,0
			c0.5-0.7,0.9-1.3,1.4-2C48.5,197,49.1,194.7,47.9,192.7L47.9,192.7z M127.9,192.7c-0.2,0.5-0.8,2-1.5,2c0,0.1,0,0.1,0,0.2
			c0.6,0.2,1.2,0.4,1.8,0.6C128.1,194.5,128,193.6,127.9,192.7L127.9,192.7z M158,192.8c-0.9,2.8-0.2,4.8,1.4,6.9
			c0.2,0.3,1,0.9,1,1.3c0.9-1,0.8-5,0.4-6.3c-0.1-0.3-0.4-0.6-0.6-0.9c-0.1-0.1-0.3-0.5-0.6-0.5c0-0.1,0-0.1,0-0.2
			c-0.1,0-0.1,0-0.2,0c0,0.1,0,0.1,0,0.2c0.5,1.1,0.5,2.6,0.6,3.9c0.1,0.4,0.2,0.8,0.3,1.2c-0.3,0-0.8,0-1-0.2
			C158.6,197.5,159,194,158,192.8L158,192.8z M76.2,193.3c-1.7,1-2.9,1.4-3.8,3.3c-0.1,0.3-0.4,0.8-0.4,1.1c0.1,0,0.2,0,0.3,0
			c0.4,0.1,0.8,0.1,1.2,0.2c0.4-0.2,0.9-0.4,1.3-0.5c1.6-0.8,2.2-2.1,2.2-4C76.7,193.3,76.5,193.3,76.2,193.3L76.2,193.3z
			 M129.3,193.3c0,0.7-0.1,1.6,0.2,2.2c0.5,1,3.3,2.9,4.3,2c0.8-0.8-1.9-3.3-2.6-3.7C130.6,193.5,130,193.4,129.3,193.3L129.3,193.3
			z M86.7,194.3c-0.5,0.1-1.1,0.2-1.7,0.3c0.3,0.8,0.3,1.3,0.3,2.3c0.4,0,0.8,0,1.2,0c0.8-0.4,3.7-1.2,4.7-1.2
			c0.4-0.1,0.7-0.1,1.1-0.2c0.5-0.1,0.9-0.2,1.4-0.3C93.3,194.5,88,194.3,86.7,194.3L86.7,194.3z M116.4,194.3
			c-0.9,0.2-1.9,0.3-2.8,0.5c-0.6,0.1-1.1,0.3-1.7,0.4c0,0.1,0,0.1,0,0.2c1.3,0,2.7,0.1,3.9,0.3c1.1,0.2,3.8,1.4,4.8,0.9
			c0.1,0,0.5-1.7,0.5-1.9c0.2,0,0.2,0,0.2-0.2c-0.1,0-0.2,0-0.3,0C119.8,194.2,117.7,194.3,116.4,194.3L116.4,194.3z M83,195.1
			c-0.3,0.1-0.5,0.3-0.8,0.4c-0.3,0.3-0.3,1,0.1,1.2c0.5,0.2,1.6,0.1,1.8-0.5C84.4,195.4,83.6,195.2,83,195.1L83,195.1z
			 M122.4,195.1c-0.6,1,0,1.8,1.2,1.7c0.4,0,0.6-0.4,0.9-0.4C124.2,195.4,123.5,195.2,122.4,195.1L122.4,195.1z M21.6,195.4
			c4.9,0,10.2,1.9,7.9,7.5c-0.5,1.1-1,2.2-1.5,3.3c-0.2,0.4-0.7,1-0.7,1.5c4.3,0.5,8.5,1.1,12.8,1.6c8.7,1.2,17.4,2.1,25.4,4.7
			c3.3,1.1,6.4,2.2,9.2,4.2c0.5,0.3,1.3,0.7,1.5,1.3c0.2,0.6-1,0.9-1.3,1.1c-0.6,0.1-1.2,0.3-1.8,0.4c-1.8,0.6-3.6,2.9-3.9,4.7
			c-0.1,0.7,0.1,1.6,0.1,2.2c-0.2,0-0.3,0.1-0.3-0.2c-8.6-4.8-19.8-4.8-30.4-5.7c-6.5-0.5-14-0.9-18.9-4.3c-1.7-1.2-3.2-2.4-3.9-4.5
			c-0.2-0.7-0.3-2-0.2-2.8c0.4-2.3,0.8-4.5,1.3-6.8c0.4-2,0.5-4.6,1.6-6.3C19.3,196.2,20.4,195.9,21.6,195.4L21.6,195.4z
			 M181.9,195.4c1.9,0,3.7,0,5,1.2c0.8,0.7,1.2,1.8,1.5,2.8c0.2,1.3,0.5,2.6,0.8,3.9c0.5,2.5,1.8,7.1,1.2,9.6
			c-0.4,1.7-1.5,3.1-3,4.2c-1.1,0.8-2.2,1.5-3.3,2.1c-3.5,1.7-9.4,2.5-13.6,2.8c-7.1,0.8-14.1,1.6-21.2,2.4c-2.9,0.5-6,0.8-8.7,1.6
			c-0.7,0.3-1.3,0.6-2,0.9c-0.4,0.2-1,0.9-1.5,0.9c-0.1-3.7-1.6-5.9-5-7c-0.8-0.3-1.9-0.3-2.4-1.1c0-0.1,0-0.1,0-0.2
			c5.4-4.1,10.8-5.7,17.4-7.4c1.4-0.4,3-0.8,4.5-0.8c0.3-0.1,0.6-0.1,0.9-0.2c0.3-0.1,0.6-0.1,0.9-0.2c0.4-0.1,0.7-0.1,1.1-0.2
			c0.3-0.1,0.6-0.1,0.9-0.2c0.4-0.1,0.7-0.1,1.1-0.2c0.4-0.1,0.8-0.1,1.2-0.1c0.4-0.1,0.8-0.1,1.2-0.2c0.4-0.1,0.8-0.1,1.2-0.2
			c0.4-0.1,0.8-0.1,1.2-0.2c0.5-0.1,0.9-0.1,1.4-0.2c0.5-0.1,0.9-0.1,1.4-0.2c0.5-0.1,0.9-0.1,1.4-0.2c0.4-0.2,1.1-0.2,1.5-0.2
			c0.5-0.1,0.9-0.1,1.4-0.2c0.5-0.1,0.9-0.1,1.4-0.2c0.5-0.1,0.9-0.1,1.4-0.2c0.5-0.1,0.9-0.1,1.4-0.2c0.4-0.1,0.8-0.1,1.2-0.2
			c0.4-0.1,0.8-0.1,1.2-0.2c0.4-0.1,0.8-0.1,1.2-0.2c0.4-0.1,0.7-0.1,1.1-0.1c0.4-0.1,0.7-0.1,1.1-0.2c0.1-0.1,0.6-0.2,0.6-0.5
			c-0.1-0.7-0.5-1.4-0.8-2c-1.5-2.9-3.2-6.2,0.3-8.6C179.2,196,180.5,195.8,181.9,195.4L181.9,195.4z M65.1,196.1
			c-0.1,0.1-1.1,0.8-0.8,0.8c1.4,1.1,2.7,1.2,4.5,1.2c0.1-0.2,0.1-0.4,0.2-0.6C67.8,196.6,66.7,196.2,65.1,196.1L65.1,196.1z
			 M139.8,196.1c-0.5,0.2-1,0.4-1.5,0.6c-0.4,0.3-0.8,0.6-1.2,0.9c0,0.2-0.1,0.2,0.2,0.2c0.4,0.4,1.1,0.5,1.7,0.5
			c0.7-0.4,3.2-0.8,3.2-1.8C141.4,196.3,140.6,196.2,139.8,196.1L139.8,196.1z M21.5,196.6c-0.7,0.4-1.5,0.7-2,1.4
			c-0.4,0.7-0.6,1.7-0.6,2.6c0,0.7,0.9,3.6,1.7,3.6c0.2-0.5,1.1-2.4,1.6-2.6c0.5-0.2,2.4,0.6,2.9,0.8c0.5,0.1,1.2,0.2,1.8,0.2
			c0.4-0.3,0.9-0.4,1.2-0.7c2.1-2.1-0.4-4.3-2.5-4.9C24.4,196.6,22.9,196.6,21.5,196.6L21.5,196.6z M92.3,196.6
			c-0.8,0.2-1.6,0.3-2.4,0.5c-1.2,0.3-2.3,0.8-3.6,0.9c-1.1,0-2.2,0-3.3,0.1c0,0.1,0,0.1,0,0.2c0.1,0,0.1,0,0.2,0c1.7,1.4,4,2,6.5,2
			c0.4-0.1,0.7-0.1,1.1-0.2c1.7-1,4.3-1.8,6.5-1.8c0.5-0.1,0.9-0.1,1.4-0.2c0.2-0.1,0.4-0.1,0.6-0.2c0-0.1,0-0.1,0-0.2
			c-1.1-0.4-2.1-0.8-3.3-1.1C94.8,196.5,93.4,196.6,92.3,196.6L92.3,196.6z M110.5,196.6c-1.1,0.4-2.1,0.7-3.2,1.1
			c0,0.2,0,0.2-0.2,0.2c0,0.1,0,0.1,0,0.2c1.9,0.1,4,0.4,5.7,0.9c0.7,0.2,1.4,0.7,2,0.9c1.1,0.4,2.6,0.4,3.9,0.4
			c0.4-0.1,0.8-0.3,1.2-0.4c1.1-0.5,2.2-1,3.3-1.6c0-0.1,0-0.1,0-0.2c-1.2,0-2.3,0-3.4-0.1c-1.4-0.2-2.7-0.8-4.1-1.1
			C114.1,196.6,112.3,196.6,110.5,196.6L110.5,196.6z M181.8,196.6c-1.9,0.7-4.7,1.3-4.7,3.9c1,0.5,1.9,0.6,3.2,0.6
			c0.5-0.4,2.7-1.2,3.3-0.7c0.6,0.6,1,1.6,1.4,2.3c0.2,0.4,0.8,1,0.8,1.5c0.1,0,0.2,0,0.3,0c0.4-1,1-1.9,1.2-3
			c0.3-1.6-0.4-3.8-2-4.3C184.3,196.6,182.9,196.6,181.8,196.6L181.8,196.6z M70.6,198.1c-0.1,0.1-0.4,0.3-0.6,0.3
			c0,0.3-0.1,1.4,0.2,1.4c0,0.1,0,0.1,0,0.2c0.2,0,0.3,0.1,0.3-0.2C71.2,199.3,71.2,198.6,70.6,198.1L70.6,198.1z M135.3,198.2
			c-0.4,0.6-0.1,1.7,0.8,1.7c0-0.1,0-0.1,0-0.2c0.1,0,0.1,0,0.2,0C136.1,198.9,136.1,198.6,135.3,198.2L135.3,198.2z M74.4,199
			c-0.4,0.2-1.2,0.3-1.4,0.8c-1.1,1.9,3.8,2.4,4.9,2.4c0.2-0.2,1.1-0.2,1.1-0.6c-0.9-0.7-1.6-1.8-2.7-2.2
			C75.6,199.2,75,199.1,74.4,199L74.4,199z M131.7,199c-0.8,0.3-1.5,0.3-2.2,0.7c-0.3,0.2-0.7,0.5-1,0.7c-0.3,0.2-0.8,1.1-1.1,1.1
			c0,0.1,0,0.2,0,0.3c0.1,0,0.2,0,0.3,0c0.7,0.3,1.7,0.3,2.6,0.3c0.7-0.4,3.7-0.9,3.1-2.3C133,199.3,132.2,199.2,131.7,199
			L131.7,199z M68.5,200.4c-1.1,0.9-1.5,1.9-1.5,3.5c0.2,0,0.3,0,0.5,0c0-0.1,0-0.1,0-0.2c0.6-0.1,1-0.3,1.4-0.7
			C69.6,202.3,69.7,200.8,68.5,200.4L68.5,200.4z M137,200.5c-0.1,0.2-0.1,0.3-0.3,0.3c-0.1,1.4,0.9,3,2.4,3c0-0.1,0-0.2,0-0.3
			C139.4,202,138.5,200.6,137,200.5L137,200.5z M70.9,201.1c-0.5,1.1-0.5,2.7,0,3.9c0.1,0.3,0.5,0.6,0.5,1c0.1,0,0.2,0,0.3,0
			c0-0.1,0-0.1,0-0.1C72.7,204.3,72.1,202.2,70.9,201.1L70.9,201.1z M135,201.1c-0.7,1.3-1.2,2.6-0.8,4.2c0.1,0.2,0.1,0.5,0.3,0.5
			c0.1,0.1,0.1,0.1,0.3,0.1C135.4,204.7,136.5,202.3,135,201.1L135,201.1z M182.5,201.4c-1.1,0.5-2.4,0.9-3.8,0.9
			c-0.4-0.1-0.8-0.2-1.2-0.3c0.4,1.4,1.2,2.8,1.8,4.1c0.2,0.3,0.7,1,0.7,1.4c1-0.3,4.4-1.1,4.6-2.3c0.1-0.5-0.5-1.2-0.7-1.6
			C183.7,202.8,183.3,201.8,182.5,201.4L182.5,201.4z M22.5,202.8c-0.3,0.8-1.2,1.8-1.2,2.7c1.3,0.7,3.3,2,4.8,2
			c0.4-1.2,1.2-2.3,1.6-3.5c0.1-0.2,0-0.1,0.2-0.1c0-0.1,0-0.2,0-0.3c-0.6,0.1-1.1,0.2-1.7,0.3C25,203.8,23.6,203.2,22.5,202.8
			L22.5,202.8z M180.1,209.2c-0.1,0.2-0.2,0.6-0.1,0.8c0.4,0.6,0.8,1.1,1.2,1.7c0.8,1.3,1.3,3.4,1.3,5.1c0.3-0.1,0.5-0.2,0.8-0.2
			c0.8-0.9-1.1-5.3-1.6-6C181.3,210,180.8,209.5,180.1,209.2L180.1,209.2z M38.9,210.4c-0.3,0.9,0.4,1.3,0.8,2
			c0.3,0.6,0.4,1.4,0.4,2.2c0,0.3,0,0.6-0.3,0.9c-0.5,0.4-1.3,0.4-1.8,0.6c-0.3,0.2-0.4,0.6-0.4,0.9c-1.8-0.5-2.6-1.4-3.1-3.2
			c-0.1-0.4-0.2-0.8-0.3-1.2c-1.8-0.2-0.2,3.8-2.4,3.6c-1.6-0.2-3-1.6-3.7-3c-0.2-0.4-0.6-1.3-1-1.4c-0.4-0.1-2.4,0.7-3,0.9
			c-0.9,0.1-1.8,0.1-2.7,0.2c-0.3,0.1-0.5,0.4-0.8,0.4c0.6,0.9,2.5,0.6,3.6,0.6c0.2-0.1,0.4-0.1,0.6-0.2c0,0.1,0,0.2,0,0.3
			c-1,2.3,1.9,3.6,3.6,3.6c0.5-0.2,1-0.5,1.5-0.7c0.9-0.1,1.6,0.5,2.7,0.3c0.6-0.2,1.3-1.2,1.7-1.2c0,0.1,0,0.1,0,0.1
			c0.4,0.4,0.9,0.8,1.3,1.2c2.1,1.3,5.1,0.9,7.6,1.4c0.9,0.3,1.7,0.7,2.6,1c2,0.6,4.3,0.5,6.6,0.5c0.5-0.2,1.4-0.2,2-0.2
			c0.4-0.1,0.8-0.1,1.2-0.2c0.2-0.1,0.9-0.1,1.1,0c0.4,0.3,0.9,0.7,1.3,1c0.6,0.4,1.2,0.8,1.9,1.1c1.4,0.6,3,1.1,4.8,1
			c1.7-0.1,2.5-1.8,1.7-3.2c-0.1-0.2-0.9-0.8-0.9-0.4c-0.1,0-0.1,0-0.2,0c0.2,1.5,0.8,2.8-1.7,2.6c-1.7-0.2-3.3-0.8-4.7-1.7
			c-0.6-0.4-1.3-1.6-2.1-1.7c-0.9,0.1-1.8,0.2-2.7,0.3c-2.3,0.2-5.2,0.3-7.4-0.2c-0.2-0.1-0.8-0.1-0.8-0.4c1.5-0.2,4-0.8,4-2.7
			c0-0.6-0.5-1.2-1-1.5c-1.7-1.2-4.1-0.6-5.8,0.1c-0.6,0.2-1.1,0.5-1.7,0.7C41.1,213.1,40.9,211.1,38.9,210.4L38.9,210.4z
			 M43.1,211.2c-0.1,0.2-0.2,0.6-0.2,0.9c0.1,0.5,0.7,0.8,1.1,0.5C45,211.9,43.7,211.2,43.1,211.2L43.1,211.2z M152.3,212.7
			c-0.2,0.1-0.4,0.3-0.6,0.3c0,0.1,0,0.1,0,0.2c0.4,1.1,0.8,2.2,1.2,3.3c1.2,3.4,3.7,3.6,7.3,3.6c0.4-0.1,0.7-0.1,1.1-0.2
			c1-0.3,2.1-0.5,3.1-0.8c1.4-0.5,2.8-0.9,4.2-1.4c0.5-0.2,1.1-0.8,1.5-0.8c0-0.1,0-0.1,0-0.2c0.1,0.1,0.1,0.2,0.3,0.2
			c0.4,1.1,1.8,3.5,3.3,2.2c0.5-0.5,0.5-1.6,0.7-1.7c0.4-0.2,2.2-0.2,2.8-0.2c0.6-0.4,1.4-0.4,2-0.9c1.3-1,0.3-2.9-1-3.4
			c-0.1,0-0.8-0.2-0.8,0c-0.1,0-0.1,0-0.2,0c0.1,0.2,0.1,0.4,0.2,0.6c0.3,0.5,1.6,1,1,1.8c-0.2,0.1-0.3,0.2-0.5,0.3
			c-1.4,0.7-4.1,0.5-5.6,0.2c-0.6-0.1-1.4-0.5-2.1-0.4c-0.8,0.1-1.5,1-2.3,1.3c-2.8,1.1-8.2,3-11.6,2c-2.2-0.7-2.6-2.7-3.3-4.6
			C153,213.6,152.9,213,152.3,212.7L152.3,212.7z M26.4,213.1c0.4,0.4,2,2.7,2,3.2c0.2,0,0.2-0.1,0.2,0.2c-0.1,0-0.2,0-0.3,0
			c-1.3,0.3-2.9-0.6-2.6-2.1C25.7,213.9,26.1,213.5,26.4,213.1L26.4,213.1z M53.2,213.7c0,0.1,0,0.1,0,0.2c-0.7,0.4-0.5,1.7,0.5,1.4
			C54.6,215,53.7,213.9,53.2,213.7L53.2,213.7z M45.4,214.6c0.5,0,1.1,0.1,1.6,0.1c0.9,0.2,2.1,1.2,1,2c-1.4,1-5.4,0.6-7.4,0.6
			c-0.3,0-2,0.1-2-0.2c-0.1,0-0.1,0-0.2,0c0-0.1,0-0.1,0-0.2c0.1,0,0.2,0,0.3,0c0.7-0.2,1.4-0.4,2.1-0.7c1.3-0.5,3-1.6,4.5-1.6
			C45.4,214.7,45.4,214.7,45.4,214.6L45.4,214.6z M145.8,215.7c-0.6,1.1-0.2,1.5,1.1,1.5C147,216.3,146.7,215.9,145.8,215.7
			L145.8,215.7z M60.1,215.8c0,0.1,0,0.1,0,0.2c-1.2,0.9,0.5,1.8,0.5,1.5C61.4,217,60.9,216.1,60.1,215.8L60.1,215.8z M149,215.8
			c-0.2,1.7,4,2,2.9,4.1c-1.2,2.2-7.4,2.1-7.4-1.7c-0.4,0-0.7,0-1.1,0c0.1,3.5,2.8,4.2,5.9,4.2c1.2-0.6,2.5-0.6,3.4-1.7
			C154.4,218.4,151,216.1,149,215.8L149,215.8z M62.2,216.1c-0.3,0.6-0.3,2,0.8,1.4C63.8,217.1,63,216.3,62.2,216.1L62.2,216.1z
			 M96.8,216.6c12.5,0,25.9-0.9,35.2,5.2c1.3,0.8,2.7,1.9,3.5,3.3c0.3,0.5,0.5,1.2,0.6,1.8c0,0.9,0,1.9,0.1,2.8c0,2.1,0,4.1,0,6.2
			c-0.1,0.8-0.3,1.9-0.8,2.5c-0.5,0.6-1.2,0.9-2,1c-2.7,0.3-4.8-0.3-6.9-1.6c-2.3-1.5-4.2-3.8-5.8-6c-0.5-0.7-1.2-2.4-1.8-2.8
			c-1-0.6-3.7-0.6-5-0.7c-5.6-0.4-11.5-0.5-17.3-0.3c-2,0.1-3.9,0.3-5.9,0.4c-0.9,0.1-2.3,0.1-3,0.5c-0.7,0.4-1.7,2.5-2.2,3.2
			c-2.6,3.8-8.1,9.1-13.3,6.9c-2.5-1-1.8-5.9-1.8-8.6c0-1.8-0.2-3.8,0.5-5.3c1.4-3.3,10.6-7.4,14.1-7.4c0.4-0.2,1.3-0.3,1.8-0.3
			c0.4-0.1,0.8-0.1,1.2-0.2c0.5-0.1,0.9-0.1,1.4-0.2c0.4-0.2,1.1-0.2,1.7-0.2c0.5-0.3,1.6-0.2,2.3-0.2
			C94,216.4,95.8,216.9,96.8,216.6L96.8,216.6z M171.7,217c0.5,0.1,1.7,0.6,1.7,1.2c-0.1,0-0.1,0-0.2,0c-0.1,0.1-0.5,0.5-0.5,0.2
			C172.3,218.1,172,217.5,171.7,217L171.7,217z M179.2,217.5c-0.4,0.6-0.3,2,0.8,1.4C180.8,218.4,179.9,217.6,179.2,217.5
			L179.2,217.5z M177.4,217.9c0,0.1,0,0.1,0,0.2c-0.8,0.5-0.4,1.7,0.6,1.7C178.4,218.9,178.4,218.3,177.4,217.9L177.4,217.9z
			 M32.1,218.1c0,0.1,0,0.1,0,0.2c-0.7,0.4-0.4,1.8,0.5,1.4C33.6,219.3,32.8,218.3,32.1,218.1L32.1,218.1z M34.4,218.4
			c0,0.1,0,0.1,0,0.2c-0.5,0.3-0.5,0.8-0.5,1.4c0.3,0.1,0.6,0.2,0.9,0.3c0-0.1,0-0.1,0-0.2C35.7,219.5,35.2,218.6,34.4,218.4
			L34.4,218.4z M89.6,218.7c-0.1,0.1-0.4,0.3-0.6,0.3c0.7,7.7,5.2,7.2,12.2,7.2c0.4-0.2,1.2-0.2,1.7-0.2c0.5-0.1,0.9-0.1,1.4-0.2
			c0.3-0.1,0.6-0.1,0.9-0.2c0.4-0.1,0.7-0.1,1.1-0.2c0.3-0.1,0.6-0.1,0.9-0.2c0.4-0.2,2.7-0.7,3.3-0.6c0.4,0.3,0.9,0.5,1.3,0.8
			c0.7,0.4,1.4,0.6,2.2,0.8c1.6,0.4,3.6,0.3,5.4,0.3c0.3-0.1,0.6-0.1,0.9-0.2c0.4-0.1,0.8-0.3,1.2-0.4c1.3-0.5,1.8-1.8,1.1-3
			c-0.2-0.3-0.5-0.7-0.9-0.7c-0.3,0.8,0.5,1.8,0,2.4c-0.9,1-9.8,0.9-9.8-0.6c0.6-0.1,4.3-1,3.8-1.9c-0.1-0.1-0.3-0.2-0.5-0.2
			c-0.5,0-1.1,0.1-1.6,0.1c-1.3,0-2.5,0-3.8,0c-2.3-0.2-4.5-0.5-6.8-0.7c-0.3,0-2-0.2-2,0c-0.1,0-0.2,0-0.3,0c0,0.4,0.1,0.7,0.4,0.9
			c3,0.3,6,0.6,8.9,0.9c0,0.2,0,0.3,0,0.5c-3.5,0.8-15,2.7-18,0.1C90.3,222.7,90.8,219.7,89.6,218.7L89.6,218.7z M117.1,219.6
			c-0.1,0.2-0.8,1.1-0.5,1.1c0.1,0.2,0.6,0.5,0.6,0.8c0.1,0,0.2,0,0.3,0c0-0.1,0-0.1,0-0.2C118.5,220.7,118.1,219.8,117.1,219.6
			L117.1,219.6z M119.5,219.7c0,0.1,0,0.1,0,0.2c-0.2,0.1-0.5,0.6-0.8,0.6c0,0.2-0.1,0.3,0.2,0.3c0.5,0.8,1.7,0.6,1.7-0.5
			C120.3,220.1,119.9,219.9,119.5,219.7L119.5,219.7z M124.6,220.4c0,0.2-0.1,0.3-0.1,0.5c0,0.2,0.1,0.4,0.1,0.5
			c0.2,0.5,0.5,1,0.7,1.4c0.4,1.4,0.4,3.4,0.3,4.9c0,0.2-0.1,0.6,0.1,0.6c0,0.1,0,0.1,0,0.2c0.2,0,0.5,0,0.8,0c0-0.1,0-0.1,0-0.2
			c0.1,0,0.1,0,0.2,0C126.7,225.9,127.2,221.4,124.6,220.4L124.6,220.4z M82.2,221c-0.1,0.2-0.5,0.9-0.2,0.9c0,0.1,0,0.1,0,0.2
			c1.2,0,4.5-0.1,4.5,1.3c0,2.1-4.9,3.5-6.6,3.5c0,0.4,0,0.7,0,1.1c0.4,0,0.7,0,1.1,0c0.5-0.2,1.1-0.3,1.6-0.5
			c1.4-0.4,4.1-1.4,4.7-2.9C88.9,221.1,84.7,221,82.2,221L82.2,221z M110.2,223.4c0.2,0,0.5-0.1,0.5,0.2
			C110.5,223.5,110.3,223.4,110.2,223.4L110.2,223.4z M85.2,229.1c-0.9,0.2-1.8,0.4-2.7,0.6c-2.4,0.6-4.8,1.3-6.9,2.4
			c-1.3,0.7-5.3,3.4-3.8,5.3c0.8,1,2.9,0.8,4.2,0.8c0.7-0.4,1.6-0.6,2.4-1c2.6-1.5,4.8-4.1,6.4-6.5c0.3-0.4,0.8-1,0.8-1.5
			c0.1,0,0.1,0,0.2,0C85.6,229.2,85.4,229.1,85.2,229.1L85.2,229.1z M120.3,229.1c1.2,3.3,5.9,7.8,9.2,8.9c0.9,0.3,2.2,0.3,3.3,0.3
			c0.5-0.3,1.1-0.2,1.5-0.6c2-2.3-3.6-5.6-5.1-6.2C126.5,230.3,123.3,229.4,120.3,229.1L120.3,229.1z"/>
	</g>
	<g>
		<path class="st1" d="M330.2,147.1h-21.6l-28.7-43.3v43.3h-21.6V69.5h21.6l28.7,43.9V69.5h21.6V147.1z"/>
		<path class="st1" d="M391.6,134.4h-27.5l-4.2,12.7h-22.7l28.3-77.6h24.9l28.2,77.6h-22.8L391.6,134.4z M386.2,117.9l-8.4-25.1
			l-8.2,25.1H386.2z"/>
		<path class="st1" d="M477.6,74.4c6.1,3.3,10.8,7.8,14.1,13.7c3.3,5.9,5,12.6,5,20.1c0,7.5-1.7,14.2-5,20
			c-3.3,5.9-8.1,10.5-14.2,13.8c-6.1,3.3-13.2,5-21.3,5h-30.7V69.5h30.7C464.4,69.5,471.5,71.2,477.6,74.4z M469.5,122.9
			c3.6-3.4,5.4-8.3,5.4-14.6c0-6.4-1.8-11.3-5.4-14.8c-3.6-3.5-8.5-5.2-14.8-5.2h-7.5v39.8h7.5C460.9,128.1,465.9,126.3,469.5,122.9
			z"/>
		<path class="st1" d="M545.7,147.1l-15.4-28.6H528v28.6h-21.6V69.5h34c6.2,0,11.5,1.1,15.8,3.2c4.3,2.2,7.6,5.1,9.8,8.9
			c2.2,3.8,3.3,8,3.3,12.7c0,5.3-1.4,9.9-4.3,13.9c-2.9,4-7.1,6.8-12.7,8.5l17.5,30.3H545.7z M528,103.8h10.7c2.9,0,5.1-0.7,6.6-2.1
			c1.5-1.4,2.2-3.4,2.2-6.1c0-2.5-0.8-4.5-2.3-5.9c-1.5-1.4-3.7-2.1-6.5-2.1H528V103.8z"/>
		<path class="st1" d="M628.2,134.4h-27.5l-4.2,12.7h-22.7l28.3-77.6H627l28.2,77.6h-22.8L628.2,134.4z M622.8,117.9l-8.4-25.1
			l-8.2,25.1H622.8z"/>
	</g>
	<g>
		<path class="st1" d="M280.5,181.8c-0.8,1.5-2.1,2.6-3.7,3.5c-1.7,0.9-3.7,1.3-6.1,1.3h-4.1v10h-8.2v-29.6h12.3
			c2.4,0,4.4,0.4,6.1,1.3c1.7,0.8,2.9,2,3.8,3.5c0.8,1.5,1.3,3.2,1.3,5.1C281.8,178.7,281.3,180.4,280.5,181.8z M273.4,176.9
			c0-2.2-1.2-3.2-3.5-3.2h-3.3v6.4h3.3C272.2,180.1,273.4,179.1,273.4,176.9z"/>
		<path class="st1" d="M303.8,191.9h-10.5l-1.6,4.8h-8.7l10.8-29.6h9.5l10.8,29.6h-8.7L303.8,191.9z M301.8,185.6l-3.2-9.6l-3.2,9.6
			H301.8z"/>
		<path class="st1" d="M334.3,196.7l-9.3-13v13h-8.2v-29.6h8.2v12.8l9.2-12.8h9.5l-10.9,14.4l11.4,15.2H334.3z"/>
		<path class="st1" d="M355.5,167.1v29.6h-8.2v-29.6H355.5z"/>
		<path class="st1" d="M362.9,194.5c-2.2-1.6-3.4-4-3.6-7h8.8c0.1,1,0.4,1.8,0.9,2.3s1.2,0.7,2.1,0.7c0.8,0,1.4-0.2,1.9-0.6
			c0.5-0.4,0.7-0.9,0.7-1.6c0-0.9-0.4-1.5-1.2-2c-0.8-0.5-2.1-1-3.9-1.6c-1.9-0.6-3.5-1.3-4.7-1.9c-1.2-0.6-2.2-1.5-3.1-2.6
			c-0.9-1.2-1.3-2.7-1.3-4.6c0-1.9,0.5-3.5,1.4-4.9c1-1.4,2.3-2.4,3.9-3.1c1.7-0.7,3.6-1,5.7-1c3.4,0,6.2,0.8,8.3,2.4
			c2.1,1.6,3.2,3.9,3.3,6.8h-8.9c0-0.9-0.3-1.6-0.8-2c-0.5-0.4-1.2-0.7-2-0.7c-0.6,0-1.1,0.2-1.5,0.5s-0.6,0.9-0.6,1.6
			c0,0.6,0.2,1,0.7,1.4c0.4,0.4,1,0.8,1.6,1c0.6,0.3,1.6,0.7,2.9,1.1c1.9,0.6,3.4,1.3,4.6,1.9c1.2,0.6,2.3,1.5,3.1,2.6
			s1.3,2.6,1.3,4.3c0,1.8-0.4,3.3-1.3,4.7c-0.9,1.4-2.2,2.5-3.8,3.3c-1.7,0.8-3.6,1.2-5.9,1.2C367.9,197,365.1,196.2,362.9,194.5z"
			/>
		<path class="st1" d="M408.6,167.1v6.6h-7.9v23.1h-8.2v-23.1h-7.8v-6.6H408.6z"/>
		<path class="st1" d="M430.4,191.9h-10.5l-1.6,4.8h-8.7l10.8-29.6h9.5l10.8,29.6h-8.7L430.4,191.9z M428.3,185.6l-3.2-9.6l-3.2,9.6
			H428.3z"/>
		<path class="st1" d="M470.8,196.7h-8.2l-11-16.5v16.5h-8.2v-29.6h8.2l11,16.8v-16.8h8.2V196.7z"/>
	</g>
</g>
</svg>
